<svg width="171" height="231" viewBox="0 0 171 231" fill="none" xmlns="http://www.w3.org/2000/svg">
<path d="M37.988 226.411C38.2901 226.389 38.8943 226.343 39.1964 226.32L39.8234 226.576L38.615 226.667L37.7087 226.736L37.988 226.411ZM54.3018 225.178C54.6039 225.155 55.2081 225.11 55.5102 225.087L56.4394 225.32L54.9288 225.434L53.7204 225.525L54.3018 225.178ZM108.379 221.09C110.494 220.93 114.119 220.656 116.234 220.496L120.486 220.477L112.329 221.094L104.475 221.688L108.379 221.09ZM38.5466 225.763L38.8487 225.74L39.1508 225.717L39.1736 226.019L38.5694 226.064L38.2673 226.087L38.5466 225.763ZM54.2562 224.575C54.5583 224.552 55.1625 224.507 55.4647 224.484L56.3938 224.717L54.8832 224.831L53.6748 224.922L54.2562 224.575ZM105.01 220.738L105.615 220.692L106.242 220.948L105.335 221.016L104.731 221.062L105.01 220.738ZM116.49 219.87C117.095 219.824 118.303 219.733 118.907 219.687L120.139 219.897L117.722 220.08L115.607 220.24L116.49 219.87ZM39.4301 225.393C38.2217 225.484 36.9677 224.973 35.4115 224.484C31.3474 222.972 29.3296 220.395 27.1066 215.105C26.7133 213.922 25.6474 211.88 25.2542 210.697C24.536 209.235 24.1427 208.052 24.1427 208.052C24.0971 207.449 21.9653 203.365 20.5517 200.743C19.1153 197.819 17.6562 194.594 16.8924 192.53C16.4763 191.045 16.4307 190.442 16.8754 188.286C17.0407 186.454 16.9951 185.851 16.579 184.366C15.3992 180.817 15.2682 175.066 16.6249 168.899C16.9784 165.536 17.0298 162.197 16.9502 153.107C17.0015 149.767 16.7508 146.451 16.9617 145.222C17.0815 142.787 16.6769 133.418 16.352 133.139C16.0499 133.162 15.6396 127.735 15.1153 120.801L14.1807 108.439L14.4829 108.416L14.785 108.394L14.9959 107.165C15.184 105.634 13.0641 77.5951 12.648 76.1105L12.2547 74.9273L11.9526 74.9502L11.6505 74.973L10.9211 65.3251C10.2828 56.8832 10.1917 55.6772 10.7731 55.33C11.0524 55.0057 10.9612 53.7997 10.967 49.8574C11.2351 41.3469 12.0104 35.5271 13.7832 30.8448C14.3191 29.8946 14.8321 28.6429 15.1114 28.3186C15.3907 27.9942 15.6245 27.0669 15.6017 26.7654C15.881 26.4411 16.4168 25.4909 17.2547 24.5179C18.9306 22.5719 23.7929 18.5656 24.3971 18.5199L25.0014 18.4742L24.9786 18.1727C24.9786 18.1727 26.1414 17.4784 27.6292 17.0627C32.0696 15.5141 31.7675 15.5369 32.121 12.1748C32.3091 10.6444 33.4491 9.64857 34.9597 9.53436C35.5639 9.48868 36.1681 9.443 36.4474 9.11866C36.4246 8.81716 41.2584 8.45171 41.5833 8.73037C41.6061 9.03186 42.2103 8.98618 43.1166 8.91766C44.0229 8.84914 44.9293 8.78061 44.952 9.08211C45.8584 9.01359 46.5766 10.4754 46.6677 11.6814C46.8045 13.4904 47.802 14.6278 49.9168 14.4679C51.1252 14.3766 57.6974 16.9119 59.3219 18.3052C59.6468 18.5838 60.9009 19.0955 61.8528 19.6299C64.7313 21.5349 71.5087 26.7836 73.8286 29.3372C75.4531 30.7305 78.0751 33.2613 79.7224 34.956C80.3722 35.5134 81.7402 37.5325 82.7833 39.2729C84.8239 42.1509 84.8239 42.1509 87.1888 77.4489C89.7874 111.82 90.2433 117.85 90.0436 127.264C89.9637 134.245 91.0122 148.113 92.0097 149.251C92.0097 149.251 92.7279 150.713 93.4461 152.175C94.9053 155.4 95.6007 156.56 98.7756 162.384C101.905 167.606 102.253 168.186 106.567 173.014C109.908 177.007 111.509 178.099 114.109 180.328C116.639 181.653 122.328 184.558 123.234 184.49L123.537 184.467L123.559 184.768L123.582 185.07L126.347 185.467C131.597 186.586 134.059 187.007 136.778 186.801C138.613 186.966 140.124 186.851 140.449 187.13C140.774 187.409 143.795 187.18 147.42 186.906C150.743 186.655 153.764 186.426 154.089 186.705C154.089 186.705 155.018 186.938 155.925 186.87C158.666 186.965 159.898 187.176 161.779 187.943C164.287 188.966 165.889 190.058 166.305 191.543C166.35 192.146 167.023 193.005 167.695 193.863C169.668 195.837 169.177 197.39 166.059 200.355C164.64 201.675 156.802 206.513 156.198 206.558C155.896 206.581 155.314 206.928 151.524 209.034C148.012 210.816 140.944 213.776 137.667 214.63C136.76 214.699 135.575 215.092 135.295 215.416C134.993 215.439 134.714 215.763 134.389 215.484C134.087 215.507 133.785 215.53 133.203 215.877C132.622 216.224 126.346 217.609 121.86 218.554C118.28 219.431 104.988 220.436 104.663 220.158C104.338 219.879 104.036 219.902 103.734 219.925C103.129 219.97 102.2 219.737 101.271 219.504C100.342 219.271 98.7859 218.783 98.1589 218.527C97.2297 218.294 96.3006 218.061 95.6508 217.504C95.0238 217.248 93.4449 216.457 92.1909 215.946C90.9368 215.434 89.033 214.365 87.779 213.854C86.8271 213.319 85.8752 212.785 85.8752 212.785C85.573 212.808 84.6211 212.273 83.6692 211.739C82.4152 211.227 80.2321 210.482 78.9552 209.669C77.3763 208.879 75.1932 208.134 73.9392 207.623C72.6851 207.111 70.7813 206.042 69.2252 205.553C67.6462 204.763 65.7652 203.996 64.8133 203.461C63.8614 202.927 62.9095 202.392 62.3053 202.438C61.0968 202.529 61.1652 203.434 61.8946 213.082C62.5785 222.127 62.5785 222.127 61.695 222.497C61.1135 222.844 59.6258 223.259 58.1152 223.374C56.6275 223.789 54.5127 223.949 53.3271 224.342C50.6309 224.849 42.474 225.466 39.4301 225.393ZM159.202 186.015L159.807 185.97L160.434 186.225L159.527 186.294L158.923 186.34L159.202 186.015ZM90.2722 98.138L89.5655 88.7916L90.2096 93.2912C90.4147 96.0047 90.7338 100.226 90.939 102.939L91.0016 107.786L90.2722 98.138ZM86.8302 52.6119L86.2603 45.0745L86.8359 48.6696C86.9727 50.4786 87.2463 54.0966 87.4058 56.207L87.4 60.1493L86.8302 52.6119Z" fill="#F34275"/>
<path d="M39.2135 228.168C39.515 228.138 40.1179 228.077 40.4194 228.047L41.0525 228.287L39.8467 228.408L38.9423 228.499L39.2135 228.168ZM55.4921 226.533C55.7935 226.503 56.3965 226.443 56.6979 226.412L57.6325 226.622L56.1252 226.774L54.9194 226.895L55.4921 226.533ZM109.452 221.115C111.563 220.903 115.18 220.54 117.29 220.328L121.541 220.205L113.402 221.023L105.564 221.81L109.452 221.115ZM39.756 227.506L40.0575 227.475L40.359 227.445L40.3892 227.746L39.7862 227.807L39.4848 227.837L39.756 227.506ZM55.4317 225.932C55.7331 225.901 56.336 225.841 56.6375 225.811L57.5721 226.021L56.0648 226.172L54.859 226.293L55.4317 225.932ZM106.076 220.847L106.679 220.786L107.312 221.026L106.408 221.117L105.805 221.178L106.076 220.847ZM117.531 219.696C118.134 219.636 119.34 219.515 119.943 219.454L121.179 219.634L118.767 219.876L116.657 220.088L117.531 219.696ZM39.9065 225.971C38.0675 225.852 34.2688 224.41 33.907 223.839L33.5451 223.267L34.0876 222.605C35.233 221.882 42.1664 221.186 50.9388 220.609C57.9025 220.214 57.9025 220.214 59.5004 220.965C60.4652 221.476 61.1285 222.017 61.4601 222.288L61.7918 222.558L61.822 222.859C61.0083 223.852 43.5843 226.21 39.9065 225.971ZM108.337 219.1C103.785 219.253 98.4786 217.963 92.0569 214.657C88.2279 212.915 82.8011 210.421 79.6356 209.219C78.6708 208.708 75.2037 207.537 72.0382 206.335C67.5761 204.352 62.1493 201.859 59.8277 199.965L59.7975 199.664L60.0989 199.633L60.7321 199.874C61.0335 199.843 62.9329 200.564 64.8322 201.285C66.7316 202.006 69.8971 203.208 71.495 203.959C73.3944 204.68 75.9269 205.641 77.5248 206.392C90.5792 212.071 92.78 212.761 100.075 212.637C104.658 212.784 112.465 211.696 117.801 210.249C119.579 209.767 122.835 208.832 124.945 208.62C128.532 207.956 135.676 206.327 138.962 205.693C140.168 205.572 144.027 204.577 147.946 204.183C151.834 203.489 156.024 202.765 157.2 202.343C158.376 201.921 159.581 201.8 159.612 202.1L159.943 202.371L157.05 203.877C149.876 208.244 144.932 210.564 138.451 212.734C128.443 216.17 114.728 219.066 108.337 219.1ZM59.9523 219.4C58.9875 218.889 58.6256 218.318 58.5652 217.716C57.1775 212.994 55.7288 204.63 55.3059 200.419L55.2153 199.516L55.5167 199.486C55.8182 199.455 56.8131 200.267 58.1096 201.049C60.3708 202.341 60.3708 202.341 61.0656 209.26C61.4583 213.171 61.851 217.082 62.2733 218.256L62.4545 220.061L61.8516 220.121C61.5501 220.151 60.917 219.911 59.9523 219.4ZM31.5551 221.644C30.8616 220.802 30.1076 219.358 27.3933 213.553C24.2567 206.575 22.6884 203.086 20.5172 199.657C19.0697 197.372 17.8028 193.852 18.0439 193.22L18.3453 193.19L18.9784 193.43C20.5763 194.182 23.983 194.751 28.2335 194.628C33.7201 194.685 39.2369 195.043 42.945 195.582C44.181 195.762 46.9545 196.091 48.8237 196.511C50.3914 196.962 52.2303 197.081 52.562 197.351C53.1951 197.592 53.6476 199.066 54.1007 203.578C54.433 206.888 54.9459 208.963 56.2133 215.521C56.3342 216.725 56.455 217.928 56.4852 218.229L56.5154 218.53L54.7067 218.711C53.8023 218.802 50.7576 218.804 47.743 219.107C41.9852 219.381 35.3834 220.348 33.3638 221.462C32.1882 221.884 32.1882 221.884 31.5551 221.644ZM99.9242 211.132C96.2766 211.195 90.6994 210.235 88.1367 208.973C87.5036 208.733 85.9057 207.982 84.6394 207.501C83.0718 207.051 79.5443 205.278 76.3787 204.076C71.2836 201.853 63.3545 198.699 63.0531 198.729C62.7516 198.759 60.8523 198.038 58.6213 197.047C55.1542 195.876 53.5865 195.425 50.2101 195.157C48.0395 194.767 46.1704 194.347 45.8689 194.377C43.9696 193.656 35.0764 193.03 29.2883 193.003C24.1334 193.217 22.2642 192.797 20.6965 192.346C18.1641 191.385 17.4705 190.543 18.6159 189.82C19.1886 189.459 27.0567 188.973 30.1014 188.971C33.7793 189.209 38.1205 189.989 44.6625 191.459C58.9523 194.279 59.284 194.549 77.8256 203.323C81.0214 204.826 85.7546 206.478 89.1311 206.746C91.6333 207.407 97.1199 207.464 99.2301 207.252C100.436 207.131 106.133 206.255 112.132 205.348C118.131 204.442 126.843 203.264 131.335 202.509C135.826 201.754 140.348 201.3 141.524 200.878C142.428 200.787 144.508 200.274 146.287 199.792C148.969 199.219 156.355 196.958 156.958 196.897C157.53 196.536 167.267 193.431 167.87 193.37L168.202 193.641L168.292 194.544C168.624 197.853 162.746 199.962 144.177 203.042C141.494 203.616 137.907 204.28 136.128 204.762C134.018 204.974 130.16 205.969 126.874 206.603C123.588 207.237 118.825 208.323 116.142 208.896C111.982 209.922 109.902 210.434 105.984 210.828C103.27 211.1 100.557 211.373 99.9242 211.132ZM92.055 205.541C85.9051 204.943 83.4028 204.283 72.8507 199.265C71.2226 198.213 70.5894 197.972 67.4239 196.771C66.4591 196.26 64.8612 195.509 63.8964 194.998C62.9316 194.487 61.6352 193.705 61.0323 193.766C60.3992 193.526 59.766 193.285 59.7358 192.985C59.4344 193.015 59.2531 191.21 58.7704 189.435C58.2877 187.66 57.6238 184.08 57.0505 181.403C55.9038 176.048 55.119 171.265 55.3903 170.934C55.963 170.573 59.0984 171.473 62.2639 172.675C65.731 173.846 65.731 173.846 67.8412 173.634C69.9211 173.121 74.0811 172.096 80.8937 170.196C85.9278 168.779 88.4899 167.003 89.9965 163.813C90.4484 162.248 90.4182 161.947 89.7838 155.629L89.1193 149.011L89.7222 148.95L90.0236 148.92L91.2301 151.837C95.9048 162.004 102.659 171.657 110.288 177.881C115.293 182.24 120.75 185.035 126.93 185.934C130.668 186.774 140.767 187.279 147.731 186.884C158.342 186.426 161.719 186.695 164.372 188.86C165.699 189.942 165.85 191.446 165.006 192.139C164.734 192.47 162.685 193.283 160.906 193.766C159.128 194.248 156.776 195.092 156.204 195.453C150.898 197.202 139.594 199.856 127.868 201.337C123.075 202.123 117.045 202.728 114.363 203.301C111.68 203.874 106.254 204.419 102.365 205.114C96.3358 205.719 94.8285 205.87 92.055 205.541ZM159.397 184.801L160 184.74L160.633 184.981L159.729 185.071L159.126 185.132L159.397 184.801ZM50.6916 190.854C44.4812 189.654 43.215 189.174 38.2709 188.455C32.0606 187.255 29.3173 187.226 23.8609 187.47C18.7362 187.985 18.7362 187.985 18.0124 186.842C16.6254 185.158 16.4133 180.013 17.1654 172.341C17.767 166.203 17.9476 164.969 17.9174 164.669L18.2189 164.638L19.5455 165.721C21.837 167.314 25.6961 169.357 28.8617 170.559C31.7258 171.791 31.7258 171.791 35.6145 171.096C37.7247 170.884 41.945 170.461 44.9596 170.158C49.7829 169.674 50.3858 169.613 51.652 170.094C53.2197 170.544 53.2197 170.544 53.4311 172.65C55.2115 181.284 55.1511 180.682 56.8107 188.112C57.2632 189.586 57.4142 191.091 57.4444 191.391L57.535 192.294L56.9321 192.354C56.6307 192.385 53.8269 191.755 50.6916 190.854ZM62.6856 170.809C61.1179 170.359 58.9171 169.668 57.6811 169.488C56.4451 169.309 55.209 169.129 55.1788 168.828C54.8774 168.858 54.7868 167.956 54.7263 167.354L54.907 166.12L55.8113 166.03C56.7157 165.939 58.5848 166.359 60.454 166.779C66.3629 168.009 69.4378 168.308 71.4876 167.494C72.0603 167.133 74.1403 166.62 76.2504 166.408C80.1391 165.714 83.3645 164.478 84.4193 162.853C86.0468 160.867 86.0153 154.488 84.7183 150.668C83.9341 148.924 83.8737 148.322 84.7176 147.629C85.8328 146.606 86.2545 144.74 86.2237 141.401C86.3137 139.264 86.1324 137.459 85.7706 136.888C85.7404 136.587 85.6497 135.684 85.921 135.353L86.1318 134.421L86.7347 134.36L87.3376 134.299L87.4887 135.804C87.5491 136.405 87.821 139.113 88.3943 141.79C89.1791 146.574 89.1791 146.574 88.3351 147.266C87.5214 148.259 87.5214 148.259 88.2161 155.179C88.9109 162.098 88.9109 162.098 87.8561 163.724C86.6207 166.583 83.727 168.089 77.1554 169.356C75.9798 169.778 73.8998 170.291 72.1213 170.773C67.0872 172.19 65.8814 172.312 62.6856 170.809ZM51.1391 168.018C50.1743 167.507 41.4321 168.385 36.3376 169.2C32.7504 169.864 32.4489 169.895 30.5798 169.475C26.1782 168.093 20.6909 164.998 18.9118 162.442C17.8866 161.329 17.8564 161.028 17.5845 158.321C17.4335 156.816 17.2523 155.011 17.4933 154.379L17.4027 153.477L17.7041 153.446C17.7041 153.446 18.6991 154.258 19.4531 155.702C23.7653 162.258 30.3079 166.767 35.5233 167.155C36.7593 167.335 39.4724 167.062 43.964 166.308C47.5814 165.944 50.8974 165.611 51.5003 165.551C52.4349 165.761 53.1284 166.603 52.9176 167.536L52.6766 168.168L52.3751 168.198C52.0737 168.228 51.4405 167.988 51.1391 168.018ZM68.322 166.293C64.9456 166.024 63.4081 165.875 61.8404 165.424C60.5742 164.944 58.705 164.523 57.1676 164.374C55.6301 164.224 54.3639 163.744 54.3639 163.744C54.0322 163.473 53.3676 156.855 52.2506 148.762C51.435 140.639 50.6194 132.517 50.1367 130.742C49.4425 126.861 47.5105 113.684 45.5476 97.1682C44.3997 85.736 44.3997 85.736 45.5451 85.0133C49.8555 82.4533 50.6988 78.7221 49.7624 69.3959C49.4603 66.3875 48.4634 56.4596 47.5572 47.4342C46.651 38.4089 45.4735 29.7146 45.3225 28.2104C44.8398 26.4356 44.5075 23.1263 43.9946 21.0507L43.5717 16.8388L44.1746 16.7783C46.5862 16.5361 50.023 17.4066 54.2138 19.7207C59.6708 22.5154 60.6658 23.3271 64.3141 26.3035C72.2438 32.4965 79.0583 39.7131 80.3553 43.5332C80.7474 44.4055 81.2609 49.5199 82.047 60.3806C82.8928 68.8042 84.2219 82.0414 85.0375 90.1642C86.366 100.363 86.94 106.079 87.0312 110.02C87.0318 113.059 87.2137 117.903 87.5158 120.911C87.6976 125.755 87.8795 130.599 87.3974 131.862C87.4276 132.163 86.8549 132.525 86.2822 132.886C84.2023 133.399 83.9914 134.332 84.5352 139.747C84.7472 144.891 84.5364 145.824 82.547 147.24C80.8289 148.324 80.8592 148.625 82.1556 149.406C83.1506 150.218 84.1462 154.068 83.9058 157.739C83.9064 160.778 83.4243 162.041 81.9775 162.794C81.676 162.825 80.5306 163.548 79.9579 163.909C79.3852 164.27 77.6067 164.753 75.4965 164.965C73.718 165.447 71.6078 165.659 71.0351 166.02C69.558 166.473 69.2566 166.503 68.322 166.293ZM75.1019 151.937C76.82 150.853 78.1461 148.897 79.1102 146.369C79.5621 144.804 79.8031 144.172 79.5615 141.766C79.2594 138.757 78.9277 138.487 77.45 135.9C76.6961 134.456 75.9422 133.013 75.9119 132.712C75.8817 132.411 76.3336 130.846 77.0869 129.251C79.3469 124.466 79.6182 124.135 78.5319 119.382L78.4715 118.78L79.0744 118.72C79.9788 118.629 80.5213 117.967 80.4609 117.365C80.4004 116.763 79.7371 116.222 78.109 115.17C76.1493 113.848 75.4859 113.306 76.0284 112.644L75.9982 112.343L77.5961 113.095C79.4653 113.515 79.7667 113.484 82.2079 110.504C84.3477 107.555 85.101 105.96 84.7687 102.65C84.7983 99.9123 84.7681 99.6115 84.1048 99.0703C83.4717 98.83 83.4415 98.5292 83.6523 97.5964C83.8027 96.0619 83.4711 95.7913 82.7775 94.9493C81.8128 94.4384 81.8127 94.4384 82.2042 92.272C82.8971 90.0753 82.505 89.203 81.2086 88.4215L80.274 88.2115L80.7561 86.9476C81.4792 85.0517 81.3886 84.1492 80.7253 83.608C80.0922 83.3677 79.7303 82.7963 79.4288 82.8265C78.7957 82.5862 78.7353 81.9845 78.1922 79.6081C77.9505 77.2013 77.5887 76.6299 77.2268 76.0585C76.262 75.5476 75.9606 75.5778 74.4835 76.03C73.3381 76.7528 73.3079 76.452 70.5942 73.6856C66.8553 69.8068 63.9603 65.2354 61.1856 58.8287C59.2252 54.4674 58.6216 51.4892 58.9225 48.4202C59.5248 45.3209 59.4946 45.0201 59.1629 44.7495C57.1729 43.1261 55.6663 46.3161 55.8783 51.4608C56.1804 54.4692 56.6933 56.5448 58.6537 60.9062C60.2522 64.6961 60.9458 65.5381 63.1774 69.5683C66.3738 74.1094 72.8264 80.7546 74.3337 80.6032L74.9366 80.5427L74.997 81.1444C75.3287 81.415 75.4495 82.6184 75.902 84.0923C76.053 85.5965 76.2041 87.1008 76.5357 87.3713C76.5659 87.6722 76.958 88.5444 77.0486 89.447C77.1997 90.9512 77.2299 91.2521 77.8932 91.7932C78.8882 92.6049 78.8882 92.6049 78.4968 94.7714C78.2859 95.7042 78.1657 97.5395 77.9247 98.1715C78.0455 99.3749 78.0757 99.6757 79.734 101.029C81.3923 102.381 81.4225 102.682 81.5434 103.886C81.6642 105.089 81.7246 105.691 80.3684 107.346C79.5848 108.641 78.7711 109.634 78.4696 109.664C77.8969 110.026 76.6307 109.545 75.0026 108.493C72.681 106.599 71.5356 107.322 71.8377 110.33C71.9887 111.834 72.0491 112.436 71.4764 112.797C70.3914 114.122 70.8741 115.897 73.8591 118.332C74.5526 119.174 75.608 120.587 75.9699 121.159C76.3922 122.332 76.4224 122.633 76.2417 123.866C76.0309 124.799 75.0365 127.026 74.2832 128.621C72.5355 132.443 72.6564 133.646 74.8276 137.075C76.3053 139.662 76.3355 139.962 76.5469 142.068C76.7282 143.873 76.7886 144.475 76.3367 146.04C75.6136 147.936 73.9559 149.622 72.1774 150.104C70.3989 150.586 66.5398 148.543 64.7908 146.287C64.0369 144.844 63.7046 141.535 64.1565 139.97C64.4277 139.639 65.2414 138.645 65.4825 138.013C66.3566 137.622 66.5977 136.99 66.5675 136.689C66.4769 135.786 65.4819 134.975 64.2156 134.494L63.5825 134.254L63.8538 133.923C65.2402 132.568 66.0539 131.575 66.0237 131.274C66.0237 131.274 65.6619 130.702 65.3 130.131L64.3352 129.62L64.8475 128.657C65.3598 127.694 64.9677 126.822 63.7015 126.341C63.0684 126.101 62.7367 125.83 62.7367 125.83C62.7065 125.529 62.9475 124.897 63.49 124.235C64.3038 123.242 64.2736 122.941 64.0923 121.136C63.6096 119.361 63.6096 119.361 61.9513 118.008C59.6297 116.114 58.1822 113.828 57.488 109.948C56.9751 107.872 56.8543 106.669 57.0651 105.736C57.517 104.171 59.3855 101.552 61.3447 99.8363C62.1584 98.8429 63.8161 97.1571 65.2328 96.1032C66.6192 94.7485 68.0056 93.3938 68.8798 93.0021C70.0252 92.2794 72.5268 89.901 73.0089 88.6371C72.9485 88.0354 73.1291 86.8018 73.0385 85.8992C72.7364 82.8908 71.4098 81.8085 68.365 81.8103L66.8577 81.9617L66.4355 80.7885C66.3448 79.886 65.6513 79.044 64.4455 79.1651C64.144 79.1953 63.2699 79.587 62.3957 79.9787C60.6776 81.0628 58.5976 81.5755 57.9041 80.7335L57.5725 80.463L57.8135 79.831C57.7833 79.5301 58.6272 78.8377 59.4712 78.1452C60.6166 77.4224 61.1893 77.061 61.1289 76.4593C61.0987 76.1585 61.3095 75.2257 61.5807 74.8946C62.3643 73.6004 61.6707 72.7584 60.0728 72.0072C59.4397 71.7669 58.8066 71.5266 58.7764 71.2257C58.7764 71.2257 59.3491 70.8643 59.5901 70.2324C60.1628 69.871 60.7355 69.5096 60.6751 68.9079C60.6449 68.6071 59.9212 67.4642 58.5643 66.0811C55.8506 63.3148 53.9809 59.856 53.1363 57.5098C52.714 56.3367 52.2011 54.261 51.9896 52.1551C51.5969 48.2441 51.7474 46.7096 53.3144 44.1212C54.0375 42.2254 57.835 37.5898 58.4379 37.5292L59.0408 37.4687L59.1617 38.6721C59.3429 40.4771 60.2775 40.6872 62.0258 39.9039C62.8999 39.5122 63.7741 39.1206 64.0755 39.0903L64.6785 39.0298L64.7087 39.3306C64.7087 39.3306 64.4676 39.9626 63.9251 40.6248C63.1416 41.919 62.4789 44.4166 62.5695 45.3191C62.7206 46.8233 63.8364 48.8384 65.1328 49.6199C65.7659 49.8602 66.7307 50.3711 67.394 50.9122L68.4192 52.0248L68.4494 52.3256C68.148 52.3559 67.8465 52.3862 67.2134 52.1459C65.6457 51.6955 65.073 52.0569 64.2895 53.3511C63.4757 54.3444 63.2045 54.6756 63.3857 56.4806C63.2957 58.6168 64.2611 62.1664 65.3165 63.5798C66.4022 65.2941 68.0907 66.9478 69.3267 67.1276C70.5929 67.6082 70.8944 67.5779 71.7685 67.1863C72.3412 66.8249 73.4564 65.8013 74.0291 65.4399C75.717 64.0549 76.2897 63.6935 76.6818 64.5658C76.712 64.8666 77.3156 67.8448 77.6478 71.1541C78.6139 77.7425 79.0361 78.9156 80.3628 79.9979L80.9959 80.2382L81.5686 79.8768C81.8399 79.5457 81.6888 78.0415 81.1753 72.9271C80.3899 65.1051 79.8468 62.7286 78.5201 61.6463C76.8618 60.2934 74.1487 60.5659 72.2198 62.5828C71.1348 63.9073 70.2606 64.2989 69.2959 63.788C68.6325 63.2469 67.5469 61.5326 67.1246 60.3595L67.0038 59.1561L67.6369 59.3964C69.5061 59.8165 70.9227 58.7626 70.4702 57.2887L70.0782 56.4164L70.3796 56.3861C70.6509 56.055 71.5854 56.2651 72.2185 56.5054C74.6906 56.8649 76.1677 56.4127 76.0166 54.9085C75.9562 54.3068 71.5842 50.1876 68.9309 48.023L67.6042 46.9407L68.418 45.9474C69.7742 44.2918 70.0153 43.6598 69.0203 42.8481C68.3569 42.307 67.7238 42.0666 67.7238 42.0666L67.1209 42.1272L67.0907 41.8263C67.0605 41.5255 67.5728 40.5624 68.0851 39.5993C69.5917 36.4093 68.8378 34.9656 65.2203 35.3288L63.1101 35.5407L63.0497 34.939C63.7124 32.4414 62.9887 31.2986 61.4814 31.4499C59.9741 31.6013 56.0257 34.7327 53.0419 38.3749C49.2747 43.3113 48.3709 46.4409 49.0959 53.6612C49.5188 57.873 49.9713 59.3469 52.5346 63.6477C53.6202 65.362 54.6756 66.7754 54.6756 66.7754L54.7058 67.0763L53.5 67.1973C51.1186 67.7403 51.2696 69.2446 53.6215 71.4394C54.2848 71.9806 54.9783 72.8226 55.0085 73.1234L55.0387 73.4243L54.4358 73.4848C54.1344 73.5151 53.5617 73.8765 52.989 74.2379C52.4767 75.2009 52.5371 75.8026 53.8638 76.8849C54.5573 77.7269 54.5573 77.7269 54.3767 78.9606C54.2262 80.4951 54.7089 82.2699 55.7039 83.0816C56.6989 83.8933 57.332 84.1336 59.7739 84.1923L62.2157 84.251L62.3366 85.4544C62.4272 86.3569 62.7588 86.6275 63.4222 87.1687C65.0201 87.9199 65.0201 87.9199 66.3763 86.2643C67.19 85.2709 67.7929 85.2104 68.6973 85.1196L69.9333 85.2994L70.0542 86.5028C70.175 87.7061 70.175 87.7061 68.2461 89.7231C67.4323 90.7164 65.7444 92.1014 64.9307 93.0948C60.7109 96.5572 56.8531 100.591 55.3162 103.48C54.2916 105.407 54.2318 107.844 54.926 111.724C55.4993 114.402 57.0676 117.891 58.0324 118.402C58.0626 118.702 58.3943 118.973 58.4245 119.274L58.4849 119.876L57.3093 120.297C54.9581 121.141 54.8379 122.977 57.0689 123.968L58.3351 124.449L57.1897 125.171C56.5868 125.232 56.0443 125.894 56.1047 126.496C55.8637 127.128 55.8939 127.429 56.5572 127.97L57.2507 128.812L57.0097 129.444C56.196 130.437 56.588 131.309 57.2816 132.151C58.2463 132.662 58.2463 132.662 57.4326 133.656C56.8901 134.318 56.6491 134.95 56.6793 135.251C56.7699 136.153 58.0663 136.935 59.9355 137.355C60.5686 137.595 61.5032 137.805 61.8046 137.775L62.1363 138.045L61.4132 139.941C60.7505 142.439 61.0525 145.447 62.4698 147.432C64.3094 150.59 68.8318 153.175 71.8463 152.872C73.0522 152.751 73.9263 152.359 75.1019 151.937ZM70.3051 134.49C70.9981 132.294 70.7558 126.848 69.4285 122.727C69.0364 121.855 68.8552 120.05 68.4329 118.877C68.2214 116.771 68.1912 116.47 68.8841 114.273C69.5166 111.475 69.7577 110.843 68.7325 109.73L68.3404 108.858L69.1844 108.165L70.36 107.744L70.2995 107.142C70.2693 106.841 70.4802 105.908 70.9925 104.945C71.4443 103.38 71.7156 103.049 72.6199 102.958C73.1926 102.597 74.097 102.506 74.4287 102.777C75.3632 102.987 75.9662 102.926 76.2374 102.595C76.4784 101.963 76.6893 101.03 76.0857 98.0523C75.693 94.1413 75.3312 93.5698 74.4268 93.6607C73.5224 93.7515 72.9799 94.4137 72.287 96.6104C71.7747 97.5735 71.5337 98.2054 71.2323 98.2357C71.2323 98.2357 70.5991 97.9954 70.2373 97.424C68.2473 95.8005 67.1321 96.8241 67.1025 99.562C66.8917 100.495 66.9823 101.397 66.7111 101.728L66.7715 102.33L65.8671 102.421C64.6311 102.241 63.7871 102.934 63.3051 104.198L63.0942 105.13L62.4913 105.191C61.587 105.282 60.743 105.974 60.8034 106.576C60.8336 106.877 61.889 108.29 63.8488 109.613L66.5323 112.078L66.0502 113.342C65.1465 116.472 65.2975 117.976 66.3233 122.127C67.6506 126.248 68.0131 129.858 67.9835 132.596C68.0741 133.499 68.1648 134.401 68.195 134.702C68.587 135.574 69.7626 135.153 70.3051 134.49ZM35.0406 165.38C33.5031 165.231 30.3073 163.728 28.6792 162.676C25.0913 160.302 22.3474 157.235 19.4222 152.362C17.6129 149.505 17.5827 149.204 17.3712 147.098C17.2504 145.895 16.2535 135.967 15.4977 125.407C14.7117 114.547 13.1711 99.2035 12.3555 91.0807C11.8716 83.2285 11.207 76.6099 11.1768 76.309L11.4783 76.2788L12.1114 76.5191C12.7445 76.7594 13.0459 76.7291 14.1611 75.7055C15.0051 75.013 15.608 74.9525 16.8138 74.8314C18.0498 75.0112 18.6527 74.9506 19.4967 74.2581L20.9436 73.5051L20.9738 73.8059C21.004 74.1068 20.7629 74.7387 20.2506 75.7018C20.0096 76.3338 18.2921 80.4566 16.5746 84.5795C13.9534 91.8319 13.9534 91.8319 14.3461 95.7429C14.7388 99.6539 15.8552 104.708 16.7602 107.656C17.1523 108.528 17.5142 109.099 18.1473 109.34C19.1121 109.85 19.4437 110.121 19.5344 111.024C19.5948 111.625 19.6552 112.227 19.7156 112.829C20.0473 113.099 19.8062 113.731 18.4802 115.688C16.6721 118.908 16.1598 119.871 16.2504 120.774C16.3411 121.676 17.336 122.488 18.2404 122.397C19.1448 122.306 19.175 122.607 18.9944 123.841C18.8439 125.375 19.99 127.691 21.2562 128.172C22.5224 128.652 22.5526 128.953 21.7993 130.548C21.046 132.143 20.6243 134.009 20.8358 136.115C21.0472 138.221 21.922 140.868 22.3141 141.74C22.6457 142.011 23.3393 142.853 24.0328 143.695C25.1184 145.409 25.1184 145.409 25.0888 148.147C25.2707 152.991 25.4217 154.495 26.4771 155.908C28.3167 159.066 32.8391 161.651 35.8537 161.348C37.9639 161.136 39.6517 159.751 40.9778 157.795C42.0023 155.869 42.2736 155.538 42.0621 153.432C41.8507 151.326 40.7349 149.311 39.4082 148.228C38.7751 147.988 38.4132 147.417 38.383 147.116C38.3528 146.815 40.2818 144.798 40.8847 144.737C41.1861 144.707 43.3863 142.359 43.3259 141.757C43.5065 140.524 42.7828 139.381 41.5165 138.9C40.8834 138.66 40.2503 138.42 39.9186 138.149L39.8884 137.848L40.9734 136.524C42.0282 134.899 41.9376 133.996 39.6462 132.403L38.3195 131.321L39.1635 130.628C39.4347 130.297 40.2787 129.604 40.8816 129.544C43.1724 128.098 42.358 126.053 39.5543 125.423C38.9212 125.183 37.9866 124.972 37.9866 124.972C37.6549 124.702 37.896 124.07 38.4379 120.369C38.8595 118.503 38.7085 116.999 38.4668 114.592C38.1345 111.283 38.1043 110.982 37.3504 109.539C36.6266 108.396 35.8727 106.952 35.2094 106.411C34.5158 105.569 34.154 104.997 34.1238 104.697L34.0936 104.396L36.5052 104.154C38.9168 103.912 38.8866 103.611 39.4291 102.948C40.4839 101.323 40.0918 100.451 38.0716 98.5266C37.0464 97.414 36.3529 96.572 36.3227 96.2711L36.2925 95.9703L36.8954 95.9098C37.4681 95.5484 37.6185 94.0139 37.2264 93.1416C36.2315 92.3299 35.93 92.3602 33.3377 93.836C30.1426 95.3723 24.8372 97.1205 23.571 96.6399L22.9681 96.7004L22.9379 96.3996L22.8775 95.7979L23.4804 95.7374C23.7516 95.4062 24.656 95.3154 25.2891 95.5557C26.5251 95.7355 26.8266 95.7052 27.3993 95.3439C28.2432 94.6514 28.213 94.3505 28.1224 93.448C27.9109 91.3421 28.7549 90.6496 32.553 89.0527C35.2056 88.1786 35.6877 86.9147 33.969 84.9601L32.974 84.1484L33.5165 83.4861C33.7878 83.155 34.3605 82.7937 34.6317 82.4625C35.4756 81.77 35.6865 80.8372 34.9929 79.9952C34.6613 79.7247 34.0584 79.7852 33.154 79.876L31.6467 80.0273L31.3151 79.7568C31.2849 79.4559 31.4957 78.5231 32.0382 77.8609C33.6355 75.5734 33.183 74.0994 30.7713 74.3416L29.5655 74.4626L29.1735 73.5904C29.1432 73.2895 29.3541 72.3567 29.5649 71.4239C30.3182 69.8289 31.3724 65.1649 32.0049 62.3665C32.1251 60.5311 31.9432 55.6873 31.0382 52.7394C30.0426 48.889 26.8462 44.3479 23.9519 42.8152C21.0273 40.9817 16.9574 39.871 15.4803 40.3232C14.9076 40.6845 14.3349 41.0459 14.0637 41.377C13.8529 42.3098 13.8529 42.3098 14.637 44.0544C15.0291 44.9266 15.4514 46.0998 15.4514 46.0998C15.1801 46.4309 14.6074 46.7923 13.7031 46.8831C12.7987 46.9739 11.9245 47.3655 11.6533 47.6966C10.8395 48.69 11.292 50.1639 12.6489 51.5471C13.3424 52.3891 14.0058 52.9302 14.036 53.2311C14.0662 53.5319 13.5539 54.495 12.7401 55.4883C11.0825 57.1742 11.1731 58.0767 12.5299 59.4599C13.5551 60.5724 13.5551 60.5724 12.4399 61.596C10.8124 63.5827 10.1497 66.0803 11.5066 67.4634C12.5318 68.576 13.7678 68.7558 16.1795 68.5136L18.5911 68.2715L18.3803 69.2043C18.5313 70.7085 17.9888 71.3708 16.4211 70.9204C14.8534 70.4701 13.9793 70.8617 12.3518 72.8484L10.9653 74.2031L10.6337 73.9325C10.2718 73.3611 9.09372 61.6282 8.91186 56.7844C8.60854 47.6985 9.30021 39.4243 10.4148 35.362C11.4991 30.9988 14.0908 26.4843 16.3212 24.4371C19.3955 21.6974 23.4648 19.7694 26.419 18.865L28.2277 18.6834L28.65 19.8565C29.4643 21.9019 30.1283 25.4817 30.521 29.3927C30.7626 31.7995 31.6078 37.1844 32.3926 41.9677C33.5701 50.6619 33.5701 50.6619 32.8778 55.8974C32.6972 57.131 32.7878 58.0335 33.3007 60.1092C33.7532 61.5832 34.3869 64.8622 34.5984 66.9681C36.9829 81.6187 38.2498 85.138 41.6564 85.7076L42.591 85.9176L43.2253 92.2354C43.8591 95.5144 44.7351 104.239 45.7615 111.429C46.7578 118.318 47.5129 125.839 48.0561 128.216C48.569 130.291 48.9012 133.601 49.4142 135.676C49.9875 138.354 52.1933 163.354 52.2235 163.655C51.922 163.685 35.6737 165.621 35.0406 165.38ZM34.2249 157.257C32.6573 156.807 30.6975 155.484 29.9738 154.342C29.25 153.199 29.2198 152.898 29.34 151.063C29.2192 149.859 29.0077 147.753 28.8869 146.55C28.6452 144.143 28.6452 144.143 26.0819 139.842C24.9963 138.128 24.6345 137.557 24.4834 136.052C24.272 133.947 24.2418 133.646 25.6578 129.553C26.1399 128.289 26.5615 126.424 26.7422 125.19C27.1336 123.023 27.1336 123.023 26.4401 122.181C26.0782 121.61 25.4451 121.37 24.5407 121.461L23.3349 121.582L23.1839 120.077C23.4249 119.445 23.3041 118.242 22.9422 117.671C22.5501 116.798 22.5199 116.498 24.3885 113.879C27.0103 109.665 27.2816 109.334 27.1305 107.83C26.9191 105.724 25.3514 105.274 23.6635 106.659L22.8195 107.351L22.4275 106.479C21.6735 105.035 21.3721 105.065 20.136 104.886L18.9302 105.007L18.5079 103.834C17.7238 102.089 16.6973 94.899 16.7873 92.7629C16.9982 91.8301 17.45 90.2653 17.6911 89.6333C18.2034 88.6703 19.4086 85.5105 20.3727 82.9826C21.6081 80.1237 22.8133 76.9639 23.2954 75.7C26.821 68.3568 27.242 63.4524 24.9494 55.7818C23.1998 50.4877 21.7825 48.5028 20.3961 49.8576C19.8536 50.5198 20.2155 51.0912 20.9694 52.5349C22.0852 54.55 24.2577 64.056 23.8662 66.2224C23.6554 67.1552 22.2696 71.5487 22.2696 71.5487L21.9681 71.5789L21.9071 67.9385C21.6352 65.2309 21.5446 64.3284 21.2129 64.0578C20.5496 63.5167 18.4394 63.7285 17.294 64.4513C16.3897 64.5421 15.817 64.9035 15.5155 64.9338L15.1838 64.6632L16.8113 62.6765C19.0115 60.3284 19.2526 59.6965 17.5942 58.3436C16.9309 57.8025 16.569 57.231 16.5388 56.9302C16.5086 56.6293 17.0511 55.9671 17.5936 55.3049C18.6786 53.9804 18.9196 53.3485 17.8642 51.935C17.442 50.7619 17.4118 50.4611 18.6176 50.34C19.5219 50.2492 19.7328 49.3164 19.4911 46.9096C19.099 46.0374 19.0084 45.1348 19.3099 45.1046C19.2797 44.8037 20.5459 45.2843 21.5107 45.7952C23.1086 46.5464 23.8021 47.3884 24.8575 48.8018C26.9683 51.6287 27.4208 53.1026 27.8739 57.6153C28.176 60.6238 28.2666 61.5263 27.8751 63.6928C27.4233 65.2575 27.2729 66.792 27.3333 67.3937C27.1224 68.3265 25.7366 72.7199 24.712 74.6461C24.23 75.91 24.23 75.91 24.622 76.7823C24.6825 77.384 25.1047 78.5571 25.1652 79.1588C25.2558 80.0613 25.6479 80.9336 25.9795 81.2041C26.6731 82.0461 27.0349 82.6176 26.4924 83.2798C25.6485 83.9723 26.0708 85.1454 27.0658 85.9571C28.0607 86.7689 28.1212 87.3706 26.9455 87.7925C26.3728 88.1539 25.5591 89.1472 25.0166 89.8094C24.5345 91.0733 23.9618 91.4347 23.0575 91.5255C20.1033 92.4299 18.4759 94.4166 18.6873 96.5225C18.8081 97.7259 19.8635 99.1393 21.16 99.9208C22.4564 100.702 25.8026 100.67 29.3295 99.4044C32.5548 98.1689 32.8563 98.1386 33.8815 99.2512L34.575 100.093L34.3038 100.424L34.334 100.725L33.4296 100.816C31.259 100.426 26.4659 101.211 25.8932 101.573C25.3508 102.235 25.8032 103.709 26.4364 103.949C26.768 104.22 27.763 105.031 28.7278 105.542C30.6876 106.865 31.7127 107.978 33.4617 110.233C34.6077 112.549 35.2112 115.527 34.6996 119.529C34.0375 125.065 34.0677 125.366 34.5504 127.141L35.3043 128.584L34.4906 129.578C32.8329 131.264 33.0142 133.069 35.2754 134.361C36.2402 134.872 36.9035 135.413 36.9035 135.413C36.9035 135.413 36.6624 136.045 36.3912 136.376C35.5472 137.069 35.0652 138.333 35.186 139.536C35.2464 140.138 35.6083 140.709 36.5731 141.22L37.8695 142.001L36.2118 143.687C33.7706 146.667 33.5598 147.6 36.2735 150.366C37.9922 152.321 38.7159 153.464 38.2641 155.029C37.7518 155.992 36.3955 157.647 35.4912 157.738C35.4912 157.738 34.8581 157.498 34.2249 157.257ZM32.9858 141.884C33.2269 141.252 33.2269 141.252 32.7442 139.477C31.8996 137.131 31.7183 135.326 31.989 131.956C31.8379 130.452 31.8373 127.413 31.9575 125.578C31.6252 122.269 31.5648 121.667 30.8109 120.223C30.0267 118.479 30.0267 118.479 31.0513 116.553C33.1306 113.001 33.2811 111.467 31.9846 110.685C30.7184 110.205 29.8442 110.596 27.6138 112.643C25.6547 114.359 25.1122 115.022 26.1072 115.833C26.7705 116.375 26.8007 116.675 26.6503 118.21C26.8013 119.714 26.8618 120.316 27.284 121.489C28.3092 122.602 28.6113 125.61 28.1601 130.213C27.8598 136.321 28.554 140.202 30.2727 142.156C30.6648 143.029 32.1721 142.877 32.9858 141.884ZM13.7186 122.851L12.5103 110.817L13.4159 116.804C13.7482 120.113 14.2919 125.528 14.6242 128.838L14.9269 134.885L13.7186 122.851ZM88.3252 98.6466L87.3887 89.3204L88.1433 93.8028C88.4152 96.5104 88.8381 100.722 89.1099 103.43L89.2918 108.274L88.3252 98.6466ZM41.4752 83.9025C40.842 83.6622 39.4248 81.6774 38.9723 80.2034C38.4896 78.4286 37.4033 73.6756 36.4675 67.3882C36.1957 64.6806 35.2605 61.4318 35.1094 59.9276C34.2649 57.5814 34.2649 57.5814 34.6563 55.4149C35.2888 52.6165 34.8659 48.4047 32.7526 33.4229C31.6054 25.0295 31.3939 22.9236 30.5493 20.5774C30.0968 19.1035 29.5839 17.0278 29.1616 15.8547C28.9804 14.0496 28.9502 13.7488 29.4927 13.0866C30.3366 12.3941 30.6381 12.3638 33.321 11.7905C36.0039 11.2173 39.6213 10.854 40.2846 11.3952C40.948 11.9363 41.34 12.8086 41.7327 16.7196C41.9744 19.1264 42.729 23.6088 43.3627 26.8878C44.1777 31.9719 44.8114 35.2509 46.413 54.2344C48.7692 77.7003 48.8296 78.302 47.2928 81.1912C45.9668 83.1477 43.073 84.6537 41.4752 83.9025ZM45.4236 80.7712C46.8101 79.4164 46.6893 78.2131 45.6018 67.3826C44.3337 57.7859 44.3035 57.485 44.7251 55.6194C45.3576 52.821 45.4476 50.6848 44.2714 48.068C43.4268 45.7218 42.9743 44.2478 43.7579 42.9536C44.2098 41.3889 44.0587 39.8847 42.6112 37.599C41.8573 36.1553 41.4652 35.283 40.9825 33.5082C40.7106 30.8006 39.9869 29.6578 39.0221 29.1469C37.1228 28.426 36.3695 30.021 35.6167 34.6547C35.7376 35.8581 35.2555 37.122 35.0145 37.754C34.5022 38.7171 34.9849 40.4919 36.0403 41.9053C37.1259 43.6196 37.1863 44.2213 36.584 47.3205C36.1926 49.487 36.253 50.0887 36.8867 53.3677C37.2794 57.2787 37.6419 60.8888 38.2467 69.9444C38.881 76.2622 38.9112 76.563 39.7256 78.6084C40.1479 79.7815 40.8716 80.9244 41.5349 81.4655C42.5299 82.2772 42.8314 82.247 43.7358 82.1562C44.3085 81.7948 45.1826 81.4031 45.4236 80.7712ZM8.1906 67.7964L7.19375 57.8685L7.97853 62.6518C8.2504 65.3594 8.6733 69.5712 8.97538 72.5797L9.18745 77.7243L8.1906 67.7964ZM83.7638 53.219L83.0086 45.6978L83.6726 49.2777C83.8538 51.0828 84.2163 54.6929 84.4278 56.7988L84.519 60.7401L83.7638 53.219ZM42.6199 80.1411C42.6199 80.1411 41.9566 79.5999 41.5645 78.7276C41.1725 77.8554 40.72 76.3814 39.5721 64.9493C38.8471 57.729 38.2127 51.4113 38.1825 51.1104C38.1221 50.5087 38.0013 49.3053 38.2121 48.3725C38.3927 47.1389 38.2719 45.9355 38.5129 45.3036C38.6634 43.7691 38.2109 42.2951 37.1555 40.8817C36.4015 39.438 36.4015 39.438 36.8534 37.8732C37.0642 36.9404 37.2751 36.0076 37.2751 36.0076C37.2448 35.7068 37.4255 34.4731 37.6363 33.5403L38.0278 31.3739L38.3292 31.3436L38.9321 31.2831L39.4752 33.6596C39.5961 34.8629 40.0486 36.3369 40.4406 37.2092C42.3708 41.2697 42.3406 40.9688 41.8585 42.2327C41.1354 44.1286 41.6483 46.2043 42.4929 48.5505C43.6087 50.5656 43.8504 52.9723 43.1273 54.8682C42.6754 56.433 42.7358 57.0347 43.7326 66.9626C44.8201 77.793 44.9712 79.2972 43.8258 80.02C43.2531 80.3814 43.2531 80.3814 42.6199 80.1411Z" fill="#FD9156"/>
</svg>
