<svg width="169" height="204" viewBox="0 0 169 204" fill="none" xmlns="http://www.w3.org/2000/svg">
<path d="M46.5207 193.502C44.386 192.2 40.4881 189.628 27.0629 180.271C22.825 177.297 16.4525 173.021 13.6377 170.915C6.89359 166.607 4.48189 164.161 3.65092 160.73C2.75691 158.04 2.73205 153.93 4.48365 142.129C5.58007 133.633 6.23526 130.328 7.20561 123.315C7.64019 122.605 8.0499 117.785 8.79964 113.368C9.61241 108.209 10.2991 104.533 10.7337 103.823C11.6659 101.662 16.0365 98.6721 22.6994 95.1307C33.7013 88.9707 43.3996 84.9404 51.8256 82.6692L57.5563 81.2892L57.5878 80.9184C57.6509 80.1769 56.1714 75.5699 52.5008 65.922C49.8187 57.8519 49.2648 55.5642 50.2915 52.2906C50.7576 51.2099 51.6582 49.4193 52.0928 48.7093C52.962 47.2895 60.4691 38.2183 66.301 31.2454C69.5885 27.7905 79.174 16.2819 80.0117 15.2328C85.0374 8.93824 85.4405 8.59906 88.5074 7.73946C91.2027 6.84827 96.0958 6.51734 96.8074 6.95127C97.5504 7.01443 101.234 7.70102 116.776 9.76902C137.456 13.0207 137.828 13.0523 139.591 14.3225C141.726 15.6242 146.146 20.8546 148.432 24.7833C153.28 33.7844 157.939 45.0101 161.975 59.1702C164.348 66.4672 164.285 67.2088 164.096 69.4333C163.472 72.3678 162.572 74.1584 159.593 78.3864C158.32 80.1454 155.373 84.0026 153.603 87.2131C148.483 94.62 148.08 94.9591 147.645 95.6691C147.645 95.6691 146.807 96.7182 145.97 97.7673C138.211 109.804 136.97 111.193 132.725 112.699C129.998 113.961 127.366 114.111 118.821 113.384C109.904 112.626 106.9 112.744 106.465 113.454C106.465 113.454 106.774 114.227 107.082 115.001C107.762 115.805 108.379 117.351 108.625 118.866C109.179 121.154 109.116 121.895 107.193 144.511C105.579 167.901 105.579 167.901 104.339 169.289C102.632 171.758 101.02 173.114 96.7436 174.992C94.4198 175.914 91.6929 177.176 91.3214 177.145C90.9183 177.484 83.5439 180.591 75.3633 184.377C67.2143 187.792 58.6621 191.546 57.1129 192.162C53.2084 194.07 50.9162 194.622 49.8015 194.528C49.0584 194.464 47.9753 193.999 46.5207 193.502Z" fill="#1F1B19"/>
<path d="M47.0183 192.051C45.9352 191.585 37.0879 185.605 27.189 178.788C11.629 168.13 9.15433 166.426 7.08266 164.383C5.38253 162.371 5.10554 161.227 4.86006 159.712C4.09212 155.539 4.15515 154.798 6.12737 140.401C7.16076 132.647 8.7863 122.329 9.22753 117.139C10.0088 112.35 10.727 108.304 10.7585 107.933L11.1301 107.964L32.7225 122.497C54.655 137.431 54.655 137.431 52.3228 164.867L49.9591 192.674L49.556 193.013C49.1845 192.982 48.1014 192.516 47.0183 192.051ZM41.2196 176.62C44.7841 174.309 46.4279 172.582 47.3916 170.05C48.8214 166.437 46.0381 163.96 42.5367 165.529C41.019 165.774 41.019 165.774 39.9674 164.937C38.2358 163.296 36.3781 163.138 34.3628 164.834C33.1536 165.852 33.1536 165.852 32.933 168.447C32.9578 172.557 35.4259 178.742 36.9121 178.868C37.6552 178.931 39.2359 177.945 41.2196 176.62ZM21.8964 135.394C24.2201 134.471 28.6853 130.369 29.5544 128.949C30.9842 125.336 27.8925 122.086 24.0825 122.883C22.5648 123.127 22.5648 123.127 20.8332 121.486C19.4731 119.877 19.4731 119.877 17.2439 119.687C11.6392 119.584 11.2295 124.404 16.0778 133.405C17.6833 136.529 18.7664 136.995 21.8964 135.394ZM53.7775 165.364C55.0381 150.534 56.1097 137.928 56.5127 137.589C56.5127 137.589 58.0935 136.603 60.0142 136.02C61.9664 135.065 72.8424 130.388 84.4929 125.404C95.7718 120.388 105.47 116.357 105.842 116.389L106.585 116.452L107.202 117.998C107.756 120.286 107.497 127.733 105.7 148.866C104.156 167.033 104.156 167.033 102.884 168.792C102.418 169.873 101.177 171.261 100.403 171.568C99.5965 172.247 89.8667 176.648 78.6193 181.293C67.3403 186.309 56.8675 190.647 55.2867 191.633C53.366 192.217 51.8168 192.832 51.8168 192.832L51.4453 192.8L53.7775 165.364ZM66.9124 182.539C68.1531 181.15 70.515 175.376 71.1072 172.812C71.3278 170.217 71.1769 167.59 70.1568 166.383C68.4567 164.372 64.9867 165.57 62.8769 168.378C62.0078 169.798 62.0078 169.798 60.15 169.64C57.5493 169.419 55.9055 171.147 56.0249 174.144C56.2704 175.659 58.3105 178.073 61.4653 180.582C64.6201 183.091 66.0747 183.588 66.9124 182.539ZM84.2257 159.364C85.4663 157.975 87.8283 152.201 88.0489 149.606C88.238 147.381 87.961 146.238 86.1664 145.338C85.0833 144.873 82.7595 145.795 81.1472 147.152C79.9065 148.54 79.9065 148.54 78.4519 148.043C76.5942 147.885 74.6734 148.469 73.8358 149.518C72.0975 152.358 73.3946 154.709 79.0556 158.551C81.4988 160.626 82.985 160.752 84.2257 159.364ZM99.5236 137.885C99.9267 137.545 100.89 135.013 101.823 132.852C104.651 125.997 104.531 122.999 101.187 122.715C99.7012 122.589 97.3459 123.882 96.5082 124.931L96.4452 125.673L94.9591 125.547C93.5044 125.05 91.5837 125.633 90.746 126.682C89.5369 127.7 89.6878 130.327 90.3048 131.873C90.6133 132.646 92.345 134.287 94.0766 135.928C97.1999 138.807 98.6545 139.304 99.5236 137.885ZM45.6253 129.195C39.9643 125.353 30.4054 118.939 24.0328 114.663C17.2887 110.355 11.9992 106.545 11.6592 106.142C10.6076 105.306 11.4452 104.257 14.2666 101.883C21.1186 96.1168 41.3843 86.6364 54.0233 83.2296C58.6079 82.1256 59.7225 82.2203 62.3233 82.4414C64.5525 82.6309 65.6672 82.7256 68.1734 84.059C76.4037 88.493 94.2808 102.709 102.504 111.624L104.885 114.44L104.853 114.811C104.482 114.78 102.498 116.105 100.174 117.027C97.8501 117.95 86.6027 122.596 75.7268 127.273C64.8194 132.32 55.5242 136.012 55.5242 136.012C55.5242 136.012 50.9148 133.006 45.6253 129.195ZM60.973 115.936C63.7944 113.562 66.7104 110.075 68.0141 107.945C69.3808 105.074 68.4553 102.755 65.609 101.019C63.4428 100.088 61.9251 100.332 59.9414 101.658C58.3922 102.273 58.3922 102.273 56.2575 100.971C54.8343 100.103 54.0913 100.04 53.3167 100.348C49.9413 100.434 48.6691 102.193 48.3854 105.53C48.2593 107.013 48.5048 108.527 48.8133 109.301C50.0474 112.393 55.2423 117.316 57.4715 117.505C58.2146 117.568 59.3608 117.292 60.973 115.936ZM100.622 107.356C98.5502 105.313 94.7469 101.629 92.3036 99.5539C89.5204 97.0767 86.7057 94.9702 86.3656 94.5679L85.6856 93.7632L86.9893 91.6334C87.8585 90.2136 92.9473 83.1774 98.4076 76.1729C108.151 62.8106 108.151 62.8106 123.384 64.1055C131.929 64.8319 144.159 66.2449 150.846 66.8134L163.076 68.2264L162.61 69.3071C162.421 71.5316 160.682 74.3713 153.855 84.2472C150.007 89.895 145.756 95.882 144.855 97.6726C137.625 107.888 135.95 109.986 133.223 111.248C130.496 112.51 127.864 112.659 115.231 111.586C104.425 111.04 104.425 111.04 100.622 107.356ZM132.518 106.333C136.517 103.312 137.884 100.441 136.524 98.8316C135.844 98.0269 133.646 97.4667 132.065 98.4526C130.919 98.7286 130.919 98.7286 129.868 97.8923C128.476 96.6537 126.618 96.4958 125.006 97.8525C123.797 98.87 123.765 99.2408 123.639 100.724C123.885 102.238 125.459 105.733 127.127 108.116L128.147 109.323L128.922 109.015C129.294 109.047 130.906 107.69 132.518 106.333ZM107.197 100.446C112.405 96.4079 113.74 93.9074 112.072 91.5249C111.02 90.6887 109.194 90.16 106.87 91.0828C105.352 91.3272 105.352 91.3272 104.672 90.5225C103.281 89.2839 102.198 88.8184 100.711 88.6921C98.4822 88.5026 96.9015 89.4885 96.7439 91.3423C96.6179 92.8253 98.5004 97.0931 100.478 100.249C102.826 103.436 103.569 103.499 107.197 100.446ZM129.106 89.2386C132.671 86.9276 134.686 85.2317 135.215 83.4095C135.776 81.2166 132.929 79.4809 129.831 80.7112C128.313 80.9557 128.313 80.9557 127.23 80.4902C124.756 78.7861 121.317 79.6141 121.128 81.8386C121.034 82.9509 122.727 89.4432 123.716 91.021C124.024 91.7941 125.542 91.5497 129.106 89.2386ZM146.89 82.5348C149.68 80.5314 153.711 77.1396 154.58 75.7198C155.481 73.9292 155.204 72.7853 154.555 71.6099C153.535 70.4029 151.677 70.245 149.725 71.1993C148.208 71.4437 148.208 71.4437 147.124 70.9782C145.361 69.708 143.907 69.211 142.389 69.4554C138.982 69.9126 138.73 72.8787 141.261 78.3219C142.25 79.8997 142.867 81.4459 142.835 81.8167C142.804 82.1874 144.164 83.7968 144.535 83.8283C144.535 83.8283 145.713 83.1816 146.89 82.5348ZM114.321 78.2725C117.514 75.9299 119.347 71.9779 118.05 69.627C117.401 68.4516 115.575 67.9229 113.623 68.8773C112.073 69.4924 112.073 69.4924 110.99 69.0269C108.887 67.3544 105.82 68.214 105.291 70.0362C104.857 70.7461 105.134 71.89 105.071 72.6315C106.028 74.58 110.448 79.8104 111.563 79.9052C111.934 79.9368 113.112 79.29 114.321 78.2725ZM79.6845 89.5187C70.8688 83.1678 66.5678 80.935 62.1093 80.556C59.137 80.3034 59.137 80.3034 55.5295 69.914C53.3699 64.5023 51.6134 58.7515 51.3049 57.9784C50.7509 55.6907 51.4061 52.3854 52.7413 49.8849C53.5474 49.2066 58.5732 42.9119 64.0021 36.2782C69.4309 29.6444 76.069 21.9931 78.1473 19.5557C80.2256 17.1183 82.707 14.3418 83.1731 13.2611L84.4138 11.8728L84.7853 11.9044C85.1253 12.3067 87.3479 16.9769 98.9203 43.7276C103.951 54.9849 106.419 61.1696 106.388 61.5404C105.953 62.2503 85.1001 91.8462 84.294 92.5246L83.8909 92.8638L79.6845 89.5187ZM82.9108 64.7728C84.4284 64.5284 86.0092 63.5425 86.8153 62.8641C88.396 61.8782 88.4275 61.5074 88.5536 60.0244C88.3081 58.5098 87.6596 57.3344 84.7187 56.7109L82.8926 56.1823L83.0186 54.6993C83.1762 52.8455 81.9737 49.3823 80.9221 48.5461C78.4474 46.842 75.7205 48.1039 74.2592 52.0875C73.2955 54.6196 71.4245 63.423 71.7015 64.5668L72.0415 64.9692L76.1285 65.3166C79.1323 65.1985 81.0215 64.9857 82.9108 64.7728ZM129.826 63.1594C117.968 61.778 108.308 60.9568 108.34 60.586C107.968 60.5545 102.938 49.2972 97.0129 35.3499L86.026 10.5161L86.429 10.177C87.2667 9.12786 90.7051 8.29984 92.9659 8.11858C94.4835 7.87416 98.539 8.59233 106.31 9.62633C112.966 10.5656 122.192 12.0967 127.733 12.9412C138.848 14.2594 139.188 14.6618 142.897 19.4583C146.945 24.6571 150.805 32.0804 155.433 43.6769C157.869 50.2324 162.616 64.8264 162.522 65.9387L162.49 66.3095L156.917 65.8357C153.573 65.5515 141.716 64.17 129.826 63.1594ZM120.236 57.1161C120.639 56.7769 121.54 54.9863 122.812 53.2272C125.111 48.1946 125.363 45.2285 124.003 43.6192C122.24 42.349 119.236 42.4671 117.592 44.1945C116.786 44.8729 116.414 44.8413 114.96 44.3442C112.73 44.1547 111.616 44.0599 110.004 45.4166C109.197 46.095 108.794 46.4342 108.7 47.5464C108.605 48.6587 108.914 49.4318 109.934 50.6388C111.634 52.6505 118.315 57.6997 119.43 57.7944C119.43 57.7944 119.833 57.4552 120.236 57.1161ZM149.437 56.9842C150.772 54.4837 152.265 50.1294 152.422 48.2756C152.548 46.7926 151.9 45.6171 150.445 45.1201C149.734 44.6861 147.441 45.2381 146.232 46.2557L145.458 46.5633L144.374 46.0978C142.611 44.8276 140.722 45.0404 139.141 46.0263C136.755 47.6906 136.534 50.2859 138.234 52.2976C139.594 53.907 146.275 58.9561 147.39 59.0509C148.133 59.114 148.536 58.7749 149.437 56.9842ZM137.058 30.9119C137.896 29.8628 139.697 26.2815 140.661 23.7494C142.122 19.7658 138.627 16.8547 135.403 19.5681C134.225 20.2149 133.482 20.1517 132.802 19.347C132.059 19.2839 131.347 18.8499 130.233 18.7552C127.26 18.5025 125.554 20.9715 127.159 24.0954C127.808 25.2709 134.394 31.4323 135.509 31.527C135.88 31.5586 136.655 31.251 137.058 30.9119ZM108.821 28.5115C108.821 28.5115 109.69 27.0917 110.559 25.6718C111.863 23.542 112.266 23.2029 112.518 20.2368C112.77 17.2708 112.399 17.2392 111.379 16.0322C110.05 14.0521 107.821 13.8626 106.177 15.59C104.968 16.6075 104.596 16.5759 103.142 16.0789C100.572 15.487 99.0233 16.1022 97.0395 17.4273C95.8303 18.4448 95.8303 18.4448 95.7358 19.5571C95.9497 21.4425 97.3414 22.6811 102.322 25.7185C107.675 28.7875 108.015 29.1899 108.821 28.5115Z" fill="#F4F1EE"/>
</svg>
