<svg width="1051" height="928" viewBox="0 0 1051 928" fill="none" xmlns="http://www.w3.org/2000/svg">
<path d="M976.5 421.5L754 553.5C759.2 570.7 773.333 625.833 779 651.5C865.833 639 1039.4 613.9 1039 613.5C1038.6 565.1 1002 463.5 976.5 421.5Z" fill="#F058A3"/>
<path d="M779.5 239.5L646.5 450C707.7 464.8 744.167 525.667 754.5 554C828.5 510.5 976.9 422.9 976.5 422.5C938.9 331.3 830 259.5 779.5 239.5Z" fill="#EE452E"/>
<path d="M568.5 236.5C568.5 228.5 556.5 201.833 550.5 189.5C666.5 192.7 751.5 224.167 779.5 239.5C735.333 309.5 646.9 449.5 646.5 449.5C610.1 439.9 565.667 446.5 548 451C549.5 446.167 552.6 436.5 553 436.5C604.5 401.5 610 334 610 333C616.5 255.5 569 236 568.5 236.5Z" fill="#03B1C9" stroke="#03B1C9"/>
<path d="M1038 613L778.5 651C778.5 753.5 789 796 763 888.5C854 853 1048 765.9 1048 765.5C1048 673 1051.5 676 1038 613Z" fill="#F68636"/>
<path d="M753.5 923.001L767 884.501C860.5 845.167 1047.5 764.2 1047.5 765C1050.3 793.4 1037 884 1028.5 924L753.5 923.001Z" fill="#028367"/>
<path d="M547.5 187C1163.43 216.078 1045.45 858.317 1029.95 926L752.478 924.997C782.475 876.867 853.967 384.535 546 453.22" stroke="white" stroke-width="4"/>
<path d="M69.2262 164.731C136.929 17.5146 292.943 31.2161 368.852 46.526L283.826 545.276C195.64 632.282 70.9349 511.955 69.0952 510.626C52.7243 469.795 43.0607 354.026 42.3932 351.881C71.4898 378.163 97.8794 372.447 100.723 373.947C193.627 347.141 165.339 255.509 166.343 255.68C149.447 151.775 69.3944 163.744 69.2262 164.731Z" fill="#E558B3"/>
<path d="M603.182 257.787C594.158 117.353 440.018 56.2846 368.853 46.5216L283.827 545.272C333.039 655.701 474.827 582.327 481.968 579.051C507.831 545.385 553.54 448.148 554.808 446.334C521.011 461.894 501.365 441.228 498.403 441.738C425.849 386.726 479.807 309.114 478.876 308.955C526.808 216.102 603.35 256.801 603.182 257.787Z" fill="#F680CC"/>
<ellipse cx="545.719" cy="347.912" rx="80.9714" ry="109.695" transform="rotate(24.9428 545.719 347.912)" fill="#D0CA48"/>
<ellipse cx="545.084" cy="365.942" rx="69.8527" ry="91.2044" transform="rotate(24.9428 545.084 365.942)" fill="#FAF573"/>
<ellipse cx="91.345" cy="268.823" rx="80.9714" ry="109.695" transform="rotate(-5.63157 91.345 268.823)" fill="#D0CA48"/>
<ellipse cx="99.9699" cy="284.668" rx="69.8527" ry="91.2044" transform="rotate(-5.63157 99.9699 284.668)" fill="#FAF573"/>
<path d="M283.838 545.208C214.661 615.381 112.259 551.985 69.5012 511.22C86.1761 625.244 192.052 735.504 246.936 764.642C259.4 691.531 283.905 544.814 283.838 545.208Z" fill="#D0CA48"/>
<path d="M283.838 545.209C325.857 634.338 428.128 603.294 481.977 578.998C428.465 681.057 311.646 759.947 246.853 765.132C259.317 692.02 283.905 544.814 283.838 545.209Z" fill="#FAF573"/>
<circle cx="236.07" cy="658.796" r="13" transform="rotate(9.67469 236.07 658.796)" fill="#020202"/>
<circle cx="292.259" cy="668.375" r="13" transform="rotate(9.67469 292.259 668.375)" fill="#020202"/>
</svg>
