<svg width="1794" height="1226" viewBox="0 0 1794 1226" fill="none" xmlns="http://www.w3.org/2000/svg">
<path d="M1290 41L1404.5 197.5" stroke="black"/>
<path d="M1289 41.5L1400.5 198.5C1549.7 176.9 1606.83 58.1667 1615 2H1336.5C1335.7 7.6 1303.83 30.8333 1289 41.5Z" fill="#06B0CA"/>
<path d="M1403.5 197.5L1291 41.5C1255.4 75.1 1140.17 93.1667 1087 98C1088.83 145.667 1092.6 241.1 1093 241.5C1176.6 242.3 1334.83 212.5 1403.5 197.5Z" fill="#F680CC"/>
<path d="M754 263.935L670.034 99C620.438 99 522.261 101.179 476 106.04C477.595 153.978 484.701 267.958 484.701 261.42C557.442 262.225 692.222 269.466 754 263.935Z" fill="#EE452E"/>
<path d="M949 617.999L962 766.499C728.807 722.557 720.521 726.49 624.38 713.551C624.133 713.956 624 713.954 624 713.5C624.127 713.517 624.254 713.534 624.38 713.551C627.693 708.125 651.484 629.608 650 585C697 592.5 896.5 614.5 949 617.999Z" fill="#FB9519"/>
<path d="M643 713.999L651.5 586.499C598 572.499 343.5 550.5 291 559.499C292.595 607.438 417 739.536 417 732.999C484.5 713.999 426 704.999 643 713.999Z" fill="#FFDBD2"/>
<path d="M217.5 154.003L432.5 303C446.5 271 444 270 525.5 260.502C507.978 217.436 501.051 115.834 477.501 104.003C409.501 108.003 263.489 121.352 217.5 154.003Z" fill="#F4670B"/>
<path d="M61.0003 664.998L414.5 804.5C402.5 762.5 393.5 769.001 423.5 732C405.979 688.934 312.55 571.828 289 559.998C221 563.998 91.5003 595.498 61.0003 664.998Z" fill="#0386D8"/>
<path d="M46.5068 327.5L473.991 329.992C470.937 329.957 434.501 308.994 434.501 299.007C363.568 265.14 251.508 166.499 217.007 150.5C112.008 182.5 48.7653 267.72 46.5068 327.5Z" fill="#FFDBD2"/>
<path d="M1250 467L1131.5 285.5C1020.5 297.5 981.167 309.167 928 314C929.833 361.667 933.6 506.1 934 506.5C1017.6 507.3 1181.33 482 1250 467Z" fill="#B870B2"/>
<path d="M1401 1021L1396 839.5C1264.5 832.5 1196 827.5 1146 839.5C1147.83 887.166 1140.6 982.6 1141 983C1225 975.5 1351 1001.5 1401 1021Z" fill="#B870B2"/>
<path d="M1498.38 252.395L1406.5 456.5C1367 442 1287.59 462.987 1234.5 468.501C1227.59 423.05 1127 286.501 1133 286.501C1214.94 269.883 1428.22 251.229 1498.38 252.395Z" fill="#FED9D0"/>
<path d="M1045 495.5L1027 301.5C916 313.5 774.167 331.667 721 336.5C722.833 384.167 840.6 510.1 841 510.5C924.6 511.3 976.333 510.5 1045 495.5Z" fill="#066D80"/>
<path d="M845 511.501L729.5 337.5C618.5 349.5 570 340.5 514 334.5C515.833 382.167 523.1 508.101 523.5 508.501C607.1 509.301 773 516.501 845 511.501Z" fill="#F781CB"/>
<path d="M1497.47 251.035L1405.5 455.51C1541.5 483.51 1481.5 532.002 1465.5 556.002C1503.06 526.6 1763 467 1763 467C1743.5 232 1502 267 1497.47 251.035Z" fill="#066D80"/>
<path d="M1394 837.999L1400 1021C1411.5 1025.5 1468 1057.5 1452 1081.5C1534 1084 1747.5 1081.5 1747.5 1081.5C1762.5 813.5 1398.53 853.964 1394 837.999Z" fill="#7ACBB9"/>
<path d="M1763 461.001L1476 543.001C1416.5 607 1348.34 616.001 1362 616.001C1407.6 629.983 1574.5 718.501 1574.5 718.501C1806.5 578.001 1759 479.001 1763 461.001Z" fill="#EE452E"/>
<path d="M1366.5 612.994L1576.5 716.53C1579.5 722.996 1426 793.996 1341 793.996C1341 793.996 1167.63 654.627 1117.84 635.975C1114.16 635.404 1113.06 635.001 1115 635.001C1115.9 635.276 1116.85 635.601 1117.84 635.975C1140.1 639.429 1256.67 649.038 1366.5 612.994Z" fill="#038265"/>
<path d="M520.493 335.501L603.5 509.5C494.5 516 66.9998 509.5 45.9999 327.5C35.5012 325.33 432 328.503 438.999 313.003C459.051 321.31 464.866 324.858 465.659 326.221C471.586 326.698 486.484 328.848 520.493 335.501Z" fill="#028367"/>
<path d="M498.361 835.326L569.545 1002.29C537.368 1058.31 -104.941 905.363 65.2788 661.938C65.0798 661.812 65.1021 661.773 65.3572 661.826C65.3311 661.863 65.3049 661.901 65.2788 661.938C72.616 666.579 380.774 789.428 412.506 796.136C400.437 783.538 409.592 778.746 414 795C415.966 796.41 415.332 796.734 412.506 796.136C422.342 806.403 446.275 821.855 498.361 835.326Z" fill="#F983C6"/>
<path d="M890 103.5L900 259.5C813.5 263.924 784.149 269.194 746.007 263.924C734 213 667.006 103 669.506 99.0001C729.48 98.1278 836.5 98.5 890 103.5Z" fill="#028367"/>
<path d="M1088 97.4989L1104 241C1017.5 245.424 936.141 263.77 898 258.5C885.993 207.576 879.568 107.368 882.068 103.368C942.042 102.495 1034.5 99.9989 1088 97.4989Z" fill="#03B1C9"/>
<path d="M1161.5 637L1346 795.499C1254 808.5 1102 809 957.5 767C945.492 716.076 945.501 622.5 948 618.5C1007.97 617.628 1108 639.5 1161.5 637Z" fill="#FFDBD1"/>
<path d="M821.5 997L808 843C758.404 843 599.5 855 477 831C478.595 878.938 509 1015.54 509 1009C605.5 1022 689.5 1003.5 821.5 997Z" fill="#7ACBB9"/>
<path d="M1143 984.5L1206 831.5C1156.4 831.5 1008 836 807 844C808.595 891.938 820.5 1001.54 820.5 995C948 986.5 1011 991 1143 984.5Z" fill="#F7BA04"/>
<path d="M821 860L1117 975" stroke="#F781CB" stroke-width="10" stroke-linecap="round"/>
<path d="M821 860L1117 975" stroke="#F781CB" stroke-width="10" stroke-linecap="round"/>
<path d="M821 860L1117 975" stroke="#FE964F" stroke-width="10" stroke-linecap="round"/>
<path d="M824 939.45L1164.93 913" stroke="#F781CB" stroke-width="10" stroke-linecap="round"/>
<path d="M824 939.45L1164.93 913" stroke="#F781CB" stroke-width="10" stroke-linecap="round"/>
<path d="M824 939.45L1164.93 913" stroke="#FE964F" stroke-width="10" stroke-linecap="round"/>
<path d="M989 974.507L999.962 852" stroke="#F781CB" stroke-width="10" stroke-linecap="round"/>
<path d="M989 974.507L999.962 852" stroke="#F781CB" stroke-width="10" stroke-linecap="round"/>
<path d="M989 974.507L999.962 852" stroke="#FE964F" stroke-width="10" stroke-linecap="round"/>
<path d="M835 977.624L1117.05 837" stroke="#F781CB" stroke-width="10" stroke-linecap="round"/>
<path d="M835 977.624L1117.05 837" stroke="#F781CB" stroke-width="10" stroke-linecap="round"/>
<path d="M835 977.624L1117.05 837" stroke="#FE964F" stroke-width="10" stroke-linecap="round"/>
<path d="M822 860L1118 975" stroke="#F781CB" stroke-width="2" stroke-linecap="round"/>
<path d="M822 860L1118 975" stroke="#F781CB" stroke-width="2" stroke-linecap="round"/>
<path d="M822 860L1118 975" stroke="#FD338B" stroke-width="2" stroke-linecap="round"/>
<path d="M825 939.45L1165.93 913" stroke="#F781CB" stroke-width="2" stroke-linecap="round"/>
<path d="M825 939.45L1165.93 913" stroke="#F781CB" stroke-width="2" stroke-linecap="round"/>
<path d="M825 939.45L1165.93 913" stroke="#FD338B" stroke-width="2" stroke-linecap="round"/>
<path d="M990 974.507L1000.96 852" stroke="#F781CB" stroke-width="2" stroke-linecap="round"/>
<path d="M990 974.507L1000.96 852" stroke="#F781CB" stroke-width="2" stroke-linecap="round"/>
<path d="M990 974.507L1000.96 852" stroke="#FD338B" stroke-width="2" stroke-linecap="round"/>
<path d="M836 977.624L1118.05 837" stroke="#F781CB" stroke-width="2" stroke-linecap="round"/>
<path d="M836 977.624L1118.05 837" stroke="#F781CB" stroke-width="2" stroke-linecap="round"/>
<path d="M836 977.624L1118.05 837" stroke="#FD338B" stroke-width="2" stroke-linecap="round"/>
<path d="M1043 307L1068 485" stroke="#EF7AAF" stroke-width="7" stroke-linecap="round"/>
<path d="M1043 307L1068 485" stroke="#EF7AAF" stroke-width="7" stroke-linecap="round"/>
<path d="M1043 307L1068 485" stroke="#EF7AAF" stroke-width="7" stroke-linecap="round"/>
<path d="M1065 305L1089 481" stroke="#EF7AAF" stroke-width="7" stroke-linecap="round"/>
<path d="M1065 305L1089 481" stroke="#EF7AAF" stroke-width="7" stroke-linecap="round"/>
<path d="M1065 305L1089 481" stroke="#EF7AAF" stroke-width="7" stroke-linecap="round"/>
<path d="M1087 301L1112.92 478.432" stroke="#EF7AAF" stroke-width="7" stroke-linecap="round"/>
<path d="M1087 301L1112.92 478.432" stroke="#EF7AAF" stroke-width="7" stroke-linecap="round"/>
<path d="M1087 301L1112.92 478.432" stroke="#EF7AAF" stroke-width="7" stroke-linecap="round"/>
<path d="M1107 301L1141.03 474.099" stroke="#EF7AAF" stroke-width="7" stroke-linecap="round"/>
<path d="M1107 301L1141.03 474.099" stroke="#EF7AAF" stroke-width="7" stroke-linecap="round"/>
<path d="M1107 301L1141.03 474.099" stroke="#EF7AAF" stroke-width="7" stroke-linecap="round"/>
<path d="M1124 296L1182.73 465.881" stroke="#EF7AAF" stroke-width="7" stroke-linecap="round"/>
<path d="M1124 296L1182.73 465.881" stroke="#EF7AAF" stroke-width="7" stroke-linecap="round"/>
<path d="M1124 296L1182.73 465.881" stroke="#EF7AAF" stroke-width="7" stroke-linecap="round"/>
<path d="M1615.43 2H1338C1331.04 13.3258 1294.2 37.4409 1289.61 41.1368C1260 65 1194.5 80 1187.5 82.5C1139.84 103.372 887.398 102.962 888.704 102.962C780.577 94.0306 535.694 104.279 426 108C48.3702 144 48.3702 314.593 48.3702 316.049C41 479 397.693 505.353 397.693 504.382C485 511.663 838.428 512.634 839.734 511.663C1028 511.663 1329.34 449.856 1366.5 452.5C1603.34 469.351 1430.94 581.633 1430.94 581.633C1308 656.5 1161.76 639.031 1071 629C864.889 611.202 452.801 562.241 451.234 562.629C16.3761 519.429 39.882 745.137 39.229 745.137C30.349 870.563 281.905 967.933 408.793 1000.94C484 1023.5 779.663 1001.91 778.357 1000.94C880 989.5 1194.28 983.951 1194.28 982.009C1415.76 994.435 1459.37 1053.85 1453.5 1082H1746.67C1748.63 942.207 1669.62 906.288 1666.36 905.317C1593.88 829.595 1200.5 833 1196 831.5C1180.33 827.617 1049.33 833.155 986.645 836.391C863.675 840.76 617.603 849.4 617.081 849.011C327.176 836.391 417.281 735.429 417.934 735.429C467.035 686.89 705.228 717.146 818.187 738.342C892.622 753.874 1042.28 784.939 1045.41 784.939C1126.37 810.665 1319.64 797.074 1322.26 796.589C1452.84 792.22 1577.17 716.011 1586.5 710.5C1680.72 654.858 1758 575 1765 489C1756.5 347.5 1700.5 327 1696.5 318.5C1615.54 231.615 1396.04 257.802 1395.39 257.317C1360.39 254.987 1176.22 278.998 1088.5 291.294L865.198 322.36C801.645 329.155 674.148 342.552 672.581 341.775C620.346 345.658 515.875 333.524 514.569 333.524C417.934 327.699 434.911 288.867 438.175 284.499C441.44 280.13 449.289 273.155 455.5 271C479.006 262.845 566.547 260.058 600.5 262L773.134 263.627C802.951 263.789 865.374 260.888 880 260.5C894.626 260.112 968.798 254.728 1003.62 250.521C1052.37 245.667 1151.84 235.862 1159.67 235.474C1169.47 234.989 1298.19 219.369 1323 215C1347.81 210.631 1447.61 195.489 1519.44 151.501C1581.5 113.5 1609.33 40.9933 1615.43 2Z" stroke="white" stroke-width="4"/>
<rect x="887" y="101" width="4" height="4" rx="2" fill="white"/>
</svg>
