<svg width="1587" height="832" viewBox="0 0 1587 832" fill="none" xmlns="http://www.w3.org/2000/svg">
<path d="M495 590C468 580.5 410 558 365.5 531C332.5 595 273 721 272 729.5C286 733 428.833 788.833 496 801.5C496.333 734.333 495.844 590.297 495 590Z" fill="#B870B2" stroke="white" stroke-width="5"/>
<path d="M1584 3H1290.5C1286.5 23.8 1201.5 61.5 1161.5 68.5C1246 117.5 1362 186.5 1387.5 200.5C1533.5 128 1589.83 43.5 1584 3Z" fill="#E43939" stroke="white" stroke-width="5"/>
<path d="M1387.5 200L1157.5 69C980.5 123 1055.5 98.5 928 128C1013.33 188.333 1187.6 303.5 1190 303.5C1246 281 1332.5 236 1387.5 200Z" fill="#F7BA04" stroke="white" stroke-width="5"/>
<path d="M1188 303.5L933.5 127L796 148C809.833 220.167 834.7 357.3 835.5 356.5C1011 356.5 1079 328.5 1188 303.5Z" fill="#0386D8" stroke="white" stroke-width="5"/>
<g filter="url(#filter0_d_19_62)">
<path d="M1127.5 634L940 655L987 792.5L1108 756.5L1127.5 634Z" fill="#FD338B"/>
<path d="M1127.5 634L940 655L987 792.5L1108 756.5L1127.5 634Z" stroke="white" stroke-width="5"/>
</g>
<g filter="url(#filter1_d_19_62)">
<path d="M1129.58 633.5C1211.69 618.343 1377.06 586.442 1382.07 580.013C1382.07 580.008 1382.08 580.004 1382.08 580C1382.08 580.004 1382.07 580.008 1382.07 580.013C1344.73 628.851 1238.47 732.202 1112.08 755C1110.88 755 1123.25 674 1129.58 633.5Z" fill="#FAF573"/>
<path d="M1129.58 633.5C1211.75 618.333 1377.28 586.4 1382.08 580C1344.75 628.833 1238.48 732.2 1112.08 755C1110.88 755 1123.25 674 1129.58 633.5Z" stroke="white" stroke-width="5"/>
</g>
<path d="M627.524 168L587.023 367.5C577.523 368 489.69 378.167 444.523 386C421.857 323.333 376.824 197 378.024 197C402.024 184.2 554.357 172.333 627.524 168Z" fill="#FFDF03" stroke="white" stroke-width="5"/>
<path d="M712 634.494C689.447 629.778 559.978 606.371 498 591C498 662.617 498 796.943 499.002 802.707C506.019 805.851 611.599 816.157 662.885 820C679.257 758.514 712 635.752 712 634.494Z" fill="#F7BA04" stroke="white" stroke-width="5"/>
<path d="M849.5 356.5L803.004 147L601.504 170C588.171 236.5 561.604 369.5 562.004 369.5C589.5 367 740.5 362 849.5 356.5Z" fill="#F983C6" stroke="white" stroke-width="5"/>
<g filter="url(#filter2_d_19_62)">
<path d="M937 654.5C923 659.527 781.5 645.5 710.5 633.759C694.833 695.544 664 820.058 664 819.639C732.5 823.828 901.333 814.665 987.5 792.499C968.667 746.073 950 690 937 654.5Z" fill="#6A79EF"/>
<path d="M937 654.5C923 659.527 781.5 645.5 710.5 633.759C694.833 695.544 664 820.058 664 819.639C732.5 823.828 901.333 814.665 987.5 792.499C968.667 746.073 950 690 937 654.5Z" stroke="white" stroke-width="5"/>
</g>
<path d="M305.293 432.5L78 324C25 364 15.2934 399 14.2934 400C-28.2066 513 62.7934 609 64.7934 609C94.3934 652.6 209.833 714.5 270.5 729C300.167 664.667 356 546.5 365.5 531.5C293 493.5 295.793 447.333 305.293 432.5Z" fill="#46B349" stroke="white" stroke-width="5"/>
<path d="M446.5 385.5L377.5 196.5C244.5 225 122.167 286 79 323C154.333 359 305.2 431.2 306 432C320.4 416.4 407 393.333 446.5 385.5Z" fill="#313EA4" stroke="white" stroke-width="5"/>
<defs>
<filter id="filter0_d_19_62" x="932.627" y="631.15" width="201.858" height="172.431" filterUnits="userSpaceOnUse" color-interpolation-filters="sRGB">
<feFlood flood-opacity="0" result="BackgroundImageFix"/>
<feColorMatrix in="SourceAlpha" type="matrix" values="0 0 0 0 0 0 0 0 0 0 0 0 0 0 0 0 0 0 127 0" result="hardAlpha"/>
<feOffset dy="4"/>
<feGaussianBlur stdDeviation="2"/>
<feComposite in2="hardAlpha" operator="out"/>
<feColorMatrix type="matrix" values="0 0 0 0 0 0 0 0 0 0 0 0 0 0 0 0 0 0 0.25 0"/>
<feBlend mode="normal" in2="BackgroundImageFix" result="effect1_dropShadow_19_62"/>
<feBlend mode="normal" in="SourceGraphic" in2="effect1_dropShadow_19_62" result="shape"/>
</filter>
<filter id="filter1_d_19_62" x="1105.5" y="578.308" width="282.58" height="187.192" filterUnits="userSpaceOnUse" color-interpolation-filters="sRGB">
<feFlood flood-opacity="0" result="BackgroundImageFix"/>
<feColorMatrix in="SourceAlpha" type="matrix" values="0 0 0 0 0 0 0 0 0 0 0 0 0 0 0 0 0 0 127 0" result="hardAlpha"/>
<feOffset dy="4"/>
<feGaussianBlur stdDeviation="2"/>
<feComposite in2="hardAlpha" operator="out"/>
<feColorMatrix type="matrix" values="0 0 0 0 0 0 0 0 0 0 0 0 0 0 0 0 0 0 0.25 0"/>
<feBlend mode="normal" in2="BackgroundImageFix" result="effect1_dropShadow_19_62"/>
<feBlend mode="normal" in="SourceGraphic" in2="effect1_dropShadow_19_62" result="shape"/>
</filter>
<filter id="filter2_d_19_62" x="657.5" y="630.917" width="337.391" height="200.209" filterUnits="userSpaceOnUse" color-interpolation-filters="sRGB">
<feFlood flood-opacity="0" result="BackgroundImageFix"/>
<feColorMatrix in="SourceAlpha" type="matrix" values="0 0 0 0 0 0 0 0 0 0 0 0 0 0 0 0 0 0 127 0" result="hardAlpha"/>
<feOffset dy="4"/>
<feGaussianBlur stdDeviation="2"/>
<feComposite in2="hardAlpha" operator="out"/>
<feColorMatrix type="matrix" values="0 0 0 0 0 0 0 0 0 0 0 0 0 0 0 0 0 0 0.25 0"/>
<feBlend mode="normal" in2="BackgroundImageFix" result="effect1_dropShadow_19_62"/>
<feBlend mode="normal" in="SourceGraphic" in2="effect1_dropShadow_19_62" result="shape"/>
</filter>
</defs>
</svg>
