<!-- icon666.com - MILLIONS vector ICONS FREE --><svg id="Layer_1" enable-background="new 0 0 512 512" viewBox="0 0 512 512" xmlns="http://www.w3.org/2000/svg" xmlns:xlink="http://www.w3.org/1999/xlink"><linearGradient id="SVGID_1_" gradientUnits="userSpaceOnUse" x1="256" x2="256" y1="48.4" y2="463.6"><stop offset="0" stop-color="#f704fe"></stop><stop offset="1" stop-color="#24bce3"></stop></linearGradient><path d="m101.8 434.1-3.8-6.2-3.8 6.2c-.4.6-.9 1.2-1.5 1.6l-8.3 5.4 8.3 5.4c.6.4 1.1.9 1.5 1.6l3.8 6.2 3.8-6.2c.4-.6.9-1.2 1.5-1.6l8.3-5.4-8.3-5.4c-.6-.4-1.1-.9-1.5-1.6zm126.8-367.5h27.4 27.4c4.3 0 7.8-3.5 7.8-7.8v-10.4h-70.4v10.5c0 4.2 3.5 7.7 7.8 7.7zm181.6 70.5 3.8 6.2 3.8-6.2c.4-.6.9-1.2 1.5-1.6l8.3-5.4-8.3-5.4c-.6-.4-1.1-.9-1.5-1.6l-3.8-6.2-3.8 6.2c-.4.6-.9 1.2-1.5 1.6l-8.3 5.4 8.3 5.4c.6.4 1.1.9 1.5 1.6zm-70.4 21.3c5.6 8.8 10.6 18.3 14.9 28.4 10.2 4.3 19.8 9.3 28.6 15 15.4 9.8 27.7 21.1 36.7 33.4-16.7-54.2-59.6-97-113.8-113.7 12.3 9 23.7 21.4 33.6 36.9zm42.1 92c15.1 3.7 32 9.2 43.1 16.8-7.5-27.4-31.5-51.2-65.3-67.3 5.3 15.1 9.1 31.2 11.4 48.1 3.7.7 7.3 1.5 10.8 2.4zm-2.4 9.5c-2.3-.6-4.8-1.1-7.2-1.7.9 9 1.3 18.2 1.3 27.5 0 9.2-.4 18.3-1.3 27.3 2.5-.5 4.9-1.1 7.2-1.7 35.3-8.6 47.9-18.9 47.9-25.7s-12.6-17.1-47.9-25.7zm45.5 44c-11.1 7.6-28 13.1-43.1 16.8-3.5.8-7.1 1.7-10.8 2.4-2.3 16.9-6.1 33.2-11.4 48.3 33.8-16.1 57.9-40 65.3-67.5zm-41.7 65.5c-8.8 5.6-18.3 10.6-28.5 14.9-4.3 10.2-9.3 19.8-15 28.7-9.8 15.3-21 27.6-33.3 36.5 54.1-16.7 96.8-59.4 113.5-113.5-9 12.2-21.3 23.5-36.7 33.4zm-41.5 19.9c-15.1 5.2-31.3 9.1-48.1 11.4-.8 3.7-1.6 7.3-2.5 10.8-3.7 15.1-9.2 32-16.8 43.1 27.4-7.6 51.2-31.5 67.4-65.3zm19.1-64.2c-17.7 3.2-37.4 5.5-58.4 6.9-1.4 21-3.7 40.8-6.9 58.5 18.5-2.8 35.9-7.4 51.6-13.6 6.2-15.7 10.9-33.1 13.7-51.8zm1.3-10.1c1.1-9.6 1.6-19.4 1.6-29.4s-.5-19.8-1.6-29.4c-17.7-3.3-37.8-5.8-59.2-7.2.6 11.9.9 24.2.9 36.6 0 12.5-.3 24.7-.9 36.7 21.5-1.5 41.5-4 59.2-7.3zm-66.6-134.2c3.2 17.6 5.5 37.4 6.9 58.3 21 1.4 40.7 3.7 58.4 6.9-2.8-18.5-7.4-35.9-13.6-51.5-15.7-6.3-33.1-11-51.7-13.7zm-21.2-64.2c7.6 11.1 13.1 28 16.8 43.1.8 3.5 1.7 7.1 2.4 10.8 16.9 2.3 33.1 6.1 48.2 11.4-16.2-33.8-40-57.8-67.4-65.3zm-44.1 45.4c-.6 2.4-1.1 4.8-1.7 7.3 9-.9 18.1-1.3 27.4-1.3s18.4.4 27.4 1.3c-.5-2.5-1.1-4.9-1.7-7.3-8.3-34.2-18.2-47.1-25-47.9-.2 0-.5.1-.7.1s-.5 0-.7-.1c-6.8.8-16.7 13.7-25 47.9zm-3.7 17.4c-3.3 17.7-5.8 37.7-7.2 59 11.9-.6 24.2-.9 36.6-.9s24.7.3 36.7.9c-1.4-21.3-3.9-41.3-7.2-59-9.6-1.1-19.4-1.6-29.5-1.6-10 .1-19.9.6-29.4 1.6zm67.6 106.1c0-12.6-.3-25.1-1-37.1-12.1-.6-24.6-1-37.2-1-12.7 0-25.1.3-37.2 1-.6 12.1-1 24.5-1 37.1 0 12.7.3 25.2 1 37.3 12.1.6 24.6 1 37.2 1s25.1-.3 37.2-1c.7-12.1 1-24.6 1-37.3zm-74.8 47.1c1.4 21.4 3.9 41.5 7.2 59.2 9.5 1 19.4 1.6 29.4 1.6s19.8-.5 29.3-1.6c3.4-17.8 5.8-37.8 7.3-59.2-11.9.6-24.2.9-36.6.9-12.5.1-24.7-.3-36.6-.9zm63.9 69.2c-9 .9-18.1 1.3-27.3 1.3s-18.4-.4-27.4-1.3c.5 2.4 1.1 4.8 1.7 7.1 8.6 35.3 18.9 47.9 25.7 47.9s17.1-12.6 25.7-47.9c.6-2.3 1.1-4.6 1.6-7.1zm-64.9-1.2c-16.9-2.3-33.1-6.1-48.2-11.4 16.2 33.8 40 57.8 67.4 65.3-7.6-11.1-13.1-28-16.8-43.1-.8-3.4-1.7-7.1-2.4-10.8zm-2-10c-3.2-17.7-5.5-37.5-6.9-58.5-21-1.4-40.7-3.7-58.4-6.9 2.8 18.6 7.5 36 13.7 51.7 15.7 6.2 33.1 10.9 51.6 13.7zm-66.6-134.5c-1.1 9.6-1.6 19.4-1.6 29.4s.5 19.8 1.6 29.4c17.7 3.3 37.8 5.8 59.2 7.2-.6-11.9-.9-24.2-.9-36.6 0-12.5.3-24.7.9-36.7-21.5 1.5-41.5 4-59.2 7.3zm66.5-75.3c-18.5 2.8-35.9 7.4-51.6 13.6-6.2 15.7-10.9 33-13.6 51.5 17.7-3.2 37.4-5.5 58.4-6.9 1.4-20.9 3.7-40.6 6.8-58.2zm4.5-21.2c3.7-15.1 9.2-32 16.8-43.1-27.4 7.5-51.2 31.5-67.4 65.3 15.1-5.3 31.3-9.1 48.2-11.4.7-3.6 1.5-7.3 2.4-10.8zm-92.1 42.2c8.8-5.7 18.4-10.6 28.6-14.9 4.3-10.2 9.3-19.7 14.9-28.5 9.9-15.5 21.3-27.9 33.7-36.8-54.3 16.5-97.2 59.4-113.9 113.6 9-12.3 21.3-23.6 36.7-33.4zm-41.7 65.3c11.1-7.6 27.9-13.1 43.1-16.8 3.5-.8 7.1-1.7 10.8-2.4 2.3-16.8 6.1-33 11.4-48.1-33.8 16.2-57.7 40-65.3 67.3zm45.5 44.2c2.3.6 4.8 1.1 7.2 1.7-.9-8.9-1.3-18-1.3-27.3s.4-18.5 1.3-27.5c-2.5.5-4.9 1.1-7.2 1.7-35.3 8.6-47.9 18.9-47.9 25.7s12.6 17 47.9 25.7zm19.8 60.2c-5.3-15.1-9.1-31.4-11.4-48.3-3.7-.8-7.3-1.6-10.8-2.5-15.2-3.7-32-9.2-43.1-16.8 7.5 27.4 31.5 51.4 65.3 67.6zm19.9 41.5c-5.7-8.9-10.7-18.5-15-28.7-10.2-4.3-19.7-9.3-28.5-14.9-15.4-9.8-27.7-21.1-36.7-33.4 16.6 54.1 59.3 96.8 113.3 113.5-12.1-9-23.3-21.3-33.1-36.5zm259.5 23.1h-4.7c-2.7 0-4.9 2.2-4.9 4.9s2.2 4.9 4.9 4.9h4.7c2.7 0 4.9-2.2 4.9-4.9s-2.2-4.9-4.9-4.9zm-17.7 13c-2.7 0-4.9 2.2-4.9 4.9v4.7c0 2.7 2.2 4.9 4.9 4.9s4.9-2.2 4.9-4.9v-4.7c0-2.6-2.2-4.9-4.9-4.9zm0-30.5c-2.7 0-4.9 2.2-4.9 4.9v4.7c0 2.7 2.2 4.9 4.9 4.9s4.9-2.2 4.9-4.9v-4.7c0-2.7-2.2-4.9-4.9-4.9zm-12.9 17.5h-4.7c-2.7 0-4.9 2.2-4.9 4.9s2.2 4.9 4.9 4.9h4.7c2.7 0 4.9-2.2 4.9-4.9s-2.2-4.9-4.9-4.9zm-143.3-331.7c1 0 2.1 0 3.1.1v-28h-9.8v28c1 0 2.1 0 3.1-.1.6-.1 1.2-.1 1.8-.1s1.2 0 1.8.1zm-146.9 30.6h4.7c2.7 0 4.9-2.2 4.9-4.9s-2.2-4.9-4.9-4.9h-4.7c-2.7 0-4.9 2.2-4.9 4.9s2.2 4.9 4.9 4.9zm-12.9 17.6c2.7 0 4.8-2.2 4.9-4.9v-4.7c0-2.7-2.2-4.9-4.9-4.9s-4.9 2.2-4.9 4.9v4.7c0 2.7 2.2 4.9 4.9 4.9zm0-30.5c2.7 0 4.8-2.2 4.9-4.9v-4.7c0-2.7-2.2-4.9-4.9-4.9s-4.9 2.2-4.9 4.9v4.7c0 2.7 2.2 4.9 4.9 4.9zm-8.1 8c0-2.7-2.2-4.9-4.9-4.9h-4.7c-2.7 0-4.9 2.2-4.9 4.9s2.2 4.9 4.9 4.9h4.7c2.7 0 4.9-2.2 4.9-4.9z" fill="url(#SVGID_1_)" style="fill: rgb(199, 72, 182);"></path></svg>