<svg width="301" height="312" viewBox="0 0 301 312" fill="none" xmlns="http://www.w3.org/2000/svg">
<g filter="url(#filter0_d_1_537)">
<path d="M30.615 293L79.4708 9.7812" stroke="white" stroke-width="14" stroke-linecap="round"/>
<path d="M82.4861 7.5393C94.359 5.1661 120.054 1.13166 127.853 3.9795C128.603 3.9795 174.345 8.72596 202.09 41.9507C202.839 42.7418 210.713 51.8391 219.711 55.0033C220.086 55.3989 253.08 60.1453 293.573 45.115C294.773 45.115 270.077 140.043 257.58 187.507C243.707 191.594 212.138 199.373 196.84 197.791C190.467 197.132 177.344 189.485 165.721 178.41C165.721 179.201 127.853 139.647 97.4834 141.23C97.858 140.834 67.1628 143.993 59.6332 148.339C59.6267 148.346 59.6207 148.349 59.6152 148.349C59.6212 148.346 59.6272 148.342 59.6332 148.339C60.6939 147.209 75.2815 54.1904 82.4861 7.5393Z" fill="#76CAEE" stroke="white" stroke-width="5" stroke-linecap="round"/>
<path d="M132.912 72.0994C133.283 72.4243 133.423 72.9348 133.376 73.4453C133.33 73.9558 133.005 74.4199 132.541 74.6519C131.52 75.3944 130.267 75.7657 129.014 75.6729C127.25 75.7193 125.44 75.7657 123.677 75.7657C123.352 75.7657 123.074 75.7657 122.749 75.7193C121.821 75.6265 120.846 75.7193 119.918 76.0442C119.732 76.0906 119.407 76.2762 119.361 76.4618C119.175 77.39 118.758 78.2718 119.175 79.1999C120.8 79.2927 122.331 79.3391 123.909 79.3856C124.373 79.432 124.883 79.4784 125.348 79.5712C125.858 79.664 126.276 79.9889 126.508 80.4529C126.925 81.0099 127.018 81.7524 126.786 82.4021C126.554 83.0518 126.044 83.5623 125.348 83.7944C124.791 83.98 124.187 84.1192 123.538 84.212C122.285 84.3048 121.078 84.6761 120.011 85.3258C119.222 85.7899 118.758 86.5789 118.758 87.4606C118.758 88.7136 118.943 89.9667 119.268 91.1733C119.686 92.5191 119.454 93.9578 118.618 95.0252C118.201 95.6749 117.365 95.9069 116.669 95.6285C116.484 95.5821 116.344 95.4429 116.159 95.3964C114.395 94.7003 114.256 94.5611 114.256 92.7512C114.256 91.1733 114.302 89.5954 114.256 88.0639C114.256 87.3214 114.163 86.5789 114.163 85.8827C114.21 83.6551 114.302 81.4275 114.349 79.1999C114.395 77.7613 114.256 76.2762 114.395 74.8375C114.395 73.5381 114.674 72.1923 115.184 70.9856C115.509 70.2895 116.066 69.7326 116.762 69.4078C118.618 68.4796 120.66 68.1547 122.702 68.4796C124.28 68.5724 125.812 68.8509 127.297 69.2685C128.782 69.779 130.22 70.3823 131.613 71.032C132.123 71.2641 132.541 71.6354 132.912 72.0994ZM128.967 74.1414C129.896 74.1414 130.777 73.8166 131.52 73.2597C131.241 72.7028 130.731 72.2851 130.128 72.0994C128.457 71.2641 126.693 70.7072 124.883 70.3359C122.749 70.0111 120.614 69.7326 118.526 70.6144C117.412 70.9392 116.576 71.9138 116.391 73.074C116.205 74.1414 116.066 75.2552 116.019 76.3226C115.927 77.4364 115.973 78.5038 115.927 79.6176C115.88 82.1237 115.834 84.6761 115.787 87.2286C115.787 87.6462 115.88 88.1103 115.88 88.528C115.88 89.7346 115.834 90.9877 115.787 92.1943C115.787 92.7512 116.066 93.3081 116.53 93.6329C116.901 93.9578 117.226 93.9578 117.412 93.4937C117.551 93.0296 117.597 92.5655 117.551 92.055C117.458 91.0805 117.18 90.1059 117.087 89.1313C116.994 88.2496 116.994 87.3678 117.133 86.486C117.272 85.2794 118.015 84.2584 119.129 83.7479C120.475 83.1446 121.867 82.727 123.306 82.5877C123.77 82.4949 124.234 82.3557 124.698 82.1237C124.883 81.9844 125.023 81.7524 125.023 81.4739C125.023 81.3811 124.698 81.1955 124.512 81.1491C124.187 81.1027 123.862 81.0563 123.538 81.0563C122.192 81.0099 120.8 81.0099 119.454 80.9634C118.572 81.0563 117.737 80.4529 117.505 79.6176C116.994 78.0397 117.412 76.5546 117.969 75.0696C118.108 74.6055 118.572 74.5127 119.036 74.4199C119.361 74.3735 119.732 74.327 120.057 74.1878C120.707 73.9558 121.356 73.9094 122.006 74.0486C122.331 74.095 122.656 74.1414 123.027 74.1414C124.976 74.1414 126.972 74.1414 128.967 74.1414Z" fill="white"/>
<path d="M142.161 98.1506C142.049 98.5077 141.791 98.8492 141.403 99.0292C140.996 99.2515 140.65 99.4508 140.262 99.6308C139.443 99.9717 138.591 99.9399 137.811 99.6356C136.091 99.1572 134.371 98.6789 132.628 98.1391C131.641 97.8421 130.674 97.503 129.726 97.1216C129.28 96.8676 128.935 96.5061 128.671 96.0795C128.368 95.7373 128.618 95.1883 129.122 94.7549C130.125 93.7844 131.354 93.8858 132.583 93.9871C133.228 94.0263 133.858 94.2114 134.465 94.3351C135.279 94.4513 135.379 94.3439 135.683 93.5645C136.08 92.4704 136.435 91.357 136.935 90.2591C138.18 87.3071 139.316 84.255 140.833 81.3763C141.26 80.551 141.73 79.745 142.115 78.9005C142.254 78.7086 142.327 78.436 142.339 78.1864C142.374 77.9982 142.366 77.7908 142.236 77.6294C142.105 77.4679 141.894 77.3716 141.706 77.3368C141.287 77.248 140.869 77.1591 140.431 77.1125C139.721 76.9926 139.126 76.6193 138.712 76.0734C138.294 75.4238 138.264 74.5942 138.614 73.9378C138.814 73.723 139.018 73.6119 139.264 73.52C140.682 73.0954 142.153 73.0011 143.597 73.3024C145.252 73.7 146.829 74.2665 148.35 74.9597C149.363 75.4218 150.161 76.2447 150.632 77.2247C151.015 78.0625 150.699 79.0914 149.842 79.5167C149.112 79.9998 148.224 80.1562 147.349 80.0629C146.469 79.866 145.574 80.3757 145.292 81.2165C144.496 82.7403 143.868 84.3412 143.386 85.9576C143.054 87.1325 142.595 88.2496 142.179 89.3859C141.744 90.5645 141.328 91.7009 140.892 92.8795C140.565 93.5973 140.238 94.3152 139.872 95.1175C140.317 95.3715 140.655 95.5255 140.992 95.6796C141.921 96.1032 142.416 97.1446 142.161 98.1506ZM138.408 98.3266C139.207 98.5887 140.091 98.3286 140.587 97.6878C140.499 96.9848 139.954 96.8382 139.428 96.6494C138.441 96.3525 138.108 95.7414 138.489 94.7932C139.191 92.9197 139.911 91.004 140.739 89.1883C141.371 87.6912 141.876 86.1363 142.277 84.5851C142.756 82.865 143.487 81.2604 144.453 79.8136C145 78.8387 146.06 78.3023 147.166 78.4496C147.796 78.6347 148.518 78.505 149.064 78.0908C148.846 77.2264 148.198 76.5227 147.338 76.2836C147.107 76.2295 146.854 76.114 146.662 75.9755C146.363 75.737 146.025 75.583 145.73 75.4482C144.639 75.155 143.529 74.904 142.443 74.7145C141.586 74.579 140.761 74.7124 140.003 75.0303C140.226 75.4377 140.671 75.6917 141.109 75.7383C141.631 75.8235 142.176 75.9701 142.718 76.013C143.113 76.0403 143.497 76.3173 143.616 76.7284C143.865 77.301 143.91 77.9847 143.786 78.5914C143.617 79.0752 143.447 79.5589 143.193 80.0041C142.654 81.1864 142.073 82.3495 141.491 83.5126C141.029 84.526 140.505 85.5623 140.043 86.5757C139.697 87.3358 139.392 88.1151 139.088 88.8944C138.279 90.6679 137.616 92.4569 136.977 94.3074C136.915 94.8911 136.538 95.3823 136.049 95.6697C135.561 95.9572 134.962 96.041 134.436 95.8522C133.914 95.767 133.43 95.5974 132.908 95.5123C132.071 95.3346 131.18 95.3873 130.38 95.6859C130.764 95.9629 131.209 96.217 131.674 96.4288C132.703 96.745 133.728 96.9574 134.776 97.2314C135.993 97.5824 137.191 97.9756 138.408 98.3266Z" fill="white"/>
<path d="M172.705 89.467C172.589 90.9948 171.968 92.4066 170.922 93.5297C169.359 95.4282 167.616 97.1792 165.723 98.7469C163.961 100.302 162.199 101.857 160.438 103.412C159.279 104.381 158.149 105.315 156.954 106.254C156.499 106.661 155.894 106.884 155.3 106.876C154.705 106.867 154.122 106.627 153.715 106.172C153.458 105.9 153.26 105.557 153.163 105.236C152.733 103.86 152.915 102.326 153.722 101.127C154.139 100.328 154.592 99.5593 155.01 98.7607C155.115 98.4867 155.214 98.1475 155.284 97.844C154.251 98.0757 153.834 98.8744 153.303 99.5192C152.211 100.845 151.149 102.134 150.021 103.43C149.317 103.993 148.302 104.058 147.562 103.569C146.881 103.008 146.591 102.047 146.972 101.219C147.261 100.796 147.442 100.284 147.796 99.8537C148.968 97.9931 150.384 96.2737 151.908 94.6428C153.173 93.3996 154.186 91.9498 155.379 90.6476C156.926 88.9156 158.515 87.2783 160.176 85.7001C160.909 85.1017 161.714 84.5623 162.568 84.1831C163.699 83.6121 164.281 84.512 164.268 85.4034C164.266 86.063 164.097 86.7057 163.857 87.2894C163.176 88.7728 162.418 90.132 161.629 91.5269C160.759 93.0947 159.888 94.6624 158.982 96.2007C158.906 96.4388 158.795 96.6474 158.748 96.8497L158.904 97.0984C159.283 96.9298 159.663 96.7613 160 96.4979C160.638 95.9416 161.235 95.2905 161.802 94.6752C162.864 93.3857 164.063 92.1488 165.269 90.9773C166.647 89.8879 168.067 88.8934 169.559 87.9579C170.063 87.7114 170.537 87.5007 171.054 87.3848C171.534 87.2395 172.046 87.4207 172.257 87.8949C172.562 88.3269 172.75 88.9022 172.705 89.467ZM169.382 93.283C170.132 92.5181 170.703 91.6057 171.066 90.5816C171.211 90.04 171.458 89.5217 171.039 88.9358C169.757 89.3234 168.537 90.0019 167.538 90.9227C165.705 92.4187 164.057 94.1276 162.588 95.984C161.896 96.6772 161.205 97.3704 160.442 98.0047C159.738 98.5672 158.801 98.7568 157.949 98.4765C157.682 98.4364 157.467 98.2594 157.281 98.0465C157.161 97.8273 157.13 97.5007 157.206 97.2626C157.298 96.858 157.427 96.4829 157.591 96.1373C158.892 93.9016 160.163 91.7017 161.398 89.4723C161.933 88.5304 162.397 87.5295 162.896 86.558C163.031 86.2483 163.189 85.8374 162.808 85.6435C162.54 85.6034 162.243 85.5992 162.03 85.7846C161.497 86.0669 161.006 86.4441 160.551 86.8507C158.448 88.9663 156.344 91.0818 154.426 93.4102C153.512 94.5207 152.46 95.5784 151.51 96.6594C151.326 96.809 151.215 97.0176 151.139 97.2557C150.959 98.1302 150.441 98.9057 149.773 99.4978C149.271 100.107 148.806 100.745 148.447 101.472C148.336 101.681 148.432 102.001 148.392 102.269C148.993 102.343 149.627 102.083 149.969 101.523C150.624 100.8 151.244 100.048 151.893 99.2598C152.365 98.6867 152.759 97.9892 153.303 97.4751C153.722 97.0389 154.184 96.6976 154.717 96.4152C155.25 96.1329 155.887 96.2362 156.323 96.6556C156.723 97.0455 156.881 97.6566 156.706 98.234C156.594 98.4426 156.518 98.6807 156.407 98.8894C155.855 99.9977 155.237 101.112 154.721 102.25C154.445 102.805 154.276 103.447 154.238 104.077C154.116 104.518 154.326 104.992 154.714 105.251C155.102 105.51 155.624 105.46 155.991 105.161C156.708 104.729 157.352 104.238 157.991 103.681C160.764 101.336 163.502 98.9616 166.204 96.5575C167.327 95.5587 168.372 94.4356 169.382 93.283Z" fill="white"/>
<path d="M177.787 120.134C177.616 120.467 177.304 120.76 176.891 120.872C176.452 121.022 176.077 121.16 175.664 121.271C174.8 121.469 173.965 121.293 173.249 120.861C171.634 120.098 170.02 119.335 168.394 118.508C167.472 118.048 166.576 117.55 165.706 117.013C165.31 116.688 165.031 116.273 164.843 115.808C164.602 115.419 164.942 114.92 165.511 114.579C166.665 113.792 167.859 114.1 169.053 114.408C169.682 114.556 170.271 114.845 170.848 115.07C171.631 115.323 171.748 115.234 172.18 114.517C172.756 113.506 173.294 112.469 173.974 111.472C175.7 108.773 177.337 105.958 179.32 103.377C179.881 102.637 180.48 101.922 181.003 101.155C181.172 100.989 181.29 100.733 181.344 100.489C181.41 100.309 181.438 100.104 181.337 99.9223C181.236 99.7411 181.044 99.6105 180.865 99.5443C180.467 99.3858 180.07 99.2274 179.646 99.1072C178.966 98.8687 178.443 98.4 178.128 97.7919C177.826 97.0809 177.937 96.2582 178.394 95.6707C178.627 95.4928 178.847 95.4178 179.105 95.3689C180.574 95.1906 182.04 95.347 183.411 95.8885C184.975 96.5608 186.434 97.3864 187.815 98.3271C188.735 98.9542 189.382 99.9004 189.681 100.946C189.916 101.837 189.43 102.797 188.514 103.071C187.712 103.423 186.811 103.427 185.964 103.187C185.131 102.844 184.162 103.195 183.742 103.975C182.698 105.342 181.808 106.814 181.059 108.325C180.533 109.427 179.892 110.45 179.29 111.499C178.661 112.587 178.058 113.637 177.429 114.724C176.985 115.376 176.541 116.028 176.044 116.757C176.44 117.083 176.747 117.292 177.054 117.501C177.898 118.076 178.208 119.186 177.787 120.134ZM174.059 119.672C174.801 120.066 175.716 119.959 176.314 119.411C176.347 118.704 175.834 118.467 175.348 118.192C174.426 117.732 174.201 117.073 174.737 116.203C175.746 114.476 176.78 112.71 177.904 111.061C178.78 109.692 179.541 108.245 180.2 106.785C180.962 105.17 181.955 103.713 183.152 102.451C183.856 101.582 184.992 101.233 186.057 101.566C186.647 101.855 187.38 101.85 187.989 101.534C187.92 100.645 187.401 99.8418 186.594 99.4604C186.376 99.3681 186.145 99.2113 185.98 99.0423C185.725 98.7566 185.418 98.5475 185.15 98.3646C184.125 97.8909 183.074 97.4555 182.035 97.0846C181.214 96.8061 180.377 96.7976 179.577 96.9827C179.728 97.4218 180.123 97.7476 180.547 97.8677C181.047 98.0401 181.56 98.277 182.086 98.411C182.471 98.505 182.802 98.843 182.85 99.2682C182.998 99.8747 182.927 100.556 182.702 101.133C182.453 101.581 182.204 102.029 181.878 102.425C181.147 103.499 180.377 104.547 179.607 105.594C178.979 106.515 178.288 107.448 177.661 108.368C177.19 109.058 176.758 109.775 176.326 110.491C175.229 112.102 174.273 113.753 173.329 115.468C173.168 116.033 172.714 116.453 172.184 116.654C171.654 116.855 171.049 116.836 170.563 116.56C170.063 116.388 169.615 116.139 169.114 115.967C168.32 115.65 167.432 115.551 166.594 115.709C166.925 116.047 167.321 116.373 167.743 116.661C168.704 117.147 169.678 117.53 170.665 117.977C171.805 118.529 172.919 119.12 174.059 119.672Z" fill="white"/>
<path d="M205.32 118.41C207.347 119.542 208.747 121.501 209.19 123.808C209.655 126.073 209.143 128.415 207.721 130.295C207.156 130.998 206.55 131.679 205.82 132.297C204.654 133.059 203.261 133.445 201.849 133.457C199.088 133.566 196.247 133.217 193.575 132.33C191.586 131.737 189.913 130.316 188.948 128.422C187.983 126.735 186.892 125.089 185.76 123.526C185.183 122.713 184.982 121.674 185.216 120.7C185.218 120.389 185.365 120.099 185.573 119.893C185.845 119.666 186.156 119.564 186.488 119.628C187.132 119.591 187.69 120.03 187.769 120.694C187.847 121.463 188.322 121.86 188.651 122.443C189.598 123.756 190.42 125.11 191.159 126.525C191.939 128.066 193.406 129.174 195.106 129.516C197.324 130.069 199.605 130.29 201.889 130.199C203.446 130.104 204.82 129.344 205.741 128.146C207.141 126.515 206.968 124.085 205.399 122.665C203.871 121.265 202.114 120.114 200.188 119.293C197.685 117.971 194.993 116.917 192.741 115.099C191.026 113.76 189.938 111.699 189.743 109.519C189.626 108.315 189.986 107.092 190.717 106.162C191.262 105.294 192.116 104.738 193.113 104.62C197.33 104.001 201.579 104.959 205.156 107.243C206.562 108.164 208.136 108.858 209.625 109.718C210.639 110.284 211.59 110.871 212.52 111.499C213.037 111.917 213.324 112.479 213.321 113.101C213.317 113.724 213.064 114.324 212.584 114.757C212.209 115.087 211.649 115.063 211.298 114.729C209.007 112.474 205.941 111.44 203.253 109.764C200.441 108.025 197.124 107.383 193.841 107.903C192.678 108.042 192.28 108.621 192.648 109.743C192.913 110.554 193.344 111.242 193.943 111.806C195.181 113.058 196.67 114.022 198.306 114.695C199.133 115.115 199.961 115.535 200.83 115.976L200.788 116.059C202.278 116.815 203.872 117.467 205.32 118.41Z" fill="white"/>
<path d="M238.514 130.61C238.29 131.607 237.989 132.535 237.676 133.508C237.314 134.66 236.952 135.812 236.557 136.907C236.211 137.823 235.821 138.726 235.308 139.549C234.754 140.697 233.79 141.588 232.622 141.991C231.6 142.386 230.485 141.89 230.078 140.913C229.626 139.924 229.491 138.829 229.739 137.742C229.857 136.428 230.166 135.117 230.341 133.77C230.447 133.029 230.565 132.243 230.65 131.401C229.283 131.124 227.972 130.815 226.682 130.608C225.391 130.4 224.077 130.282 222.64 130.083C222.542 130.441 222.444 130.8 222.347 131.158C222.091 132.627 221.566 134.023 220.919 135.338C220.337 136.238 219.698 137.17 219.104 138.114C218.534 138.969 216.711 138.953 215.957 137.834C215.172 136.658 214.842 135.221 215.074 133.841C215.436 132.16 215.875 130.548 216.237 128.867C216.648 127.007 216.981 125.078 217.437 123.23C217.831 121.605 218.271 119.994 218.71 118.382C218.966 117.441 219.267 116.513 219.524 115.573C219.617 114.877 220.134 114.393 220.789 114.283C221.526 114.05 222.238 113.908 222.951 113.765C223.777 113.558 224.554 114.058 224.774 114.84C225.149 115.759 225.206 116.785 224.995 117.738C224.681 119.769 224.368 121.8 224.055 123.831C224.063 123.977 224.072 124.124 224.08 124.271C226.75 124.181 229.485 124.205 232.171 124.408C232.737 123.215 233.335 122.079 233.889 120.931C234.361 119.906 234.812 118.778 235.207 117.683C235.455 117.125 235.646 116.6 236.379 116.56C236.627 116.531 236.835 116.299 237.018 116.157C238.654 114.919 240.376 116.014 240.657 117.629C240.885 119.087 240.832 120.515 240.454 121.903C239.763 124.793 239.161 127.708 238.514 130.61ZM220.174 133.307C220.523 132.2 220.816 131.125 221.121 130.006C221.138 129.77 221.077 129.465 221.003 129.204C220.751 128.366 220.409 127.503 220.225 126.587C220.095 125.83 220.551 125.04 221.32 124.865C221.76 124.841 222.159 124.613 222.447 124.259C222.724 123.949 222.846 123.501 222.777 123.05C222.789 123.005 222.814 122.915 222.826 122.871C223.106 120.782 223.444 118.662 223.68 116.561C223.7 116.134 223.618 115.727 223.537 115.32C222.8 115.552 222.165 115.764 221.53 115.976C221.099 116.147 220.81 116.501 220.745 116.916C220.489 117.856 220.143 118.772 219.887 119.712C219.464 121.088 219.085 122.476 218.752 123.877C218.186 126.657 217.824 129.396 217.035 132.115C216.803 132.966 216.661 133.841 216.563 134.728C216.507 135.29 216.584 135.888 216.775 136.421C217.028 137.26 217.634 137.329 218.123 136.596C218.631 135.965 219.095 135.322 219.527 134.622C219.783 134.211 220.007 133.743 220.174 133.307ZM231.84 139.036C234.208 137.229 235.918 134.664 236.564 131.762C237.37 128.807 237.996 125.803 238.712 122.823C238.887 122.005 239.029 121.13 239.159 120.3C239.326 119.335 239.257 118.354 238.927 117.447C237.942 117.707 237.14 118.354 236.648 119.278C235.802 120.972 235.11 122.804 234.61 124.639C234.931 124.871 235.241 125.148 235.493 125.457C235.924 125.815 236.23 126.284 236.49 126.739C236.861 127.321 236.857 128.042 236.507 128.62C235.884 129.316 235.538 130.232 234.729 130.733C234.57 130.786 234.411 130.838 234.22 130.834C233.825 130.871 233.275 130.769 233.056 131.046C232.812 131.413 232.689 131.86 232.714 132.3C232.454 134.49 232.149 136.667 231.84 139.036Z" fill="white"/>
</g>
<defs>
<filter id="filter0_d_1_537" x="19.6138" y="0.5" width="280.501" height="311.501" filterUnits="userSpaceOnUse" color-interpolation-filters="sRGB">
<feFlood flood-opacity="0" result="BackgroundImageFix"/>
<feColorMatrix in="SourceAlpha" type="matrix" values="0 0 0 0 0 0 0 0 0 0 0 0 0 0 0 0 0 0 127 0" result="hardAlpha"/>
<feOffset dy="8"/>
<feGaussianBlur stdDeviation="2"/>
<feComposite in2="hardAlpha" operator="out"/>
<feColorMatrix type="matrix" values="0 0 0 0 0 0 0 0 0 0 0 0 0 0 0 0 0 0 0.25 0"/>
<feBlend mode="normal" in2="BackgroundImageFix" result="effect1_dropShadow_1_537"/>
<feBlend mode="normal" in="SourceGraphic" in2="effect1_dropShadow_1_537" result="shape"/>
</filter>
</defs>
</svg>
