<svg width="208" height="206" viewBox="0 0 208 206" fill="none" xmlns="http://www.w3.org/2000/svg">
<path d="M103.931 0L115.231 66.5182L160.699 16.6684L134.242 78.7359L199.443 61.3814L143.629 99.2923L207.862 119.943L140.413 121.661L183.285 173.76L125.614 138.74L133.513 205.747L103.931 145.106L74.3493 205.747L82.2481 138.74L24.5775 173.76L67.4492 121.661L0 119.943L64.233 99.2923L8.41989 61.3814L73.6208 78.7359L47.164 16.6684L92.632 66.5182L103.931 0Z" fill="#8EFA84"/>
<path d="M103.931 0L115.231 66.5182L160.699 16.6684L134.242 78.7359L199.443 61.3814L143.629 99.2923L207.862 119.943L140.413 121.661L183.285 173.76L125.614 138.74L133.513 205.747L103.931 145.106L74.3493 205.747L82.2481 138.74L24.5775 173.76L67.4492 121.661L0 119.943L64.233 99.2923L8.41989 61.3814L73.6208 78.7359L47.164 16.6684L92.632 66.5182L103.931 0Z" stroke="white"/>
</svg>
