<svg width="154" height="94" viewBox="0 0 154 94" fill="none" xmlns="http://www.w3.org/2000/svg">
<path d="M6.40283 4.98224C6.63535 2.23063 9.05448 0.1885 11.8061 0.421027L148.434 11.9668C151.185 12.1993 153.227 14.6185 152.995 17.3701L147.013 88.1554C146.781 90.907 144.361 92.9491 141.61 92.7166L4.98229 81.1708C2.23067 80.9383 0.188546 78.5192 0.421072 75.7676L6.40283 4.98224Z" fill="#FAF573"/>
<path d="M76.1432 39.5431C76.2714 39.7229 76.7737 40.4655 77.3151 41.0941C77.4013 41.1584 77.4683 41.2353 77.5188 41.3227C77.968 42.0998 77.1029 43.7026 76.6783 44.6288C76.0042 46.0992 75.0697 46.7334 73.6762 46.8014C73.7886 47.5959 74.1089 48.274 74.8382 49.0419C74.9979 48.2845 75.1839 47.6396 75.2808 47.3621C75.6194 46.3927 79.0145 42.6477 78.9676 43.6125C78.8818 45.3756 78.8126 47.1887 77.6377 48.6126C77.1511 49.2024 76.0187 50.1549 75.2355 49.4321C75.0912 49.2989 74.9591 49.1692 74.8382 49.0419C74.509 50.6041 74.2917 52.6449 75.1992 52.9285C76.9139 53.4645 78.5781 50.5162 79.1444 49.3592C80.3019 46.9944 81.5962 44.4637 82.9186 42.1894C83.0567 41.9519 83.0592 40.3882 83.3563 39.4964C82.9796 39.7565 82.59 40.0189 82.5075 40.0665C82.3934 40.1324 82.2779 40.1959 82.1613 40.2576C81.4825 41.1564 80.8056 42.1462 79.9057 42.3957C78.4885 42.7885 79.5241 41.6331 80.0988 41.3031C80.7627 40.9219 81.479 40.6192 82.1613 40.2576C82.2779 40.1959 82.3934 40.1324 82.5075 40.0665C82.59 40.0189 82.9796 39.7565 83.3563 39.4964C83.5122 39.0285 83.7493 38.7456 84.1296 38.9363C84.1455 38.9443 83.7583 39.219 83.3563 39.4964C83.0592 40.3882 83.0567 41.9519 82.9186 42.1894C81.5962 44.4637 80.3019 46.9944 79.1444 49.3592C78.5781 50.5162 76.9139 53.4645 75.1992 52.9285C74.2917 52.6449 74.509 50.6041 74.8382 49.0419C74.1089 48.274 73.7886 47.5959 73.6762 46.8014C73.4179 46.814 73.1439 46.8071 72.8528 46.7825C71.2638 46.6482 70.199 45.8717 69.6985 44.7936C68.9636 44.7561 68.2327 44.6463 68.0792 44.3053C67.4483 42.9029 68.5847 40.2279 68.7483 38.7742C68.9113 37.3254 70.6506 37.7291 72.3796 38.6613C72.4157 38.2853 72.4505 37.9096 72.4822 37.5344C72.5016 37.3045 72.4382 36.3764 72.653 36.1951C73.6151 35.3829 75.7811 39.0356 76.1432 39.5431Z" fill="#FAF573"/>
<path d="M79.5246 40.0881C79.645 38.6641 80.9348 38.2499 81.8338 37.3021C82.6969 36.3924 84.6366 36.8909 85.749 36.9849C89.2259 37.2788 88.3085 43.7798 87.0114 45.9052C85.1055 49.0281 82.3612 51.0312 80.1188 53.8483C78.8756 55.41 77.6401 56.9791 76.5321 58.6289C76.1389 59.2143 76.7764 57.2712 76.8022 56.9667C76.9578 55.125 74.2596 53.9623 73.2785 52.651C71.6925 50.5311 69.6561 48.8026 68.098 46.6399C65.6991 43.3103 65.381 35.342 70.5228 34.6469C71.7928 34.4753 74.313 33.9319 75.5792 34.6278C77.3557 35.6041 78.0178 37.3757 78.5507 39.3433C78.7818 40.1969 78.9704 40.5112 78.8902 41.4602C78.7286 43.3723 76.4393 39.9582 76.1432 39.5431C75.7811 39.0356 73.6151 35.3829 72.653 36.1951C72.4382 36.3764 72.5016 37.3045 72.4822 37.5344C72.2987 39.7052 72.0134 41.8926 71.9442 44.0703C71.8288 47.7075 77.0746 44.5138 75.912 41.5973C75.3291 40.1353 69.065 35.96 68.7483 38.7742C68.5847 40.2279 67.4483 42.9029 68.0792 44.3053C68.3614 44.9325 70.5972 44.7773 71.2176 44.8298C72.3995 44.9297 74.0878 42.9245 73.5212 41.7697C72.928 40.5608 71.1628 38.8887 70.15 40.592C68.49 43.3837 69.5146 46.5004 72.8528 46.7825C74.7144 46.9398 75.8792 46.3718 76.6783 44.6288C77.2407 43.4021 78.5759 40.9883 76.6064 40.8784C74.4543 40.7583 73.8719 42.5614 73.728 44.2642C73.526 46.6552 73.4477 47.7821 75.2355 49.4321C76.0187 50.1549 77.1511 49.2024 77.6377 48.6126C78.8126 47.1887 78.8818 45.3756 78.9676 43.6125C79.0145 42.6477 75.6194 46.3927 75.2808 47.3621C74.984 48.2119 73.8517 52.5073 75.1992 52.9285C76.9139 53.4645 78.5781 50.5162 79.1444 49.3592C80.3019 46.9944 81.5962 44.4637 82.9186 42.1894C83.1292 41.8273 83.0245 38.3821 84.1296 38.9363C84.1605 38.9518 82.6779 39.9682 82.5075 40.0665C81.7252 40.5181 80.8761 40.8568 80.0988 41.3031C79.5241 41.6331 78.4885 42.7885 79.9057 42.3957C81.7912 41.873 82.6973 38.1004 84.6947 38.7248C85.5936 39.0058 85.5128 42.8475 85.4409 43.6987C85.296 45.4127 83.54 45.9765 83.0589 47.5154C82.6878 48.7028 81.9664 50.4092 81.1108 51.3111C80.3258 52.1386 78.9375 52.8026 78.3718 53.7295" stroke="#BD2D0D" stroke-width="2" stroke-linecap="round"/>
<path d="M90.6374 42.7131C90.5863 43.3173 90.574 43.9362 90.3406 44.5051C89.8008 45.8209 88.7416 47.0727 87.6793 47.9953C85.89 49.5495 84.1134 51.1174 82.2112 52.5405C81.7478 52.8873 81.3407 53.2916 80.9154 53.6828C80.4216 54.1369 79.8731 54.5243 79.3914 54.9916C78.5319 55.8256 77.8236 56.7613 77.0866 57.7043" stroke="#BD2D0D" stroke-width="2" stroke-linecap="round"/>
<path d="M64.9204 40.6963C64.969 40.1211 64.9958 39.5759 64.8745 39.0182C64.8169 38.7535 64.9118 38.3988 64.9345 38.1299C64.9667 37.7498 64.9988 37.3696 65.0309 36.9894C65.1651 35.4022 66.1036 34.0318 67.5215 33.281C68.3233 32.8563 68.983 32.6017 69.8739 32.4512C70.6252 32.3243 71.4134 32.3006 72.1741 32.4617C72.908 32.6171 73.4317 33.0083 73.9817 33.459C74.473 33.8618 74.8608 34.4475 75.146 35.0064C75.4838 35.6685 75.6143 36.6108 76.0958 37.1812" stroke="#BD2D0D" stroke-width="2" stroke-linecap="round"/>
<path d="M79.8005 37.3888C80.4433 37.0858 80.9441 36.4519 81.6039 36.1802C82.5595 35.7866 83.518 35.3702 84.5525 35.2249C85.2292 35.1299 85.8751 35.0343 86.5567 35.0919C87.1928 35.1456 87.8304 35.1906 88.4657 35.2532C88.8856 35.2945 89.3236 35.5374 89.6454 35.8011C90.1145 36.1856 90.6612 36.568 90.9809 37.0941C91.8348 38.4992 92.6028 40.2484 91.9874 41.8968C91.7446 42.5471 91.2762 43.2632 90.7597 43.7373C90.1525 44.2949 89.4852 44.8033 88.7904 45.2479C87.401 46.1369 85.8919 46.8276 84.3787 47.4756C82.0522 48.4719 79.7567 49.4874 77.5125 50.6597" stroke="#BD2D0D" stroke-width="2" stroke-linecap="round"/>
<line x1="10.3448" y1="4.38396" x2="62.7641" y2="45.2525" stroke="#5A6AB7" stroke-width="2" stroke-linecap="round"/>
<line x1="10.3448" y1="4.38396" x2="62.7641" y2="45.2525" stroke="#5A6AB7" stroke-width="2" stroke-linecap="round"/>
<line x1="10.3448" y1="4.38396" x2="62.7641" y2="45.2525" stroke="#5A6AB7" stroke-width="2" stroke-linecap="round"/>
<line x1="5.58395" y1="77.1103" x2="62.9247" y2="45.133" stroke="#5A6AB7" stroke-width="2" stroke-linecap="round"/>
<line x1="5.58395" y1="77.1103" x2="62.9247" y2="45.133" stroke="#5A6AB7" stroke-width="2" stroke-linecap="round"/>
<line x1="5.58395" y1="77.1103" x2="62.9247" y2="45.133" stroke="#5A6AB7" stroke-width="2" stroke-linecap="round"/>
<line x1="1" y1="-1" x2="64.4326" y2="-1" transform="matrix(-0.865744 0.500488 0.447379 0.894345 149.321 16.4209)" stroke="#5A6AB7" stroke-width="2" stroke-linecap="round"/>
<line x1="1" y1="-1" x2="64.4326" y2="-1" transform="matrix(-0.865744 0.500488 0.447379 0.894345 149.321 16.4209)" stroke="#5A6AB7" stroke-width="2" stroke-linecap="round"/>
<line x1="1" y1="-1" x2="64.4326" y2="-1" transform="matrix(-0.865744 0.500488 0.447379 0.894345 149.321 16.4209)" stroke="#5A6AB7" stroke-width="2" stroke-linecap="round"/>
<line x1="1" y1="-1" x2="63.7158" y2="-1" transform="matrix(-0.759499 -0.650509 -0.602915 0.797805 140.767 89.9266)" stroke="#5A6AB7" stroke-width="2" stroke-linecap="round"/>
<line x1="1" y1="-1" x2="63.7158" y2="-1" transform="matrix(-0.759499 -0.650509 -0.602915 0.797805 140.767 89.9266)" stroke="#5A6AB7" stroke-width="2" stroke-linecap="round"/>
<line x1="1" y1="-1" x2="63.7158" y2="-1" transform="matrix(-0.759499 -0.650509 -0.602915 0.797805 140.767 89.9266)" stroke="#5A6AB7" stroke-width="2" stroke-linecap="round"/>
</svg>
