<svg width="136" height="98" viewBox="0 0 136 98" fill="none" xmlns="http://www.w3.org/2000/svg">
<path d="M1.36207 37.9037C0.609821 35.2467 2.15391 32.483 4.8109 31.7307L112.074 1.36226C114.731 0.610009 117.494 2.1541 118.247 4.81109L133.751 59.5748C134.504 62.2318 132.96 64.9955 130.303 65.7478L23.0399 96.1162C20.3829 96.8685 17.6191 95.3244 16.8669 92.6674L1.36207 37.9037Z" fill="#F781CB"/>
<path d="M67.8469 42.9117C67.5254 41.7763 68.4016 41.0808 68.8205 40.0868C69.2226 39.1326 70.8666 38.9533 71.7536 38.7022C74.5259 37.9173 75.7091 43.208 75.3253 45.2279C74.7615 48.1958 73.2239 50.5424 72.3109 53.372C71.8048 54.9406 71.3067 56.5127 70.9307 58.1101C70.7972 58.677 70.7243 56.9898 70.6556 56.7471C70.2399 55.2786 67.8164 55.1654 66.6766 54.4377C64.834 53.2611 62.7573 52.5181 60.9239 51.3004C58.101 49.4256 55.5361 43.3607 59.3071 41.3271C60.2386 40.8247 62.0279 39.6714 63.2089 39.8406C64.8658 40.078 65.8931 41.2543 66.8775 42.6197C67.3046 43.212 67.5418 43.4 67.756 44.1567C68.1877 45.6813 65.4249 43.7093 65.0753 43.4748C64.6477 43.1879 61.9109 40.9957 61.4038 41.9034C61.2906 42.106 61.6097 42.8048 61.6616 42.988C62.1516 44.7189 62.5678 46.4923 63.1482 48.1953C64.1176 51.0395 67.2417 47.0448 65.4945 45.1295C64.6186 44.1693 58.5627 42.766 59.1371 45.0328C59.4337 46.2038 59.3341 48.6017 60.2299 49.5018C60.6305 49.9043 62.313 49.1337 62.8077 48.9936C63.7501 48.7268 64.4711 46.686 63.6972 45.9585C62.887 45.1969 61.0362 44.4186 60.7493 46.0296C60.2791 48.67 61.978 50.7803 64.6396 50.0267C66.124 49.6064 66.8587 48.8284 66.9689 47.249C67.0465 46.1374 67.3757 43.8835 65.8218 44.3718C64.1238 44.9053 64.1986 46.4682 64.583 47.826C65.1228 49.7323 65.3903 50.6259 67.252 51.3807C68.0676 51.7113 68.6655 50.6457 68.8699 50.0482C69.3633 48.606 68.8891 47.1848 68.4422 45.7974C68.1977 45.0381 66.664 48.9203 66.6846 49.7679C66.7026 50.511 67.0777 54.1598 68.2416 54.0931C69.7226 54.0082 70.1505 51.2456 70.2514 50.1866C70.4576 48.0224 70.7212 45.6901 71.0812 43.5478C71.1385 43.2066 70.0549 40.5748 71.0701 40.6814C71.0986 40.6844 70.2487 41.9013 70.1456 42.0269C69.6726 42.6035 69.115 43.1124 68.6442 43.6835C68.2962 44.1058 67.8322 45.3 68.813 44.584C70.1179 43.6314 69.7201 40.4524 71.4453 40.3535C72.2217 40.309 73.2774 43.3012 73.4695 43.9799C73.8565 45.3466 72.6636 46.2934 72.7397 47.6225C72.7985 48.6481 72.7377 50.1767 72.3391 51.1227C71.9733 51.9906 71.0937 52.9078 70.9264 53.7887" stroke="#BD2D0D" stroke-width="2" stroke-linecap="round"/>
<path d="M77.1985 41.7059C77.3349 42.1877 77.5055 42.6696 77.4907 43.1771C77.4565 44.351 77.0023 45.6266 76.45 46.6487C75.5196 48.3705 74.6031 50.0991 73.5474 51.7525C73.2902 52.1553 73.0933 52.5863 72.8785 53.0124C72.6291 53.507 72.318 53.966 72.0818 54.4673C71.6603 55.3619 71.3853 56.2911 71.0903 57.2343" stroke="#BD2D0D" stroke-width="2" stroke-linecap="round"/>
<path d="M56.7386 47.6321C56.6088 47.1735 56.4708 46.7443 56.2148 46.3487C56.0932 46.1609 56.0634 45.8592 56.0027 45.6448C55.9168 45.3417 55.831 45.0386 55.7452 44.7354C55.3869 43.4698 55.7133 42.1378 56.5904 41.1449C57.0864 40.5834 57.5222 40.1946 58.1668 39.819C58.7104 39.5023 59.3126 39.2545 59.9473 39.1576C60.5597 39.0641 61.0782 39.214 61.6344 39.4022C62.1313 39.5704 62.6014 39.9102 62.9844 40.2591C63.4382 40.6724 63.8133 41.3626 64.3514 41.6632" stroke="#BD2D0D" stroke-width="2" stroke-linecap="round"/>
<path d="M67.2747 40.7454C67.6833 40.3242 67.8857 39.6887 68.3166 39.2866C68.9404 38.7043 69.5599 38.1036 70.317 37.6903C70.8123 37.4199 71.2836 37.158 71.827 37.0041C72.3343 36.8605 72.84 36.7097 73.3492 36.5732C73.6857 36.4829 74.0949 36.5431 74.4203 36.6533C74.8947 36.8138 75.4284 36.9502 75.8286 37.2637C76.8974 38.1009 78 39.2292 78.0042 40.682C78.0058 41.2552 77.8523 41.945 77.5912 42.4616C77.2842 43.0692 76.9166 43.6563 76.509 44.2021C75.6941 45.2935 74.729 46.2664 73.7483 47.2076C72.2405 48.6545 70.7622 50.1074 69.3691 51.6665" stroke="#BD2D0D" stroke-width="2" stroke-linecap="round"/>
<line x1="4.21494" y1="35.3414" x2="56.2839" y2="51.5625" stroke="#5A6AB7" stroke-width="2" stroke-linecap="round"/>
<line x1="4.21494" y1="35.3414" x2="56.2839" y2="51.5625" stroke="#5A6AB7" stroke-width="2" stroke-linecap="round"/>
<line x1="4.21494" y1="35.3414" x2="56.2839" y2="51.5625" stroke="#5A6AB7" stroke-width="2" stroke-linecap="round"/>
<line x1="21.4638" y1="92.7951" x2="56.242" y2="51.6618" stroke="#5A6AB7" stroke-width="2" stroke-linecap="round"/>
<line x1="21.4638" y1="92.7951" x2="56.242" y2="51.6618" stroke="#5A6AB7" stroke-width="2" stroke-linecap="round"/>
<line x1="21.4638" y1="92.7951" x2="56.242" y2="51.6618" stroke="#5A6AB7" stroke-width="2" stroke-linecap="round"/>
<line x1="1" y1="-1" x2="53.0305" y2="-1" transform="matrix(-0.633778 0.773515 0.733896 0.679262 114.894 4.30853)" stroke="#5A6AB7" stroke-width="2" stroke-linecap="round"/>
<line x1="1" y1="-1" x2="53.0305" y2="-1" transform="matrix(-0.633778 0.773515 0.733896 0.679262 114.894 4.30853)" stroke="#5A6AB7" stroke-width="2" stroke-linecap="round"/>
<line x1="1" y1="-1" x2="53.0305" y2="-1" transform="matrix(-0.633778 0.773515 0.733896 0.679262 114.894 4.30853)" stroke="#5A6AB7" stroke-width="2" stroke-linecap="round"/>
<line x1="1" y1="-1" x2="52.4387" y2="-1" transform="matrix(-0.940041 -0.341063 -0.283022 0.959113 129.678 63.5996)" stroke="#5A6AB7" stroke-width="2" stroke-linecap="round"/>
<line x1="1" y1="-1" x2="52.4387" y2="-1" transform="matrix(-0.940041 -0.341063 -0.283022 0.959113 129.678 63.5996)" stroke="#5A6AB7" stroke-width="2" stroke-linecap="round"/>
<line x1="1" y1="-1" x2="52.4387" y2="-1" transform="matrix(-0.940041 -0.341063 -0.283022 0.959113 129.678 63.5996)" stroke="#5A6AB7" stroke-width="2" stroke-linecap="round"/>
</svg>
