<svg width="164" height="117" viewBox="0 0 164 117" fill="none" xmlns="http://www.w3.org/2000/svg">
<path d="M19.68 4.82963C20.3947 2.1623 23.1364 0.579386 25.8038 1.2941L158.246 36.7819C160.913 37.4966 162.496 40.2383 161.782 42.9057L143.396 111.523C142.681 114.19 139.939 115.773 137.272 115.058L4.82967 79.5704C2.16234 78.8557 0.579428 76.114 1.29414 73.4467L19.68 4.82963Z" fill="#F7BA04"/>
<path d="M82.2224 51.1612C82.3169 51.3608 82.6802 52.1804 83.1021 52.8947C83.1755 52.9733 83.228 53.0608 83.2622 53.1557C83.5672 53.9999 82.4326 55.4248 81.8512 56.2614C80.928 57.5897 79.8963 58.049 78.5127 57.8698C78.483 58.6717 78.6785 59.3957 79.2608 60.2803C79.5517 59.563 79.8486 58.9611 79.993 58.7051C80.4974 57.8107 84.5005 54.7239 84.2839 55.6653C83.8882 57.3856 83.4999 59.158 82.0922 60.3521C81.509 60.8467 80.2262 61.5843 79.5829 60.7345C79.4645 60.578 79.3573 60.427 79.2608 60.2803C78.6609 61.7598 78.0868 63.7302 78.9299 64.1696C80.523 64.9999 82.6816 62.3918 83.4433 61.3529C85.0002 59.2297 86.7209 56.9673 88.4241 54.9622C88.602 54.7528 88.8805 53.2141 89.3305 52.3888C88.9137 52.5782 88.4839 52.7678 88.3943 52.8001C88.2704 52.8448 88.1455 52.8868 88.0199 52.927C87.193 53.6918 86.352 54.5466 85.4221 54.6332C83.9579 54.7697 85.1812 53.8153 85.8051 53.5919C86.5259 53.3339 87.2844 53.1624 88.0199 52.927C88.1455 52.8868 88.2704 52.8448 88.3943 52.8001C88.4839 52.7678 88.9137 52.5782 89.3305 52.3888C89.5665 51.9557 89.8498 51.7191 90.1905 51.974C90.2048 51.9847 89.7751 52.1867 89.3305 52.3888C88.8805 53.2141 88.602 54.7528 88.4241 54.9622C86.7209 56.9673 85.0002 59.2297 83.4433 61.3529C82.6816 62.3918 80.523 64.9999 78.9299 64.1696C78.0868 63.7302 78.6609 61.7598 79.2608 60.2803C78.6785 59.3957 78.483 58.6717 78.5127 57.8698C78.2562 57.8366 77.9877 57.7815 77.7055 57.7059C76.1652 57.2932 75.2542 56.3408 74.9519 55.1913C74.2352 55.0246 73.5351 54.7875 73.4443 54.4248C73.0709 52.933 74.6617 50.5006 75.0794 49.0986C75.4957 47.7014 77.1365 48.4059 78.6736 49.6287C78.7756 49.265 78.8761 48.9013 78.9736 48.5376C79.0333 48.3148 79.1347 47.39 79.3782 47.2495C80.4686 46.6199 81.9556 50.5977 82.2224 51.1612Z" fill="#F7BA04"/>
<path d="M85.4545 52.2946C85.8244 50.9142 87.1671 50.7343 88.2193 49.9602C89.2294 49.2171 91.0507 50.0503 92.129 50.3392C95.4994 51.2423 93.4485 57.4793 91.7965 59.3422C89.3692 62.0795 86.3144 63.5666 83.6098 65.9436C82.1104 67.2612 80.6172 68.5875 79.2354 70.0158C78.745 70.5226 79.7156 68.7225 79.7947 68.4274C80.273 66.6421 77.8225 65.0213 77.0884 63.5573C75.9015 61.1907 74.2023 59.1298 73.0506 56.726C71.2773 53.0251 72.3711 45.1259 77.5548 45.3496C78.8352 45.4048 81.4117 45.315 82.5352 46.2235C84.1114 47.4982 84.4503 49.3588 84.6273 51.3896C84.7042 52.2706 84.8343 52.6132 84.5878 53.5332C84.0912 55.3867 82.4406 51.622 82.2224 51.1612C81.9556 50.5977 80.4686 46.6199 79.3782 47.2495C79.1347 47.39 79.0333 48.3148 78.9736 48.5376C78.4097 50.6419 77.7426 52.7446 77.2901 54.8759C76.5343 58.4355 82.2616 56.2182 81.6321 53.1423C81.3166 51.6004 75.8881 46.3846 75.0794 49.0986C74.6617 50.5006 73.0709 52.933 73.4443 54.4248C73.6113 55.0919 75.8394 55.334 76.4408 55.4951C77.5865 55.8021 79.6022 54.1266 79.2485 52.8899C78.8781 51.5952 77.4358 49.6377 76.1382 51.1354C74.0114 53.5901 74.4696 56.8388 77.7055 57.7059C79.5101 58.1894 80.7569 57.8359 81.8512 56.2614C82.6213 55.1533 84.3617 53.0131 82.4426 52.5572C80.3455 52.059 79.4539 53.731 79.0116 55.3817C78.3906 57.6994 78.1146 58.7948 79.5829 60.7345C80.2262 61.5843 81.509 60.8467 82.0922 60.3521C83.4999 59.158 83.8882 57.3856 84.2839 55.6653C84.5005 54.7239 80.4974 57.8107 79.993 58.7051C79.5509 59.4891 77.6779 63.5171 78.9299 64.1696C80.523 64.9999 82.6816 62.3918 83.4433 61.3529C85.0002 59.2297 86.7209 56.9673 88.4241 54.9622C88.6953 54.6429 89.2006 51.2334 90.1905 51.974C90.2182 51.9947 88.5794 52.7333 88.3943 52.8001C87.5446 53.1064 86.649 53.2899 85.8051 53.5919C85.1812 53.8153 83.9579 54.7697 85.4221 54.6332C87.3703 54.4517 88.9283 50.8984 90.784 51.8656C91.6192 52.3009 90.8614 56.068 90.6403 56.8931C90.1951 58.5546 88.3671 58.7995 87.6219 60.2293C87.0469 61.3325 86.0356 62.8847 85.0342 63.6214C84.1154 64.2973 82.6317 64.7058 81.9113 65.5182" stroke="#BD2D0D" stroke-width="2" stroke-linecap="round"/>
<path d="M95.9293 56.8405C95.7724 57.4262 95.6509 58.0332 95.3208 58.552C94.5571 59.7518 93.2935 60.7968 92.0851 61.5174C90.0494 62.7312 88.0239 63.9608 85.9004 65.0257C85.383 65.2852 84.9109 65.6113 84.4232 65.9213C83.857 66.2811 83.2487 66.5655 82.6921 66.9404C81.6988 67.6096 80.8364 68.4055 79.9445 69.2035" stroke="#BD2D0D" stroke-width="2" stroke-linecap="round"/>
<path d="M70.9724 50.3147C71.1218 49.7571 71.2445 49.2252 71.2236 48.6549C71.2136 48.3841 71.3697 48.0518 71.4395 47.7911C71.5383 47.4226 71.637 47.0541 71.7357 46.6855C72.148 45.1469 73.3138 43.9638 74.842 43.4751C75.7061 43.1987 76.4005 43.0646 77.3039 43.0737C78.0658 43.0814 78.8458 43.1973 79.5661 43.4901C80.2611 43.7727 80.7075 44.2502 81.1692 44.791C81.5818 45.2742 81.86 45.9192 82.042 46.5196C82.2577 47.231 82.2197 48.1816 82.5929 48.828" stroke="#BD2D0D" stroke-width="2" stroke-linecap="round"/>
<path d="M86.2029 49.6865C86.8891 49.5017 87.4939 48.9662 88.1913 48.8152C89.2014 48.5966 90.2184 48.356 91.2622 48.3956C91.9451 48.4216 92.5977 48.4415 93.2584 48.6185C93.8751 48.7837 94.4947 48.9406 95.109 49.1144C95.5149 49.2292 95.9032 49.5456 96.1734 49.862C96.5673 50.3233 97.0378 50.7962 97.2596 51.3704C97.852 52.9042 98.2991 54.7616 97.4023 56.2754C97.0485 56.8726 96.461 57.4948 95.869 57.8703C95.1728 58.3118 94.4262 58.6945 93.6639 59.0094C92.1393 59.6391 90.532 60.0525 88.9281 60.4231C86.4623 60.993 84.0236 61.5872 81.6076 62.3449" stroke="#BD2D0D" stroke-width="2" stroke-linecap="round"/>
<line x1="23.6657" y1="4.9368" x2="68.0455" y2="54.4187" stroke="#5A6AB7" stroke-width="2" stroke-linecap="round"/>
<line x1="23.6657" y1="4.9368" x2="68.0455" y2="54.4187" stroke="#5A6AB7" stroke-width="2" stroke-linecap="round"/>
<line x1="23.6657" y1="4.9368" x2="68.0455" y2="54.4187" stroke="#5A6AB7" stroke-width="2" stroke-linecap="round"/>
<line x1="6.13876" y1="75.68" x2="68.2247" y2="54.3294" stroke="#5A6AB7" stroke-width="2" stroke-linecap="round"/>
<line x1="6.13876" y1="75.68" x2="68.2247" y2="54.3294" stroke="#5A6AB7" stroke-width="2" stroke-linecap="round"/>
<line x1="6.13876" y1="75.68" x2="68.2247" y2="54.3294" stroke="#5A6AB7" stroke-width="2" stroke-linecap="round"/>
<line x1="1" y1="-1" x2="64.4326" y2="-1" transform="matrix(-0.94051 0.339766 0.282442 0.959284 158.334 41.3228)" stroke="#5A6AB7" stroke-width="2" stroke-linecap="round"/>
<line x1="1" y1="-1" x2="64.4326" y2="-1" transform="matrix(-0.94051 0.339766 0.282442 0.959284 158.334 41.3228)" stroke="#5A6AB7" stroke-width="2" stroke-linecap="round"/>
<line x1="1" y1="-1" x2="64.4326" y2="-1" transform="matrix(-0.94051 0.339766 0.282442 0.959284 158.334 41.3228)" stroke="#5A6AB7" stroke-width="2" stroke-linecap="round"/>
<line x1="1" y1="-1" x2="63.7158" y2="-1" transform="matrix(-0.63271 -0.774388 -0.734306 0.678818 136.936 112.163)" stroke="#5A6AB7" stroke-width="2" stroke-linecap="round"/>
<line x1="1" y1="-1" x2="63.7158" y2="-1" transform="matrix(-0.63271 -0.774388 -0.734306 0.678818 136.936 112.163)" stroke="#5A6AB7" stroke-width="2" stroke-linecap="round"/>
<line x1="1" y1="-1" x2="63.7158" y2="-1" transform="matrix(-0.63271 -0.774388 -0.734306 0.678818 136.936 112.163)" stroke="#5A6AB7" stroke-width="2" stroke-linecap="round"/>
</svg>
