<svg width="153" height="191" viewBox="0 0 153 191" fill="none" xmlns="http://www.w3.org/2000/svg">
<path d="M42.506 113.047C42.6365 111.859 44.3635 111.859 44.494 113.047L47.7187 142.397C47.7699 142.862 48.1377 143.23 48.6035 143.281L77.9529 146.506C79.1406 146.636 79.1406 148.364 77.9529 148.494L48.6035 151.719C48.1377 151.77 47.7699 152.138 47.7187 152.603L44.494 181.953C44.3635 183.141 42.6365 183.141 42.506 181.953L39.2813 152.603C39.2301 152.138 38.8623 151.77 38.3965 151.719L9.04708 148.494C7.85937 148.364 7.85936 146.636 9.04708 146.506L38.3965 143.281C38.8623 143.23 39.2301 142.862 39.2813 142.397L42.506 113.047Z" fill="#FFDF03"/>
<circle cx="45.5" cy="67.5" r="7.5" fill="#FFDF03"/>
<circle cx="45.5" cy="67.5" r="7.5" fill="#FFDF03"/>
<circle cx="94.5" cy="73.5" r="4.5" fill="#FFDF03"/>
<circle cx="70" cy="99" r="3" fill="#FFDF03"/>
<path d="M122.029 3.9327C122.279 2.91893 123.721 2.91893 123.971 3.9327L128.795 23.4739C128.884 23.8345 129.166 24.116 129.526 24.2051L149.067 29.0291C150.081 29.2794 150.081 30.7206 149.067 30.9709L129.526 35.7949C129.166 35.884 128.884 36.1655 128.795 36.5261L123.971 56.0673C123.721 57.0811 122.279 57.0811 122.029 56.0673L117.205 36.5261C117.116 36.1655 116.834 35.884 116.474 35.7949L96.9327 30.9709C95.9189 30.7206 95.9189 29.2794 96.9327 29.0291L116.474 24.2051C116.834 24.116 117.116 23.8345 117.205 23.4739L122.029 3.9327Z" fill="#FFDF03"/>
</svg>
