<svg width="150" height="71" viewBox="0 0 150 71" fill="none" xmlns="http://www.w3.org/2000/svg">
<ellipse cx="7.5" cy="8" rx="7.5" ry="8" transform="matrix(0.918161 -0.396207 -0.396207 -0.918161 64.6089 70.2021)" fill="#FFDF03"/>
<ellipse cx="7.5" cy="8" rx="7.5" ry="8" transform="matrix(0.918161 -0.396207 -0.396207 -0.918161 64.6089 70.2021)" fill="#FFDF03"/>
<ellipse cx="4.5" cy="5" rx="4.5" ry="5" transform="matrix(0.918161 -0.396207 -0.396207 -0.918161 108.391 40.4175)" fill="#FFDF03"/>
<ellipse cx="3" cy="3.5" rx="3" ry="3.5" transform="matrix(0.918161 -0.396207 -0.396207 -0.918161 75.7834 22.9038)" fill="#FFDF03"/>
<ellipse cx="3" cy="3.5" rx="3" ry="3.5" transform="matrix(0.918161 -0.396207 -0.396207 -0.918161 143.773 15.8042)" fill="#FFDF03"/>
<path d="M8.46777 3.15773C13.7598 12.2297 21.8877 20.2444 28.8063 28.0515C32.6214 32.3567 36.95 38.8404 41.9589 41.8458" stroke="#FFDF03" stroke-width="4" stroke-linecap="round"/>
<path d="M3.22986 39.1412C3.31029 38.3369 5.27358 36.8606 5.49822 36.6542C8.53619 33.8631 11.6206 31.084 14.9543 28.6467C21.2399 24.051 27.4785 19.2857 34.0987 15.1731C37.9105 12.8052 41.994 10.7072 45.9461 8.57302C46.4853 8.28187 47.8578 7.97543 47.012 7.41151" stroke="#FFDF03" stroke-width="4" stroke-linecap="round"/>
<path d="M27.0887 2C27.0887 13.5759 26.2945 25.1288 26.3507 36.7087C26.3617 38.9603 26.4418 41.1555 27.28 43.2678C27.5033 43.8305 27.4811 44.3551 28.0725 44.5523" stroke="#FFDF03" stroke-width="4" stroke-linecap="round"/>
<path d="M2 26.3505C16.11 26.3505 30.1979 25.8586 44.3063 25.8586" stroke="#FFDF03" stroke-width="4" stroke-linecap="round"/>
</svg>
