<svg width="442" height="413" viewBox="0 0 442 413" fill="none" xmlns="http://www.w3.org/2000/svg">
<ellipse cx="221.253" cy="206.25" rx="220.322" ry="205.902" transform="rotate(-180 221.253 206.25)" fill="#F27298"/>
<mask id="path-2-inside-1_36_11" fill="white">
<ellipse cx="152.727" cy="198.405" rx="45.3791" ry="26.0131" transform="rotate(170.036 152.727 198.405)"/>
</mask>
<path d="M155.308 197.951C156.742 206.114 154.832 212.9 152.765 217.053C150.857 220.885 148.85 222.564 148.657 222.725C148.403 222.936 150.916 221.047 156.531 220.06L139.921 125.508C120.851 128.858 102.024 136.63 87.2234 148.956C73.6 160.301 55.2597 183.275 60.7558 214.562L155.308 197.951ZM156.531 220.06C162.145 219.074 165.152 219.994 164.842 219.882C164.605 219.796 162.146 218.902 159.046 215.949C155.688 212.749 151.579 207.021 150.145 198.858L244.697 182.248C239.201 150.962 214.129 135.614 197.454 129.591C179.338 123.048 158.99 122.158 139.921 125.508L156.531 220.06ZM150.145 198.858C148.711 190.696 150.621 183.91 152.688 179.757C154.596 175.925 156.603 174.246 156.796 174.085C157.05 173.874 154.537 175.763 148.922 176.75L165.533 271.302C184.602 267.952 203.429 260.18 218.23 247.854C231.853 236.509 250.193 213.535 244.697 182.248L150.145 198.858ZM148.922 176.75C143.308 177.736 140.301 176.816 140.611 176.928C140.849 177.014 143.308 177.908 146.407 180.86C149.766 184.061 153.874 189.789 155.308 197.951L60.7558 214.562C66.2519 245.848 91.3245 261.196 107.999 267.219C126.115 273.762 146.463 274.652 165.533 271.302L148.922 176.75Z" fill="#D16485" mask="url(#path-2-inside-1_36_11)"/>
<path d="M155.308 197.951C156.742 206.114 154.832 212.9 152.765 217.053C150.857 220.885 148.85 222.564 148.657 222.725C148.403 222.936 150.916 221.047 156.531 220.06L139.921 125.508C120.851 128.858 102.024 136.63 87.2234 148.956C73.6 160.301 55.2597 183.275 60.7558 214.562L155.308 197.951ZM156.531 220.06C162.145 219.074 165.152 219.994 164.842 219.882C164.605 219.796 162.146 218.902 159.046 215.949C155.688 212.749 151.579 207.021 150.145 198.858L244.697 182.248C239.201 150.962 214.129 135.614 197.454 129.591C179.338 123.048 158.99 122.158 139.921 125.508L156.531 220.06ZM150.145 198.858C148.711 190.696 150.621 183.91 152.688 179.757C154.596 175.925 156.603 174.246 156.796 174.085C157.05 173.874 154.537 175.763 148.922 176.75L165.533 271.302C184.602 267.952 203.429 260.18 218.23 247.854C231.853 236.509 250.193 213.535 244.697 182.248L150.145 198.858ZM148.922 176.75C143.308 177.736 140.301 176.816 140.611 176.928C140.849 177.014 143.308 177.908 146.407 180.86C149.766 184.061 153.874 189.789 155.308 197.951L60.7558 214.562C66.2519 245.848 91.3245 261.196 107.999 267.219C126.115 273.762 146.463 274.652 165.533 271.302L148.922 176.75Z" fill="#D16485" mask="url(#path-2-inside-1_36_11)"/>
<path d="M270.51 154.504C270.375 153.734 270.486 150.536 276.106 145.856C281.419 141.431 289.965 137.366 300.555 135.506C311.145 133.646 320.565 134.554 327.068 136.903C333.947 139.388 335.141 142.357 335.276 143.127C335.412 143.896 335.301 147.094 329.68 151.775C324.367 156.199 315.821 160.264 305.231 162.125C294.641 163.985 285.222 163.076 278.718 160.727C271.839 158.243 270.645 155.274 270.51 154.504Z" stroke="#D16485" stroke-width="25"/>
<path d="M270.51 154.504C270.375 153.734 270.486 150.536 276.106 145.856C281.419 141.431 289.965 137.366 300.555 135.506C311.145 133.646 320.565 134.554 327.068 136.903C333.947 139.388 335.141 142.357 335.276 143.127C335.412 143.896 335.301 147.094 329.68 151.775C324.367 156.199 315.821 160.264 305.231 162.125C294.641 163.985 285.222 163.076 278.718 160.727C271.839 158.243 270.645 155.274 270.51 154.504Z" stroke="#D16485" stroke-width="25"/>
<mask id="path-5-inside-2_36_11" fill="white">
<ellipse cx="362.376" cy="235.857" rx="33.802" ry="26.0131" transform="rotate(-165.175 362.376 235.857)"/>
</mask>
<path d="M367.401 237.187C365.504 244.356 360.587 247.285 359.062 247.924C357.586 248.543 357.629 248.035 359.053 248.412L379.011 173.008C349.917 165.308 303.457 173.935 291.998 217.23L367.401 237.187ZM359.053 248.412C360.477 248.789 360.263 249.252 359.287 247.984C358.278 246.673 355.454 241.696 357.351 234.527L432.755 254.485C444.214 211.19 408.105 180.709 379.011 173.008L359.053 248.412ZM357.351 234.527C359.249 227.359 364.165 224.43 365.69 223.79C367.166 223.171 367.123 223.68 365.699 223.303L345.741 298.706C374.835 306.407 421.295 297.78 432.755 254.485L357.351 234.527ZM365.699 223.303C364.275 222.926 364.489 222.463 365.465 223.731C366.474 225.041 369.298 230.019 367.401 237.187L291.998 217.23C280.538 260.525 316.647 291.006 345.741 298.706L365.699 223.303Z" fill="#D16485" mask="url(#path-5-inside-2_36_11)"/>
<path d="M367.401 237.187C365.504 244.356 360.587 247.285 359.062 247.924C357.586 248.543 357.629 248.035 359.053 248.412L379.011 173.008C349.917 165.308 303.457 173.935 291.998 217.23L367.401 237.187ZM359.053 248.412C360.477 248.789 360.263 249.252 359.287 247.984C358.278 246.673 355.454 241.696 357.351 234.527L432.755 254.485C444.214 211.19 408.105 180.709 379.011 173.008L359.053 248.412ZM357.351 234.527C359.249 227.359 364.165 224.43 365.69 223.79C367.166 223.171 367.123 223.68 365.699 223.303L345.741 298.706C374.835 306.407 421.295 297.78 432.755 254.485L357.351 234.527ZM365.699 223.303C364.275 222.926 364.489 222.463 365.465 223.731C366.474 225.041 369.298 230.019 367.401 237.187L291.998 217.23C280.538 260.525 316.647 291.006 345.741 298.706L365.699 223.303Z" fill="#D16485" mask="url(#path-5-inside-2_36_11)"/>
<path d="M128.655 321.878C130.934 313.268 143.366 306.104 159.43 310.356C175.494 314.607 182.754 326.983 180.475 335.594C178.196 344.204 165.764 351.368 149.7 347.116C133.636 342.864 126.376 330.488 128.655 321.878Z" stroke="#D16485" stroke-width="14"/>
<path d="M128.655 321.878C130.934 313.268 143.366 306.104 159.43 310.356C175.494 314.607 182.754 326.983 180.475 335.594C178.196 344.204 165.764 351.368 149.7 347.116C133.636 342.864 126.376 330.488 128.655 321.878Z" stroke="#D16485" stroke-width="14"/>
<mask id="path-8-inside-3_36_11" fill="white">
<ellipse cx="274.266" cy="230.158" rx="18.5081" ry="17.0925" transform="rotate(-165.175 274.266 230.158)"/>
</mask>
<path d="M280.541 231.819C279.81 234.582 277.985 236.383 276.404 237.22C274.863 238.035 273.364 238.099 272.242 237.802L285.036 189.466C263.653 183.807 238.624 194.777 232.206 219.025L280.541 231.819ZM272.242 237.802C271.121 237.505 269.849 236.708 268.914 235.237C267.954 233.728 267.258 231.26 267.99 228.497L316.326 241.29C322.743 217.042 306.418 195.126 285.036 189.466L272.242 237.802ZM267.99 228.497C268.721 225.733 270.546 223.933 272.127 223.096C273.668 222.28 275.167 222.216 276.289 222.513L263.496 270.849C284.878 276.508 309.908 265.538 316.326 241.29L267.99 228.497ZM276.289 222.513C277.411 222.81 278.682 223.607 279.618 225.078C280.578 226.588 281.273 229.055 280.541 231.819L232.206 219.025C225.788 243.273 242.113 265.189 263.496 270.849L276.289 222.513Z" fill="#D16485" mask="url(#path-8-inside-3_36_11)"/>
<path d="M280.541 231.819C279.81 234.582 277.985 236.383 276.404 237.22C274.863 238.035 273.364 238.099 272.242 237.802L285.036 189.466C263.653 183.807 238.624 194.777 232.206 219.025L280.541 231.819ZM272.242 237.802C271.121 237.505 269.849 236.708 268.914 235.237C267.954 233.728 267.258 231.26 267.99 228.497L316.326 241.29C322.743 217.042 306.418 195.126 285.036 189.466L272.242 237.802ZM267.99 228.497C268.721 225.733 270.546 223.933 272.127 223.096C273.668 222.28 275.167 222.216 276.289 222.513L263.496 270.849C284.878 276.508 309.908 265.538 316.326 241.29L267.99 228.497ZM276.289 222.513C277.411 222.81 278.682 223.607 279.618 225.078C280.578 226.588 281.273 229.055 280.541 231.819L232.206 219.025C225.788 243.273 242.113 265.189 263.496 270.849L276.289 222.513Z" fill="#D16485" mask="url(#path-8-inside-3_36_11)"/>
<mask id="path-10-inside-4_36_11" fill="white">
<ellipse cx="74.0888" cy="233.55" rx="18.5081" ry="17.0925" transform="rotate(-165.175 74.0888 233.55)"/>
</mask>
<path d="M80.3646 235.211C79.6331 237.975 77.8083 239.775 76.2271 240.612C74.6863 241.428 73.1871 241.491 72.0655 241.195L84.8589 192.859C63.4766 187.199 38.4469 198.17 32.029 222.418L80.3646 235.211ZM72.0655 241.195C70.944 240.898 69.6724 240.101 68.7369 238.63C67.7768 237.12 67.0815 234.653 67.813 231.889L116.149 244.683C122.567 220.435 106.241 198.518 84.8589 192.859L72.0655 241.195ZM67.813 231.889C68.5445 229.125 70.3693 227.325 71.9505 226.488C73.4913 225.672 74.9906 225.609 76.1121 225.906L63.3187 274.241C84.701 279.901 109.731 268.93 116.149 244.683L67.813 231.889ZM76.1121 225.906C77.2336 226.203 78.5053 226.999 79.4408 228.471C80.4008 229.98 81.0961 232.448 80.3646 235.211L32.029 222.418C25.6111 246.666 41.9364 268.582 63.3187 274.241L76.1121 225.906Z" fill="#D16485" mask="url(#path-10-inside-4_36_11)"/>
<path d="M80.3646 235.211C79.6331 237.975 77.8083 239.775 76.2271 240.612C74.6863 241.428 73.1871 241.491 72.0655 241.195L84.8589 192.859C63.4766 187.199 38.4469 198.17 32.029 222.418L80.3646 235.211ZM72.0655 241.195C70.944 240.898 69.6724 240.101 68.7369 238.63C67.7768 237.12 67.0815 234.653 67.813 231.889L116.149 244.683C122.567 220.435 106.241 198.518 84.8589 192.859L72.0655 241.195ZM67.813 231.889C68.5445 229.125 70.3693 227.325 71.9505 226.488C73.4913 225.672 74.9906 225.609 76.1121 225.906L63.3187 274.241C84.701 279.901 109.731 268.93 116.149 244.683L67.813 231.889ZM76.1121 225.906C77.2336 226.203 78.5053 226.999 79.4408 228.471C80.4008 229.98 81.0961 232.448 80.3646 235.211L32.029 222.418C25.6111 246.666 41.9364 268.582 63.3187 274.241L76.1121 225.906Z" fill="#D16485" mask="url(#path-10-inside-4_36_11)"/>
<path d="M391.348 187.132C393.043 180.728 400.301 176.475 408.112 178.542C415.923 180.61 420.127 187.896 418.432 194.3C416.737 200.704 409.479 204.957 401.668 202.889C393.857 200.822 389.653 193.535 391.348 187.132Z" stroke="#D16485" stroke-width="9"/>
<path d="M391.348 187.132C393.043 180.728 400.301 176.475 408.112 178.542C415.923 180.61 420.127 187.896 418.432 194.3C416.737 200.704 409.479 204.957 401.668 202.889C393.857 200.822 389.653 193.535 391.348 187.132Z" stroke="#D16485" stroke-width="9"/>
<path d="M303.065 344.139C304.108 340.2 309.403 336.834 316.183 338.628C322.963 340.422 325.899 345.968 324.857 349.907C323.814 353.847 318.519 357.213 311.739 355.419C304.959 353.624 302.022 348.079 303.065 344.139Z" stroke="#D16485" stroke-width="9"/>
<path d="M303.065 344.139C304.108 340.2 309.403 336.834 316.183 338.628C322.963 340.422 325.899 345.968 324.857 349.907C323.814 353.847 318.519 357.213 311.739 355.419C304.959 353.624 302.022 348.079 303.065 344.139Z" stroke="#D16485" stroke-width="9"/>
<path d="M204.673 273.738C205.716 269.799 211.011 266.432 217.791 268.227C224.571 270.021 227.507 275.567 226.464 279.506C225.422 283.445 220.126 286.812 213.347 285.018C206.567 283.223 203.63 277.678 204.673 273.738Z" stroke="#D16485" stroke-width="9"/>
<path d="M204.673 273.738C205.716 269.799 211.011 266.432 217.791 268.227C224.571 270.021 227.507 275.567 226.464 279.506C225.422 283.445 220.126 286.812 213.347 285.018C206.567 283.223 203.63 277.678 204.673 273.738Z" stroke="#D16485" stroke-width="9"/>
<path d="M206.369 165.168C207.412 161.228 212.707 157.862 219.487 159.656C226.267 161.451 229.203 166.996 228.161 170.936C227.118 174.875 221.823 178.242 215.043 176.447C208.263 174.653 205.326 169.107 206.369 165.168Z" stroke="#D16485" stroke-width="9"/>
<path d="M206.369 165.168C207.412 161.228 212.707 157.862 219.487 159.656C226.267 161.451 229.203 166.996 228.161 170.936C227.118 174.875 221.823 178.242 215.043 176.447C208.263 174.653 205.326 169.107 206.369 165.168Z" stroke="#D16485" stroke-width="9"/>
<mask id="path-16-inside-5_36_11" fill="white">
<ellipse cx="225.07" cy="372.657" rx="18.5081" ry="17.0925" transform="rotate(-165.175 225.07 372.657)"/>
</mask>
<path d="M231.346 374.318C230.614 377.081 228.789 378.882 227.208 379.719C225.667 380.534 224.168 380.598 223.046 380.301L235.84 331.965C214.458 326.306 189.428 337.276 183.01 361.524L231.346 374.318ZM223.046 380.301C221.925 380.004 220.653 379.207 219.718 377.736C218.758 376.227 218.062 373.759 218.794 370.996L267.13 383.789C273.547 359.541 257.222 337.625 235.84 331.965L223.046 380.301ZM218.794 370.996C219.525 368.232 221.35 366.432 222.931 365.595C224.472 364.779 225.972 364.715 227.093 365.012L214.3 413.348C235.682 419.007 260.712 408.037 267.13 383.789L218.794 370.996ZM227.093 365.012C228.215 365.309 229.486 366.106 230.422 367.577C231.382 369.087 232.077 371.554 231.346 374.318L183.01 361.524C176.592 385.772 192.917 407.689 214.3 413.348L227.093 365.012Z" fill="#D16485" mask="url(#path-16-inside-5_36_11)"/>
<path d="M231.346 374.318C230.614 377.081 228.789 378.882 227.208 379.719C225.667 380.534 224.168 380.598 223.046 380.301L235.84 331.965C214.458 326.306 189.428 337.276 183.01 361.524L231.346 374.318ZM223.046 380.301C221.925 380.004 220.653 379.207 219.718 377.736C218.758 376.227 218.062 373.759 218.794 370.996L267.13 383.789C273.547 359.541 257.222 337.625 235.84 331.965L223.046 380.301ZM218.794 370.996C219.525 368.232 221.35 366.432 222.931 365.595C224.472 364.779 225.972 364.715 227.093 365.012L214.3 413.348C235.682 419.007 260.712 408.037 267.13 383.789L218.794 370.996ZM227.093 365.012C228.215 365.309 229.486 366.106 230.422 367.577C231.382 369.087 232.077 371.554 231.346 374.318L183.01 361.524C176.592 385.772 192.917 407.689 214.3 413.348L227.093 365.012Z" fill="#D16485" mask="url(#path-16-inside-5_36_11)"/>
</svg>
