<svg width="1039" height="971" viewBox="0 0 1039 971" fill="none" xmlns="http://www.w3.org/2000/svg">
<ellipse cx="519.5" cy="485.5" rx="519.5" ry="485.5" fill="#F27298"/>
<path d="M762.827 489.636C763.631 494.212 761.72 503.542 747.744 515.181C734.357 526.329 713.277 536.249 687.539 540.77C661.801 545.291 638.602 543.15 622.217 537.232C605.111 531.054 600.135 522.934 599.331 518.358C598.527 513.781 600.438 504.451 614.414 492.813C627.801 481.664 648.881 471.745 674.619 467.223C700.357 462.702 723.556 464.843 739.941 470.761C757.047 476.939 762.023 485.059 762.827 489.636Z" stroke="#D16485" stroke-width="48"/>
<path d="M762.827 489.636C763.631 494.212 761.72 503.542 747.744 515.181C734.357 526.329 713.277 536.249 687.539 540.77C661.801 545.291 638.602 543.15 622.217 537.232C605.111 531.054 600.135 522.934 599.331 518.358C598.527 513.781 600.438 504.451 614.414 492.813C627.801 481.664 648.881 471.745 674.619 467.223C700.357 462.702 723.556 464.843 739.941 470.761C757.047 476.939 762.023 485.059 762.827 489.636Z" stroke="#D16485" stroke-width="48"/>
<path d="M420.074 604.574C421.897 614.951 416.52 628.04 401.023 640.946C385.833 653.596 362.798 664.22 335.449 669.025C308.099 673.829 282.823 671.692 264.23 664.977C245.262 658.126 235.747 647.653 233.924 637.276C232.101 626.898 237.477 613.809 252.974 600.904C268.165 588.254 291.199 577.629 318.549 572.825C345.899 568.02 371.175 570.158 389.767 576.873C408.735 583.724 418.251 594.197 420.074 604.574Z" stroke="#D16485" stroke-width="25"/>
<path d="M420.074 604.574C421.897 614.951 416.52 628.04 401.023 640.946C385.833 653.596 362.798 664.22 335.449 669.025C308.099 673.829 282.823 671.692 264.23 664.977C245.262 658.126 235.747 647.653 233.924 637.276C232.101 626.898 237.477 613.809 252.974 600.904C268.165 588.254 291.199 577.629 318.549 572.825C345.899 568.02 371.175 570.158 389.767 576.873C408.735 583.724 418.251 594.197 420.074 604.574Z" stroke="#D16485" stroke-width="25"/>
<path d="M244.942 431.092C240.166 449.136 213.068 465.933 176.039 456.132C139.009 446.331 123.769 418.328 128.545 400.284C133.321 382.24 160.418 365.443 197.448 375.244C234.477 385.045 249.717 413.048 244.942 431.092Z" stroke="#D16485" stroke-width="39"/>
<path d="M244.942 431.092C240.166 449.136 213.068 465.933 176.039 456.132C139.009 446.331 123.769 418.328 128.545 400.284C133.321 382.24 160.418 365.443 197.448 375.244C234.477 385.045 249.717 413.048 244.942 431.092Z" stroke="#D16485" stroke-width="39"/>
<path d="M747.025 215.29C739.755 242.76 703.411 259.954 662.84 249.216C622.27 238.478 599.191 205.555 606.461 178.086C613.732 150.616 650.076 133.422 690.646 144.16C731.216 154.898 754.296 187.821 747.025 215.29Z" stroke="#D16485" stroke-width="14"/>
<path d="M747.025 215.29C739.755 242.76 703.411 259.954 662.84 249.216C622.27 238.478 599.191 205.555 606.461 178.086C613.732 150.616 650.076 133.422 690.646 144.16C731.216 154.898 754.296 187.821 747.025 215.29Z" stroke="#D16485" stroke-width="14"/>
<path d="M424.604 437.095C420.91 451.051 404.935 460.649 387.386 456.004C369.837 451.359 360.702 435.116 364.396 421.159C368.09 407.203 384.064 397.605 401.614 402.25C419.163 406.895 428.298 423.139 424.604 437.095Z" stroke="#D16485" stroke-width="25"/>
<path d="M424.604 437.095C420.91 451.051 404.935 460.649 387.386 456.004C369.837 451.359 360.702 435.116 364.396 421.159C368.09 407.203 384.064 397.605 401.614 402.25C419.163 406.895 428.298 423.139 424.604 437.095Z" stroke="#D16485" stroke-width="25"/>
<path d="M896.604 429.095C892.91 443.051 876.935 452.649 859.386 448.004C841.837 443.359 832.702 427.116 836.396 413.159C840.09 399.203 856.064 389.605 873.614 394.25C891.163 398.895 900.298 415.139 896.604 429.095Z" stroke="#D16485" stroke-width="25"/>
<path d="M896.604 429.095C892.91 443.051 876.935 452.649 859.386 448.004C841.837 443.359 832.702 427.116 836.396 413.159C840.09 399.203 856.064 389.605 873.614 394.25C891.163 398.895 900.298 415.139 896.604 429.095Z" stroke="#D16485" stroke-width="25"/>
<path d="M124.337 532.142C119.363 550.937 98.5686 562.357 77.339 556.738C56.1095 551.119 43.6873 530.908 48.6621 512.112C53.6369 493.317 74.4309 481.897 95.6604 487.516C116.89 493.135 129.312 513.346 124.337 532.142Z" stroke="#D16485" stroke-width="9"/>
<path d="M124.337 532.142C119.363 550.937 98.5686 562.357 77.339 556.738C56.1095 551.119 43.6873 530.908 48.6621 512.112C53.6369 493.317 74.4309 481.897 95.6604 487.516C116.89 493.135 129.312 513.346 124.337 532.142Z" stroke="#D16485" stroke-width="9"/>
<path d="M332.501 161.931C328.929 175.429 312.314 184.091 294.1 179.27C275.886 174.45 265.732 158.702 269.305 145.204C272.877 131.706 289.492 123.044 307.706 127.865C325.919 132.686 336.074 148.433 332.501 161.931Z" stroke="#D16485" stroke-width="9"/>
<path d="M332.501 161.931C328.929 175.429 312.314 184.091 294.1 179.27C275.886 174.45 265.732 158.702 269.305 145.204C272.877 131.706 289.492 123.044 307.706 127.865C325.919 132.686 336.074 148.433 332.501 161.931Z" stroke="#D16485" stroke-width="9"/>
<path d="M564.501 327.931C560.929 341.429 544.314 350.091 526.1 345.27C507.886 340.45 497.732 324.702 501.305 311.204C504.877 297.706 521.492 289.044 539.706 293.865C557.919 298.686 568.074 314.433 564.501 327.931Z" stroke="#D16485" stroke-width="9"/>
<path d="M564.501 327.931C560.929 341.429 544.314 350.091 526.1 345.27C507.886 340.45 497.732 324.702 501.305 311.204C504.877 297.706 521.492 289.044 539.706 293.865C557.919 298.686 568.074 314.433 564.501 327.931Z" stroke="#D16485" stroke-width="9"/>
<path d="M560.501 583.931C556.929 597.429 540.314 606.091 522.1 601.27C503.886 596.45 493.732 580.702 497.305 567.204C500.877 553.706 517.492 545.044 535.706 549.865C553.919 554.686 564.074 570.433 560.501 583.931Z" stroke="#D16485" stroke-width="9"/>
<path d="M560.501 583.931C556.929 597.429 540.314 606.091 522.1 601.27C503.886 596.45 493.732 580.702 497.305 567.204C500.877 553.706 517.492 545.044 535.706 549.865C553.919 554.686 564.074 570.433 560.501 583.931Z" stroke="#D16485" stroke-width="9"/>
<path d="M540.604 101.095C536.91 115.051 520.935 124.649 503.386 120.004C485.837 115.359 476.702 99.1157 480.396 85.1593C484.09 71.2029 500.064 61.6052 517.614 66.2501C535.163 70.895 544.298 87.1386 540.604 101.095Z" stroke="#D16485" stroke-width="25"/>
<path d="M540.604 101.095C536.91 115.051 520.935 124.649 503.386 120.004C485.837 115.359 476.702 99.1157 480.396 85.1593C484.09 71.2029 500.064 61.6052 517.614 66.2501C535.163 70.895 544.298 87.1386 540.604 101.095Z" stroke="#D16485" stroke-width="25"/>
</svg>
