<svg width="134" height="134" viewBox="0 0 134 134" fill="none" xmlns="http://www.w3.org/2000/svg">
<path d="M75.3267 28.2175C77.5826 24.8748 82.807 26.5927 82.6388 30.6219L81.853 49.4471C81.7627 51.6102 83.4098 53.4525 85.5695 53.6041L104.365 54.9231C108.388 55.2054 109.512 60.5888 105.939 62.4578L89.2427 71.1898C87.3242 72.1932 86.5523 74.5408 87.5008 76.4869L95.7563 93.4237C97.5232 97.0487 93.4232 100.714 90.0179 98.5539L74.1077 88.4608C72.2796 87.3011 69.8605 87.8064 68.6494 89.6009L58.1095 105.219C55.8536 108.561 50.6292 106.843 50.7973 102.814L51.5831 83.9891C51.6734 81.826 50.0263 79.9836 47.8666 79.8321L29.0713 78.5131C25.0485 78.2308 23.924 72.8474 27.4975 70.9784L44.1935 62.2464C46.1119 61.243 46.8839 58.8954 45.9353 56.9493L37.6799 40.0125C35.913 36.3875 40.0129 32.722 43.4182 34.8823L59.3284 44.9754C61.1566 46.1351 63.5756 45.6298 64.7867 43.8353L75.3267 28.2175Z" fill="#EE452E"/>
<path d="M75.3267 28.2175C77.5826 24.8748 82.807 26.5927 82.6388 30.6219L81.853 49.4471C81.7627 51.6102 83.4098 53.4525 85.5695 53.6041L104.365 54.9231C108.388 55.2054 109.512 60.5888 105.939 62.4578L89.2427 71.1898C87.3242 72.1932 86.5523 74.5408 87.5008 76.4869L95.7563 93.4237C97.5232 97.0487 93.4232 100.714 90.0179 98.5539L74.1077 88.4608C72.2796 87.3011 69.8605 87.8064 68.6494 89.6009L58.1095 105.219C55.8536 108.561 50.6292 106.843 50.7973 102.814L51.5831 83.9891C51.6734 81.826 50.0263 79.9836 47.8666 79.8321L29.0713 78.5131C25.0485 78.2308 23.924 72.8474 27.4975 70.9784L44.1935 62.2464C46.1119 61.243 46.8839 58.8954 45.9353 56.9493L37.6799 40.0125C35.913 36.3875 40.0129 32.722 43.4182 34.8823L59.3284 44.9754C61.1566 46.1351 63.5756 45.6298 64.7867 43.8353L75.3267 28.2175Z" stroke="white"/>
<ellipse cx="61" cy="59" rx="4" ry="7" fill="white"/>
<ellipse cx="73" cy="59" rx="4" ry="7" fill="white"/>
<circle cx="62" cy="60" r="2" fill="black"/>
<circle cx="62" cy="60" r="2" fill="black"/>
<circle cx="62" cy="60" r="2" fill="black"/>
<circle cx="72" cy="57" r="1" fill="black"/>
<circle cx="72" cy="57" r="1" fill="black"/>
<circle cx="72" cy="57" r="1" fill="black"/>
</svg>
