<svg width="108" height="148" viewBox="0 0 108 148" fill="none" xmlns="http://www.w3.org/2000/svg">
<path d="M50.0326 2C46.1293 2 41.3108 4.55519 37.9543 6.30155C32.704 9.03327 26.6477 12.3388 22.3881 16.2788C18.1333 20.2143 12.5875 25.0674 9.79299 29.9601C6.76223 35.2664 1.72968 47.6539 7.30627 52.8121C11.8209 56.988 16.9029 62.4109 23.8736 62.7594C35.7961 63.3555 50.1246 66.4842 61.3682 61.1165C68.6234 57.6528 77.7115 53.7259 77.3543 45.135C77.2326 42.2082 70.3562 41.127 68.0533 40.5945C63.4859 39.5383 58.8127 39.6386 54.1341 39.6386C50.1548 39.6386 46.3971 39.8031 42.4756 40.2061C37.3798 40.7299 33.5201 44.1302 29.1054 46.2104C25.2989 48.0041 22.1236 50.9338 18.5127 53.0809C12.668 56.5563 8.26202 61.2676 4.72267 66.7921C-0.110235 74.3357 1.94953 86.0098 7.30627 92.8703C10.7398 97.2677 16.47 100.355 21.8713 102.25C30.5038 105.279 41.2358 107.821 50.4848 107.926C60.3109 108.037 69.822 108.267 79.0982 104.819C89.3897 100.994 99.4158 97.1991 105.548 88.0609C107.328 85.4084 103.432 80.0986 101.156 78.6513C97.0295 76.0273 90.7007 77.4807 85.9447 76.62C70.4383 73.8137 54.13 78.4736 39.9243 83.7295C35.7024 85.2915 31.1047 86.3436 27.3938 88.8675C24.0281 91.1566 20.9459 94.0752 17.8022 96.6341C11.6402 101.65 8.37999 108.166 7.46775 115.573C6.93201 119.923 6.94802 124.28 7.01561 128.657C7.04339 130.455 7.46775 132.603 8.75955 133.735C13.481 137.872 23.244 144.543 29.1054 144.543C42.4756 146 52.5194 146 65.3191 146C76.6559 146 92.5776 138.182 103.513 134.81" stroke="#FB9519" stroke-width="4" stroke-linecap="round"/>
</svg>
