<svg width="174" height="145" viewBox="0 0 174 145" fill="none" xmlns="http://www.w3.org/2000/svg">
<ellipse cx="10.5478" cy="10.6283" rx="10.5478" ry="10.6283" transform="matrix(0.92356 0.383455 -0.376504 0.926415 8.00317 0)" fill="#FFDF03"/>
<ellipse cx="10.5478" cy="10.6283" rx="10.5478" ry="10.6283" transform="matrix(0.92356 0.383455 -0.376504 0.926415 8.00317 0)" fill="#FFDF03"/>
<ellipse cx="6.3287" cy="6.37699" rx="6.3287" ry="6.37699" transform="matrix(0.92356 0.383455 -0.376504 0.926415 83.8016 24)" fill="#FFDF03"/>
<ellipse cx="4.21913" cy="4.25133" rx="4.21913" ry="4.25133" transform="matrix(0.92356 0.383455 -0.376504 0.926415 38.2009 58)" fill="#FFDF03"/>
<path d="M109.006 26.0471C109.136 24.8594 110.863 24.8594 110.994 26.0471L116.248 73.8671C116.299 74.3329 116.667 74.7007 117.133 74.7519L164.953 80.006C166.14 80.1365 166.14 81.8635 164.953 81.994L117.133 87.2481C116.667 87.2993 116.299 87.6671 116.248 88.1329L110.994 135.953C110.863 137.141 109.136 137.141 109.006 135.953L103.752 88.1329C103.7 87.6671 103.333 87.2993 102.867 87.2481L55.0468 81.994C53.8591 81.8635 53.8591 80.1365 55.0468 80.006L102.867 74.7519C103.333 74.7007 103.7 74.3329 103.752 73.8671L109.006 26.0471Z" fill="#FFDF03"/>
</svg>
