<svg width="568" height="1025" viewBox="0 0 568 1025" fill="none" xmlns="http://www.w3.org/2000/svg">
<path d="M303.878 676.5L158.378 816.5C158.378 819.3 216.378 860.667 245.378 881L411.878 787.5L303.878 676.5Z" fill="#3D52FC" stroke="white" stroke-width="4"/>
<path d="M219.878 576.5L52.3779 680C52.3779 691.6 112.045 766.833 141.878 803L157.378 816.5C206.045 769.833 303.278 676.4 302.878 676C297.678 671.2 245.378 607.667 219.878 576.5Z" fill="#EE452E" stroke="white"/>
<path d="M499.878 882L338.378 990.5L340.378 1022H552.378C549.978 970.4 516.378 907.167 499.878 882Z" fill="#F781CB" stroke="white"/>
<path d="M563.878 2.5H395.878L347.378 63C399.878 89 504.878 140.9 504.878 140.5C545.678 86.1 561.211 25.8333 563.878 2.5Z" fill="#FD338B" stroke="white" stroke-width="2.47"/>
<path d="M501.878 140L347.878 63L221.878 193L387.378 278.5C429.378 246.9 481.211 173 501.878 140Z" fill="#03B1C9" stroke="white" stroke-width="2.47"/>
<path d="M386.378 279L221.878 193C201.078 206.2 139.878 260.833 111.878 286.5L256.378 396.5L386.378 279Z" fill="#FAF573" stroke="white" stroke-width="2.47"/>
<path d="M111.378 287L256.378 397.5C215.878 448.5 216.045 476.5 209.378 493C147.545 469.5 17.6784 430.2 18.8784 431C40.3784 358.5 92.3785 308.333 111.378 287Z" fill="#F680CC" stroke="white" stroke-width="2.47"/>
<path d="M220.378 575C206.378 548.6 207.711 509.5 210.378 493.5L115.878 461.5L19.8776 432C-6.62216 491.5 4.87764 572.333 14.8776 611L51.8779 679.5C108.378 644.833 220.378 575.8 220.378 575Z" fill="#FED9D0" stroke="white"/>
<path d="M411.878 788L245.878 881C281.878 903.5 317.378 943 316.378 943C324.378 951 334.378 977.667 338.378 990C392.545 953.667 500.778 881 500.378 881C494.378 864.6 438.878 812.167 411.878 788Z" fill="#F7B942" stroke="white" stroke-width="4"/>
<path d="M394.378 2.5L565.878 2C553.877 79 470.376 193 465.876 196.5C420.875 257.5 264.876 389.5 258.376 396C182.875 484.5 216.878 569 221.877 577C256.057 631.699 406.741 786.256 446.378 819C492.378 857 521.651 918.137 522.378 920C530.379 940.5 552.878 989 552.878 1023.5H339.377V1015C339.377 912 231.375 889 139.876 801.5C63.3755 713 16.055 616 13.8769 608.5C-39.1231 426 98.8779 289.5 159.877 241C240.376 183.5 350.378 61.5 394.378 2.5Z" stroke="white" stroke-width="2.47"/>
</svg>
