<svg width="551" height="739" viewBox="0 0 551 739" fill="none" xmlns="http://www.w3.org/2000/svg">
<path d="M472.5 337L349.5 420C365.5 436.5 379.003 464.662 382.5 480.5C436.081 472.787 538.141 462.526 531 455.5C530.753 425.635 491 363 472.5 337Z" fill="#F058A3"/>
<path d="M532 454L381.5 479C390.936 491.552 402.543 575.423 386.5 632.5C442.652 610.595 548.5 574.4 548.5 568C548.5 510.923 540.33 492.874 532 454Z" fill="#F68636"/>
<path d="M527.227 736.268L357.538 735.652L377 685.5L389 628C446.694 603.729 548 567 548 567C557 633 532.472 711.586 527.227 736.268Z" fill="#028367"/>
<path d="M374 248C359.5 296 331.167 359.333 313 389.5C326.6 397.1 343.5 413 350 420.5L472.5 339C413 266 374.5 248 374 248Z" fill="#03B1C9"/>
<path d="M374 247C620 407.5 537.683 695.736 528.12 737.5L356.907 736.881C375.417 707.182 450 471.5 313 390" stroke="white" stroke-width="2.4682"/>
<path d="M43.2722 106.718C70.0943 6.77381 169.782 -1.34442 219.212 0.147007V323.255C173.034 387.492 81.613 325.126 80.3122 324.487C65.6239 300.538 47.1157 228.695 46.4653 227.416C67.6034 240.839 83.6031 234.408 85.5543 235.047C141.164 208.201 113.522 153.551 114.172 153.551C92.3836 89.9523 43.2722 106.079 43.2722 106.718Z" fill="#E558B3"/>
<path d="M389.405 107.995C368.652 20.5548 265.061 -1.3472 219.212 0.144226V323.252C262.045 387.49 343.431 326.08 347.575 323.252C360.244 299.282 378.583 233.162 379.187 231.884C359.58 245.307 344.994 234.405 343.185 235.044C291.605 208.199 317.244 153.548 316.641 153.548C336.85 89.9495 389.405 107.356 389.405 107.995Z" fill="#F680CC"/>
<ellipse cx="362.902" cy="170.899" rx="51.71" ry="70.0533" transform="rotate(15.2681 362.902 170.899)" fill="#D0CA48"/>
<ellipse cx="364.438" cy="182.318" rx="44.6094" ry="58.245" transform="rotate(15.2681 364.438 182.318)" fill="#FAF573"/>
<ellipse cx="68.3683" cy="169.874" rx="51.71" ry="70.0533" transform="rotate(-15.3063 68.3683 169.874)" fill="#D0CA48"/>
<ellipse cx="75.4984" cy="178.924" rx="44.6094" ry="58.245" transform="rotate(-15.3063 75.4984 178.924)" fill="#FAF573"/>
<path d="M219.212 323.21C183.194 374.811 111.924 345.891 80.6315 324.817C103.366 394.81 181.853 452.859 219.531 465.313C219.531 417.949 219.212 322.955 219.212 323.21Z" fill="#D0CA48"/>
<path d="M219.212 323.211C255.23 374.811 316.283 344.292 347.575 323.218C324.84 393.21 259.765 455.412 219.532 465.63C219.532 418.266 219.212 322.955 219.212 323.211Z" fill="#FAF573"/>
<circle cx="201.331" cy="399.845" r="8.30207" fill="#020202"/>
<circle cx="237.732" cy="399.845" r="8.30207" fill="#020202"/>
</svg>
