<svg width="579" height="894" viewBox="0 0 579 894" fill="none" xmlns="http://www.w3.org/2000/svg">
<path d="M577.304 2H363.804C366.304 164 204.282 331.5 204.282 336C9.8042 516.5 -0.217766 648 2.28223 652.5C-1.71777 916.5 344.782 894 351.282 889.5C474.282 869.5 494.282 747 492.282 738C487.782 812.5 348.304 803 326.804 800.5C175.804 787.5 178.782 663 204.282 617C230.782 559.5 340.282 452.5 338.282 450C524.782 290.5 570.304 106.833 577.304 2Z" stroke="white" stroke-width="2.47"/>
<path d="M576.804 2H365.304C365.304 47.6 351.638 93 344.804 110C409.471 131.167 538.804 173.3 538.804 172.5C572.404 92.5 578.138 25.5 576.804 2Z" fill="#03B1C9" stroke="white" stroke-width="2.47"/>
<path d="M538.304 173L345.804 110C334.204 152 287.638 226.5 265.804 258.5C332.304 275.167 465.504 308.6 466.304 309C495.104 274.6 526.304 204 538.304 173Z" fill="#FAF573" stroke="white" stroke-width="2.47"/>
<path d="M264.804 259L465.304 309C439.655 345.642 378.386 424.894 338.384 448.952C338.378 448.984 338.352 449 338.304 449C338.331 448.984 338.358 448.968 338.384 448.952C338.793 446.826 248.951 374.788 203.304 338.5L264.804 259Z" fill="#F781CB"/>
<path d="M264.804 259L465.304 309C439.638 345.667 378.304 425 338.304 449C341.504 449 249.638 375.333 203.304 338.5L264.804 259Z" stroke="white" stroke-width="2.47"/>
<path d="M338.304 449L203.304 338.5C176.804 359 112.804 427 81.8042 474C138.804 497.333 252.904 544 253.304 544C261.704 532 313.471 475.667 338.304 449Z" fill="#F7BA04" stroke="white" stroke-width="2.47"/>
<path d="M254.304 545L81.8042 475C31.0042 533 7.63753 616.833 2.3042 651.5C65.3042 667 191.504 698.1 192.304 698.5C173.104 650.9 225.638 576.333 254.304 545Z" fill="#066D80" stroke="white" stroke-width="2.47"/>
<path d="M295.304 892L279.304 791.5C457.49 827.04 489.198 753.076 490.281 749.622C490.289 749.581 490.297 749.541 490.304 749.5C490.317 749.487 490.31 749.529 490.281 749.622C465.432 881.106 349.288 890.5 295.304 892Z" fill="#3D52FC"/>
<path d="M279.304 791.5L295.304 892C349.304 890.5 465.504 881.1 490.304 749.5C490.804 749 462.304 828 279.304 791.5Z" stroke="white" stroke-width="2.47"/>
<path d="M190.304 699.5L4.30414 653C-0.495857 857.4 195.971 897.5 294.804 892C289.637 858.833 279.204 792.3 278.804 791.5C228.404 775.5 198.804 723.5 190.304 699.5Z" fill="#FD338B" stroke="white" stroke-width="2.47"/>
</svg>
