<svg width="144" height="83" viewBox="0 0 144 83" fill="none" xmlns="http://www.w3.org/2000/svg">
<path d="M54.3551 74.9533C54.4105 75.4767 54.1467 76.2906 53.0258 77.1658C51.9317 78.02 50.244 78.7211 48.2149 78.936C46.1859 79.1509 44.3887 78.8189 43.14 78.2128C41.8606 77.5919 41.4321 76.8513 41.3767 76.328C41.3213 75.8046 41.5851 74.9907 42.706 74.1155C43.8001 73.2613 45.4878 72.5602 47.5169 72.3453C49.5459 72.1304 51.3431 72.4624 52.5918 73.0685C53.8712 73.6894 54.2997 74.43 54.3551 74.9533Z" fill="#F7B942"/>
<path d="M54.3551 74.9533C54.4105 75.4767 54.1467 76.2906 53.0258 77.1658C51.9317 78.02 50.244 78.7211 48.2149 78.936C46.1859 79.1509 44.3887 78.8189 43.14 78.2128C41.8606 77.5919 41.4321 76.8513 41.3767 76.328C41.3213 75.8046 41.5851 74.9907 42.706 74.1155C43.8001 73.2613 45.4878 72.5602 47.5169 72.3453C49.5459 72.1304 51.3431 72.4624 52.5918 73.0685C53.8712 73.6894 54.2997 74.43 54.3551 74.9533Z" fill="#F7B942"/>
<path d="M54.3551 74.9533C54.4105 75.4767 54.1467 76.2906 53.0258 77.1658C51.9317 78.02 50.244 78.7211 48.2149 78.936C46.1859 79.1509 44.3887 78.8189 43.14 78.2128C41.8606 77.5919 41.4321 76.8513 41.3767 76.328C41.3213 75.8046 41.5851 74.9907 42.706 74.1155C43.8001 73.2613 45.4878 72.5602 47.5169 72.3453C49.5459 72.1304 51.3431 72.4624 52.5918 73.0685C53.8712 73.6894 54.2997 74.43 54.3551 74.9533Z" fill="#F7B942"/>
<path d="M54.3551 74.9533C54.4105 75.4767 54.1467 76.2906 53.0258 77.1658C51.9317 78.02 50.244 78.7211 48.2149 78.936C46.1859 79.1509 44.3887 78.8189 43.14 78.2128C41.8606 77.5919 41.4321 76.8513 41.3767 76.328C41.3213 75.8046 41.5851 74.9907 42.706 74.1155C43.8001 73.2613 45.4878 72.5602 47.5169 72.3453C49.5459 72.1304 51.3431 72.4624 52.5918 73.0685C53.8712 73.6894 54.2997 74.43 54.3551 74.9533Z" stroke="black" stroke-width="4"/>
<path d="M83.7428 69.1576C83.8697 69.6683 83.7204 70.5108 82.7305 71.5319C81.7644 72.5285 80.1892 73.4552 78.209 73.9473C76.2289 74.4393 74.4031 74.3577 73.0828 73.9293C71.7302 73.4903 71.2039 72.8157 71.077 72.305C70.95 71.7943 71.0993 70.9518 72.0892 69.9307C73.0553 68.9341 74.6305 68.0074 76.6107 67.5153C78.5909 67.0232 80.4166 67.1048 81.7369 67.5333C83.0896 67.9722 83.6159 68.6468 83.7428 69.1576Z" fill="#F7B942"/>
<path d="M83.7428 69.1576C83.8697 69.6683 83.7204 70.5108 82.7305 71.5319C81.7644 72.5285 80.1892 73.4552 78.209 73.9473C76.2289 74.4393 74.4031 74.3577 73.0828 73.9293C71.7302 73.4903 71.2039 72.8157 71.077 72.305C70.95 71.7943 71.0993 70.9518 72.0892 69.9307C73.0553 68.9341 74.6305 68.0074 76.6107 67.5153C78.5909 67.0232 80.4166 67.1048 81.7369 67.5333C83.0896 67.9722 83.6159 68.6468 83.7428 69.1576Z" fill="#F7B942"/>
<path d="M83.7428 69.1576C83.8697 69.6683 83.7204 70.5108 82.7305 71.5319C81.7644 72.5285 80.1892 73.4552 78.209 73.9473C76.2289 74.4393 74.4031 74.3577 73.0828 73.9293C71.7302 73.4903 71.2039 72.8157 71.077 72.305C70.95 71.7943 71.0993 70.9518 72.0892 69.9307C73.0553 68.9341 74.6305 68.0074 76.6107 67.5153C78.5909 67.0232 80.4166 67.1048 81.7369 67.5333C83.0896 67.9722 83.6159 68.6468 83.7428 69.1576Z" fill="#F7B942"/>
<path d="M83.7428 69.1576C83.8697 69.6683 83.7204 70.5108 82.7305 71.5319C81.7644 72.5285 80.1892 73.4552 78.209 73.9473C76.2289 74.4393 74.4031 74.3577 73.0828 73.9293C71.7302 73.4903 71.2039 72.8157 71.077 72.305C70.95 71.7943 71.0993 70.9518 72.0892 69.9307C73.0553 68.9341 74.6305 68.0074 76.6107 67.5153C78.5909 67.0232 80.4166 67.1048 81.7369 67.5333C83.0896 67.9722 83.6159 68.6468 83.7428 69.1576Z" stroke="black" stroke-width="4"/>
<path d="M111.789 60.1356C111.967 60.6308 111.904 61.4841 111.023 62.6004C110.163 63.69 108.69 64.7718 106.771 65.4624C104.851 66.153 103.026 66.2572 101.669 65.965C100.279 65.6657 99.6867 65.048 99.5086 64.5528C99.3304 64.0576 99.3934 63.2043 100.275 62.088C101.134 60.9984 102.607 59.9166 104.527 59.226C106.447 58.5354 108.272 58.4312 109.629 58.7234C111.019 59.0228 111.611 59.6404 111.789 60.1356Z" fill="#F7B942"/>
<path d="M111.789 60.1356C111.967 60.6308 111.904 61.4841 111.023 62.6004C110.163 63.69 108.69 64.7718 106.771 65.4624C104.851 66.153 103.026 66.2572 101.669 65.965C100.279 65.6657 99.6867 65.048 99.5086 64.5528C99.3304 64.0576 99.3934 63.2043 100.275 62.088C101.134 60.9984 102.607 59.9166 104.527 59.226C106.447 58.5354 108.272 58.4312 109.629 58.7234C111.019 59.0228 111.611 59.6404 111.789 60.1356Z" fill="#F7B942"/>
<path d="M111.789 60.1356C111.967 60.6308 111.904 61.4841 111.023 62.6004C110.163 63.69 108.69 64.7718 106.771 65.4624C104.851 66.153 103.026 66.2572 101.669 65.965C100.279 65.6657 99.6867 65.048 99.5086 64.5528C99.3304 64.0576 99.3934 63.2043 100.275 62.088C101.134 60.9984 102.607 59.9166 104.527 59.226C106.447 58.5354 108.272 58.4312 109.629 58.7234C111.019 59.0228 111.611 59.6404 111.789 60.1356Z" fill="#F7B942"/>
<path d="M111.789 60.1356C111.967 60.6308 111.904 61.4841 111.023 62.6004C110.163 63.69 108.69 64.7718 106.771 65.4624C104.851 66.153 103.026 66.2572 101.669 65.965C100.279 65.6657 99.6867 65.048 99.5086 64.5528C99.3304 64.0576 99.3934 63.2043 100.275 62.088C101.134 60.9984 102.607 59.9166 104.527 59.226C106.447 58.5354 108.272 58.4312 109.629 58.7234C111.019 59.0228 111.611 59.6404 111.789 60.1356Z" stroke="black" stroke-width="4"/>
<path d="M38.8286 74.9585C26.3286 74.9585 12.8286 72.9585 6.82861 69.4585L5.82861 66.4585L5.32861 61.9585C9.82861 71.9585 39.9953 72.4585 55.8286 70.4585C66.3286 69.4585 95.9953 60.9585 110.329 55.9585C130.829 46.4585 137.329 37.2918 138.329 32.9585L139.329 39.9585C136.129 44.7585 122.329 52.9585 115.829 56.4585C111.829 58.4585 88.3286 66.4585 87.8286 66.4585C72.3286 72.9585 38.8286 75.4585 38.8286 74.9585Z" fill="#7D7979" stroke="black" stroke-width="4"/>
<path d="M137.158 32.0902C137.569 33.896 136.81 36.2982 134.108 39.2896C131.451 42.2308 127.221 45.381 121.639 48.5225C110.497 54.7921 94.3792 60.7992 75.9341 64.997C57.4891 69.1948 40.359 70.7546 27.6016 69.9239C21.2095 69.5077 16.033 68.4982 12.3648 66.9965C8.63416 65.4692 6.91026 63.632 6.49931 61.8263C6.08835 60.0206 6.84742 57.6183 9.5497 54.627C12.2067 51.6857 16.4366 48.5355 22.019 45.3941C33.1604 39.1244 49.2784 33.1174 67.7234 28.9195C86.1685 24.7217 103.299 23.162 116.056 23.9927C122.448 24.4089 127.625 25.4183 131.293 26.92C135.023 28.4473 136.747 30.2845 137.158 32.0902Z" fill="#AFAFAF" stroke="black" stroke-width="4"/>
<path d="M50.3287 49.4585C46.4954 53.7918 38.9287 64.1585 39.3287 70.9585" stroke="black" stroke-width="4" stroke-linecap="round"/>
<path d="M88.3283 37.4585C93.8286 39.4585 108.884 46.8511 111.875 54.245" stroke="black" stroke-width="4" stroke-linecap="round"/>
<mask id="path-8-inside-1_33_5" fill="white">
<ellipse cx="28.527" cy="65.84" rx="5.5" ry="3" transform="rotate(4.05597 28.527 65.84)"/>
</mask>
<ellipse cx="28.527" cy="65.84" rx="5.5" ry="3" transform="rotate(4.05597 28.527 65.84)" fill="#F7B942"/>
<ellipse cx="28.527" cy="65.84" rx="5.5" ry="3" transform="rotate(4.05597 28.527 65.84)" fill="#F7B942"/>
<ellipse cx="28.527" cy="65.84" rx="5.5" ry="3" transform="rotate(4.05597 28.527 65.84)" fill="#F7B942"/>
<path d="M30.0232 65.9461C30.0678 65.3173 30.3448 64.89 30.5198 64.6947C30.6732 64.5233 30.7455 64.5236 30.594 64.5928C30.2812 64.7357 29.5766 64.9119 28.5977 64.8425L28.0318 72.8225C30.0829 72.9679 32.1689 72.6687 33.9185 71.8694C35.5114 71.1416 37.7925 69.4829 38.0032 66.5119L30.0232 65.9461ZM28.5977 64.8425C27.6188 64.7731 26.9461 64.4993 26.6566 64.3136C26.5163 64.2237 26.588 64.2336 26.7157 64.4249C26.8614 64.643 27.0753 65.1051 27.0307 65.7339L19.0508 65.1681C18.8401 68.139 20.8643 70.103 22.3386 71.0482C23.9579 72.0865 25.9808 72.677 28.0318 72.8225L28.5977 64.8425ZM27.0307 65.7339C26.9861 66.3627 26.7091 66.79 26.5342 66.9853C26.3807 67.1567 26.3084 67.1564 26.4599 67.0872C26.7727 66.9443 27.4773 66.7681 28.4562 66.8375L29.0221 58.8575C26.9711 58.7121 24.885 59.0113 23.1354 59.8107C21.5425 60.5384 19.2614 62.1971 19.0508 65.1681L27.0307 65.7339ZM28.4562 66.8375C29.4352 66.9069 30.1078 67.1807 30.3974 67.3664C30.5376 67.4563 30.4659 67.4464 30.3382 67.2551C30.1926 67.037 29.9786 66.5749 30.0232 65.9461L38.0032 66.5119C38.2138 63.541 36.1896 61.577 34.7153 60.6318C33.096 59.5935 31.0731 59.003 29.0221 58.8575L28.4562 66.8375Z" fill="black" mask="url(#path-8-inside-1_33_5)"/>
<mask id="path-10-inside-2_33_5" fill="white">
<ellipse cx="50.6339" cy="65.0641" rx="5.5" ry="3" transform="rotate(-6.52462 50.6339 65.0641)"/>
</mask>
<ellipse cx="50.6339" cy="65.0641" rx="5.5" ry="3" transform="rotate(-6.52462 50.6339 65.0641)" fill="#F7B942"/>
<ellipse cx="50.6339" cy="65.0641" rx="5.5" ry="3" transform="rotate(-6.52462 50.6339 65.0641)" fill="#F7B942"/>
<ellipse cx="50.6339" cy="65.0641" rx="5.5" ry="3" transform="rotate(-6.52462 50.6339 65.0641)" fill="#F7B942"/>
<path d="M52.1242 64.8937C52.0525 64.2673 52.2464 63.7965 52.3825 63.5723C52.5019 63.3757 52.573 63.3627 52.4368 63.4586C52.1555 63.6565 51.4953 63.9591 50.5203 64.0706L51.4293 72.0188C53.4721 71.7851 55.4678 71.108 57.0408 70.001C58.473 68.9931 60.4108 66.9437 60.0724 63.9846L52.1242 64.8937ZM50.5203 64.0706C49.5452 64.1821 48.8337 64.0364 48.515 63.9071C48.3607 63.8445 48.4329 63.8411 48.5936 64.0057C48.7768 64.1933 49.072 64.6082 49.1436 65.2345L41.1954 66.1436C41.5338 69.1027 43.8843 70.6616 45.507 71.3201C47.2895 72.0433 49.3864 72.2524 51.4293 72.0188L50.5203 64.0706ZM49.1436 65.2345C49.2152 65.8609 49.0214 66.3317 48.8853 66.5559C48.7659 66.7525 48.6947 66.7655 48.831 66.6696C49.1122 66.4717 49.7725 66.1691 50.7475 66.0576L49.8385 58.1094C47.7956 58.3431 45.8 59.0202 44.2269 60.1272C42.7947 61.1351 40.857 63.1845 41.1954 66.1436L49.1436 65.2345ZM50.7475 66.0576C51.7225 65.9461 52.4341 66.0918 52.7528 66.2211C52.9071 66.2837 52.8349 66.2871 52.6742 66.1225C52.4909 65.9349 52.1958 65.52 52.1242 64.8937L60.0724 63.9846C59.7339 61.0255 57.3835 59.4666 55.7607 58.8081C53.9783 58.0849 51.8813 57.8758 49.8385 58.1094L50.7475 66.0576Z" fill="black" mask="url(#path-10-inside-2_33_5)"/>
<mask id="path-12-inside-3_33_5" fill="white">
<ellipse cx="74.6338" cy="62.0642" rx="5.5" ry="3" transform="rotate(-12.9588 74.6338 62.0642)"/>
</mask>
<ellipse cx="74.6338" cy="62.0642" rx="5.5" ry="3" transform="rotate(-12.9588 74.6338 62.0642)" fill="#F7B942"/>
<ellipse cx="74.6338" cy="62.0642" rx="5.5" ry="3" transform="rotate(-12.9588 74.6338 62.0642)" fill="#F7B942"/>
<ellipse cx="74.6338" cy="62.0642" rx="5.5" ry="3" transform="rotate(-12.9588 74.6338 62.0642)" fill="#F7B942"/>
<path d="M76.0955 61.7279C75.9542 61.1135 76.094 60.6239 76.2042 60.3859C76.3008 60.1772 76.37 60.1563 76.2454 60.2668C75.9881 60.495 75.3659 60.8696 74.4095 61.0897L76.2035 68.886C78.2073 68.4249 80.1145 67.5283 81.5536 66.252C82.8638 65.09 84.5597 62.8364 83.8918 59.9339L76.0955 61.7279ZM74.4095 61.0897C73.4531 61.3098 72.7297 61.2448 72.3986 61.152C72.2382 61.107 72.3096 61.0956 72.4877 61.2411C72.6908 61.407 73.0306 61.7863 73.172 62.4006L65.3757 64.1946C66.0436 67.0972 68.554 68.3829 70.2403 68.8553C72.0925 69.3743 74.1997 69.3471 76.2035 68.886L74.4095 61.0897ZM73.172 62.4006C73.3133 63.015 73.1735 63.5046 73.0633 63.7426C72.9667 63.9513 72.8975 63.9722 73.0221 63.8617C73.2794 63.6335 73.9016 63.2588 74.858 63.0388L73.064 55.2425C71.0602 55.7036 69.153 56.6001 67.7139 57.8765C66.4037 59.0385 64.7078 61.2921 65.3757 64.1946L73.172 62.4006ZM74.858 63.0388C75.8144 62.8187 76.5378 62.8837 76.8689 62.9765C77.0293 63.0214 76.9579 63.0329 76.7798 62.8874C76.5767 62.7214 76.2369 62.3422 76.0955 61.7279L83.8918 59.9339C83.2239 57.0313 80.7135 55.7456 79.0272 55.2731C77.175 54.7542 75.0678 54.7814 73.064 55.2425L74.858 63.0388Z" fill="black" mask="url(#path-12-inside-3_33_5)"/>
<mask id="path-14-inside-4_33_5" fill="white">
<ellipse cx="98.8615" cy="54.6155" rx="5.5" ry="3" transform="rotate(-22.6495 98.8615 54.6155)"/>
</mask>
<ellipse cx="98.8615" cy="54.6155" rx="5.5" ry="3" transform="rotate(-22.6495 98.8615 54.6155)" fill="#F7B942"/>
<ellipse cx="98.8615" cy="54.6155" rx="5.5" ry="3" transform="rotate(-22.6495 98.8615 54.6155)" fill="#F7B942"/>
<ellipse cx="98.8615" cy="54.6155" rx="5.5" ry="3" transform="rotate(-22.6495 98.8615 54.6155)" fill="#F7B942"/>
<path d="M100.246 54.0378C100.003 53.456 100.058 52.9499 100.127 52.6967C100.187 52.4747 100.252 52.4425 100.148 52.5724C99.9323 52.8406 99.3821 53.3147 98.4764 53.6926L101.557 61.0756C103.455 60.2838 105.184 59.079 106.388 57.5787C107.483 56.2127 108.776 53.7058 107.629 50.9571L100.246 54.0378ZM98.4764 53.6926C97.5707 54.0705 96.8467 54.1282 96.5046 54.0925C96.339 54.0752 96.4074 54.0519 96.6075 54.1653C96.8356 54.2947 97.2344 54.6113 97.4772 55.1931L90.0941 58.2738C91.2411 61.0225 93.932 61.8673 95.6738 62.0492C97.587 62.249 99.6595 61.8674 101.557 61.0756L98.4764 53.6926ZM97.4772 55.1931C97.7199 55.7749 97.6645 56.2811 97.596 56.5342C97.5359 56.7562 97.4712 56.7885 97.5754 56.6586C97.7906 56.3903 98.3409 55.9163 99.2466 55.5383L96.1658 48.1553C94.2682 48.9471 92.5392 50.1519 91.3354 51.6523C90.2395 53.0182 88.9472 55.5251 90.0941 58.2738L97.4772 55.1931ZM99.2466 55.5383C100.152 55.1604 100.876 55.1027 101.218 55.1385C101.384 55.1558 101.316 55.1791 101.115 55.0656C100.887 54.9362 100.489 54.6196 100.246 54.0378L107.629 50.9571C106.482 48.2084 103.791 47.3636 102.049 47.1817C100.136 46.982 98.0634 47.3635 96.1658 48.1553L99.2466 55.5383Z" fill="black" mask="url(#path-14-inside-4_33_5)"/>
<mask id="path-16-inside-5_33_5" fill="white">
<ellipse cx="117.06" cy="46.345" rx="5.5" ry="3" transform="rotate(-32.6035 117.06 46.345)"/>
</mask>
<ellipse cx="117.06" cy="46.345" rx="5.5" ry="3" transform="rotate(-32.6035 117.06 46.345)" fill="#F7B942"/>
<ellipse cx="117.06" cy="46.345" rx="5.5" ry="3" transform="rotate(-32.6035 117.06 46.345)" fill="#F7B942"/>
<ellipse cx="117.06" cy="46.345" rx="5.5" ry="3" transform="rotate(-32.6035 117.06 46.345)" fill="#F7B942"/>
<path d="M118.323 45.5368C117.984 45.0057 117.951 44.4976 117.975 44.2364C117.995 44.0073 118.054 43.9644 117.973 44.1103C117.808 44.4118 117.348 44.9738 116.521 45.5026L120.832 52.2419C122.564 51.134 124.059 49.6485 124.985 47.9627C125.828 46.4278 126.668 43.7352 125.063 41.2262L118.323 45.5368ZM116.521 45.5026C115.694 46.0314 114.991 46.2133 114.648 46.2373C114.482 46.2489 114.545 46.2141 114.762 46.2912C115.009 46.3792 115.457 46.6222 115.796 47.1532L109.057 51.4638C110.662 53.9729 113.458 54.3398 115.205 54.2178C117.124 54.0839 119.099 53.3498 120.832 52.2419L116.521 45.5026ZM115.796 47.1532C116.136 47.6843 116.169 48.1924 116.145 48.4536C116.124 48.6827 116.066 48.7256 116.146 48.5796C116.312 48.2782 116.772 47.7162 117.599 47.1874L113.288 40.4481C111.556 41.556 110.061 43.0415 109.135 44.7273C108.292 46.2621 107.452 48.9547 109.057 51.4638L115.796 47.1532ZM117.599 47.1874C118.425 46.6586 119.129 46.4767 119.472 46.4527C119.638 46.4411 119.574 46.4759 119.358 46.3987C119.111 46.3107 118.663 46.0678 118.323 45.5368L125.063 41.2262C123.458 38.7171 120.662 38.3502 118.915 38.4721C116.996 38.6061 115.02 39.3401 113.288 40.4481L117.599 47.1874Z" fill="black" mask="url(#path-16-inside-5_33_5)"/>
<path d="M51.51 4.16918C29.0477 12.5148 31.8223 36.7423 36.0174 47.8129C46.719 50.9334 62.4094 48.0607 68.917 46.2343C80.3351 43.6675 95.7049 31.8264 95.1566 31.8528C78.4914 -6.21022 51.4858 3.66563 51.51 4.16918Z" fill="#5EB3AE" stroke="black" stroke-width="4"/>
<path d="M46.3283 17.4585C44.1616 19.1252 40.3283 24.1585 42.3283 30.9585" stroke="#F680CC" stroke-width="4" stroke-linecap="round"/>
</svg>
