<svg width="327" height="282" viewBox="0 0 327 282" fill="none" xmlns="http://www.w3.org/2000/svg">
<path d="M103.421 181.714C102.339 184.149 99.743 185.72 96.2825 186.205C92.8304 186.689 88.5973 186.074 84.4164 184.217C80.2355 182.359 76.9418 179.63 74.9869 176.744C73.0273 173.851 72.4526 170.872 73.5347 168.436C74.6167 166.001 77.2125 164.43 80.673 163.945C84.1252 163.461 88.3582 164.076 92.5391 165.933C96.72 167.791 100.014 170.52 101.969 173.406C103.928 176.299 104.503 179.278 103.421 181.714Z" fill="#F7B942"/>
<path d="M103.421 181.714C102.339 184.149 99.743 185.72 96.2825 186.205C92.8304 186.689 88.5973 186.074 84.4164 184.217C80.2355 182.359 76.9418 179.63 74.9869 176.744C73.0273 173.851 72.4526 170.872 73.5347 168.436C74.6167 166.001 77.2125 164.43 80.673 163.945C84.1252 163.461 88.3582 164.076 92.5391 165.933C96.72 167.791 100.014 170.52 101.969 173.406C103.928 176.299 104.503 179.278 103.421 181.714Z" fill="#F7B942"/>
<path d="M103.421 181.714C102.339 184.149 99.743 185.72 96.2825 186.205C92.8304 186.689 88.5973 186.074 84.4164 184.217C80.2355 182.359 76.9418 179.63 74.9869 176.744C73.0273 173.851 72.4526 170.872 73.5347 168.436C74.6167 166.001 77.2125 164.43 80.673 163.945C84.1252 163.461 88.3582 164.076 92.5391 165.933C96.72 167.791 100.014 170.52 101.969 173.406C103.928 176.299 104.503 179.278 103.421 181.714Z" fill="#F7B942"/>
<path d="M103.421 181.714C102.339 184.149 99.743 185.72 96.2825 186.205C92.8304 186.689 88.5973 186.074 84.4164 184.217C80.2355 182.359 76.9418 179.63 74.9869 176.744C73.0273 173.851 72.4526 170.872 73.5347 168.436C74.6167 166.001 77.2125 164.43 80.673 163.945C84.1252 163.461 88.3582 164.076 92.5391 165.933C96.72 167.791 100.014 170.52 101.969 173.406C103.928 176.299 104.503 179.278 103.421 181.714Z" stroke="black"/>
<path d="M159.617 200.389C158.88 202.951 156.525 204.863 153.164 205.82C149.811 206.774 145.534 206.748 141.137 205.484C136.741 204.219 133.103 201.969 130.769 199.38C128.43 196.784 127.451 193.912 128.188 191.351C128.924 188.789 131.279 186.877 134.64 185.92C137.993 184.966 142.27 184.992 146.667 186.257C151.064 187.521 154.702 189.771 157.035 192.361C159.374 194.957 160.353 197.828 159.617 200.389Z" fill="#F7B942"/>
<path d="M159.617 200.389C158.88 202.951 156.525 204.863 153.164 205.82C149.811 206.774 145.534 206.748 141.137 205.484C136.741 204.219 133.103 201.969 130.769 199.38C128.43 196.784 127.451 193.912 128.188 191.351C128.924 188.789 131.279 186.877 134.64 185.92C137.993 184.966 142.27 184.992 146.667 186.257C151.064 187.521 154.702 189.771 157.035 192.361C159.374 194.957 160.353 197.828 159.617 200.389Z" fill="#F7B942"/>
<path d="M159.617 200.389C158.88 202.951 156.525 204.863 153.164 205.82C149.811 206.774 145.534 206.748 141.137 205.484C136.741 204.219 133.103 201.969 130.769 199.38C128.43 196.784 127.451 193.912 128.188 191.351C128.924 188.789 131.279 186.877 134.64 185.92C137.993 184.966 142.27 184.992 146.667 186.257C151.064 187.521 154.702 189.771 157.035 192.361C159.374 194.957 160.353 197.828 159.617 200.389Z" fill="#F7B942"/>
<path d="M159.617 200.389C158.88 202.951 156.525 204.863 153.164 205.82C149.811 206.774 145.534 206.748 141.137 205.484C136.741 204.219 133.103 201.969 130.769 199.38C128.43 196.784 127.451 193.912 128.188 191.351C128.924 188.789 131.279 186.877 134.64 185.92C137.993 184.966 142.27 184.992 146.667 186.257C151.064 187.521 154.702 189.771 157.035 192.361C159.374 194.957 160.353 197.828 159.617 200.389Z" stroke="black"/>
<path d="M216.622 212.322C216.15 214.945 214.001 217.086 210.755 218.379C207.516 219.669 203.258 220.077 198.756 219.266C194.253 218.454 190.406 216.585 187.822 214.246C185.231 211.901 183.965 209.144 184.438 206.521C184.911 203.898 187.059 201.756 190.306 200.463C193.544 199.173 197.802 198.765 202.305 199.577C206.807 200.388 210.655 202.257 213.239 204.596C215.829 206.942 217.095 209.699 216.622 212.322Z" fill="#F7B942"/>
<path d="M216.622 212.322C216.15 214.945 214.001 217.086 210.755 218.379C207.516 219.669 203.258 220.077 198.756 219.266C194.253 218.454 190.406 216.585 187.822 214.246C185.231 211.901 183.965 209.144 184.438 206.521C184.911 203.898 187.059 201.756 190.306 200.463C193.544 199.173 197.802 198.765 202.305 199.577C206.807 200.388 210.655 202.257 213.239 204.596C215.829 206.942 217.095 209.699 216.622 212.322Z" fill="#F7B942"/>
<path d="M216.622 212.322C216.15 214.945 214.001 217.086 210.755 218.379C207.516 219.669 203.258 220.077 198.756 219.266C194.253 218.454 190.406 216.585 187.822 214.246C185.231 211.901 183.965 209.144 184.438 206.521C184.911 203.898 187.059 201.756 190.306 200.463C193.544 199.173 197.802 198.765 202.305 199.577C206.807 200.388 210.655 202.257 213.239 204.596C215.829 206.942 217.095 209.699 216.622 212.322Z" fill="#F7B942"/>
<path d="M216.622 212.322C216.15 214.945 214.001 217.086 210.755 218.379C207.516 219.669 203.258 220.077 198.756 219.266C194.253 218.454 190.406 216.585 187.822 214.246C185.231 211.901 183.965 209.144 184.438 206.521C184.911 203.898 187.059 201.756 190.306 200.463C193.544 199.173 197.802 198.765 202.305 199.577C206.807 200.388 210.655 202.257 213.239 204.596C215.829 206.942 217.095 209.699 216.622 212.322Z" stroke="black"/>
<path d="M73.6811 164.976C52.2839 152.622 31.1515 135.857 24.3399 123.936L25.593 117.812L29.1844 109.615C27.0045 131.18 78.1489 161.85 107.229 174.074C126.191 182.739 185.374 197.509 214.851 203.115C259.331 207.113 279.517 197.846 285.511 191.417L280.305 204.387C270.083 209.441 238.357 209.839 223.771 209.407C214.948 208.877 166.814 199.346 165.959 198.852C133.002 194.66 73.1869 165.832 73.6811 164.976Z" fill="#F781CB" stroke="black"/>
<path d="M287.665 189.794C286.085 194.906 281.06 198.794 273.091 201.369C265.138 203.939 254.368 205.159 241.522 205.017C215.837 204.734 181.971 199.008 146.022 187.895C110.074 176.782 78.8852 162.396 57.5215 148.135C46.8368 141.002 38.6343 133.917 33.519 127.307C28.3933 120.684 26.4398 114.638 28.02 109.526C29.6001 104.415 34.6248 100.526 42.594 97.9514C50.5472 95.3816 61.3174 94.1614 74.1633 94.3031C99.8483 94.5864 133.714 100.312 169.663 111.426C205.611 122.539 236.8 136.924 258.163 151.186C268.848 158.318 277.051 165.404 282.166 172.014C287.292 178.637 289.245 184.683 287.665 189.794Z" fill="#27DB8F" stroke="black"/>
<path d="M118.568 132.692C107.724 136.321 84.5259 146.589 78.4902 158.624" stroke="black" stroke-linecap="round"/>
<path d="M195.474 149.705C202.913 158.565 221.378 186.098 219.191 201.711" stroke="black" stroke-linecap="round"/>
<path d="M73.6508 144.995C72.8843 146.129 71.2804 146.673 69.1264 146.468C66.9939 146.264 64.4492 145.329 62.0177 143.685C59.5862 142.042 57.7694 140.029 56.7857 138.126C55.7922 136.204 55.6994 134.513 56.4659 133.379C57.2324 132.245 58.8363 131.701 60.9903 131.906C63.1228 132.109 65.6675 133.045 68.099 134.688C70.5305 136.332 72.3473 138.344 73.331 140.247C74.3245 142.17 74.4173 143.861 73.6508 144.995Z" fill="#F7B942"/>
<path d="M73.6508 144.995C72.8843 146.129 71.2804 146.673 69.1264 146.468C66.9939 146.264 64.4492 145.329 62.0177 143.685C59.5862 142.042 57.7694 140.029 56.7857 138.126C55.7922 136.204 55.6994 134.513 56.4659 133.379C57.2324 132.245 58.8363 131.701 60.9903 131.906C63.1228 132.109 65.6675 133.045 68.099 134.688C70.5305 136.332 72.3473 138.344 73.331 140.247C74.3245 142.17 74.4173 143.861 73.6508 144.995Z" fill="#F7B942"/>
<path d="M73.6508 144.995C72.8843 146.129 71.2804 146.673 69.1264 146.468C66.9939 146.264 64.4492 145.329 62.0177 143.685C59.5862 142.042 57.7694 140.029 56.7857 138.126C55.7922 136.204 55.6994 134.513 56.4659 133.379C57.2324 132.245 58.8363 131.701 60.9903 131.906C63.1228 132.109 65.6675 133.045 68.099 134.688C70.5305 136.332 72.3473 138.344 73.331 140.247C74.3245 142.17 74.4173 143.861 73.6508 144.995Z" fill="#F7B942"/>
<path d="M73.6508 144.995C72.8843 146.129 71.2804 146.673 69.1264 146.468C66.9939 146.264 64.4492 145.329 62.0177 143.685C59.5862 142.042 57.7694 140.029 56.7857 138.126C55.7922 136.204 55.6994 134.513 56.4659 133.379C57.2324 132.245 58.8363 131.701 60.9903 131.906C63.1228 132.109 65.6675 133.045 68.099 134.688C70.5305 136.332 72.3473 138.344 73.331 140.247C74.3245 142.17 74.4173 143.861 73.6508 144.995Z" stroke="black"/>
<path d="M113.18 163.837C112.635 165.093 111.159 165.922 109.003 166.116C106.87 166.308 104.197 165.855 101.505 164.686C98.8127 163.517 96.6573 161.872 95.3409 160.182C94.0114 158.475 93.6096 156.83 94.1548 155.574C94.7 154.319 96.1767 153.489 98.3318 153.296C100.465 153.104 103.139 153.556 105.831 154.726C108.523 155.895 110.678 157.539 111.994 159.229C113.324 160.936 113.726 162.582 113.18 163.837Z" fill="#F7B942"/>
<path d="M113.18 163.837C112.635 165.093 111.159 165.922 109.003 166.116C106.87 166.308 104.197 165.855 101.505 164.686C98.8127 163.517 96.6573 161.872 95.3409 160.182C94.0114 158.475 93.6096 156.83 94.1548 155.574C94.7 154.319 96.1767 153.489 98.3318 153.296C100.465 153.104 103.139 153.556 105.831 154.726C108.523 155.895 110.678 157.539 111.994 159.229C113.324 160.936 113.726 162.582 113.18 163.837Z" fill="#F7B942"/>
<path d="M113.18 163.837C112.635 165.093 111.159 165.922 109.003 166.116C106.87 166.308 104.197 165.855 101.505 164.686C98.8127 163.517 96.6573 161.872 95.3409 160.182C94.0114 158.475 93.6096 156.83 94.1548 155.574C94.7 154.319 96.1767 153.489 98.3318 153.296C100.465 153.104 103.139 153.556 105.831 154.726C108.523 155.895 110.678 157.539 111.994 159.229C113.324 160.936 113.726 162.582 113.18 163.837Z" fill="#F7B942"/>
<path d="M113.18 163.837C112.635 165.093 111.159 165.922 109.003 166.116C106.87 166.308 104.197 165.855 101.505 164.686C98.8127 163.517 96.6573 161.872 95.3409 160.182C94.0114 158.475 93.6096 156.83 94.1548 155.574C94.7 154.319 96.1767 153.489 98.3318 153.296C100.465 153.104 103.139 153.556 105.831 154.726C108.523 155.895 110.678 157.539 111.994 159.229C113.324 160.936 113.726 162.582 113.18 163.837Z" stroke="black"/>
<path d="M157.63 181.33C157.229 182.638 155.855 183.628 153.735 184.062C151.636 184.492 148.929 184.342 146.123 183.482C143.317 182.621 140.991 181.229 139.494 179.697C137.981 178.149 137.398 176.559 137.799 175.251C138.2 173.942 139.574 172.952 141.694 172.518C143.793 172.089 146.5 172.239 149.306 173.099C152.112 173.959 154.438 175.352 155.935 176.884C157.448 178.431 158.031 180.021 157.63 181.33Z" fill="#F7B942"/>
<path d="M157.63 181.33C157.229 182.638 155.855 183.628 153.735 184.062C151.636 184.492 148.929 184.342 146.123 183.482C143.317 182.621 140.991 181.229 139.494 179.697C137.981 178.149 137.398 176.559 137.799 175.251C138.2 173.942 139.574 172.952 141.694 172.518C143.793 172.089 146.5 172.239 149.306 173.099C152.112 173.959 154.438 175.352 155.935 176.884C157.448 178.431 158.031 180.021 157.63 181.33Z" fill="#F7B942"/>
<path d="M157.63 181.33C157.229 182.638 155.855 183.628 153.735 184.062C151.636 184.492 148.929 184.342 146.123 183.482C143.317 182.621 140.991 181.229 139.494 179.697C137.981 178.149 137.398 176.559 137.799 175.251C138.2 173.942 139.574 172.952 141.694 172.518C143.793 172.089 146.5 172.239 149.306 173.099C152.112 173.959 154.438 175.352 155.935 176.884C157.448 178.431 158.031 180.021 157.63 181.33Z" fill="#F7B942"/>
<path d="M157.63 181.33C157.229 182.638 155.855 183.628 153.735 184.062C151.636 184.492 148.929 184.342 146.123 183.482C143.317 182.621 140.991 181.229 139.494 179.697C137.981 178.149 137.398 176.559 137.799 175.251C138.2 173.942 139.574 172.952 141.694 172.518C143.793 172.089 146.5 172.239 149.306 173.099C152.112 173.959 154.438 175.352 155.935 176.884C157.448 178.431 158.031 180.021 157.63 181.33Z" stroke="black"/>
<path d="M206.835 190.811C206.66 192.168 205.471 193.376 203.455 194.16C201.458 194.937 198.765 195.245 195.854 194.869C192.943 194.494 190.416 193.512 188.682 192.254C186.93 190.984 186.088 189.515 186.263 188.157C186.438 186.8 187.626 185.593 189.642 184.808C191.639 184.031 194.333 183.724 197.243 184.099C200.154 184.474 202.681 185.456 204.415 186.714C206.167 187.984 207.01 189.454 206.835 190.811Z" fill="#F7B942"/>
<path d="M206.835 190.811C206.66 192.168 205.471 193.376 203.455 194.16C201.458 194.937 198.765 195.245 195.854 194.869C192.943 194.494 190.416 193.512 188.682 192.254C186.93 190.984 186.088 189.515 186.263 188.157C186.438 186.8 187.626 185.593 189.642 184.808C191.639 184.031 194.333 183.724 197.243 184.099C200.154 184.474 202.681 185.456 204.415 186.714C206.167 187.984 207.01 189.454 206.835 190.811Z" fill="#F7B942"/>
<path d="M206.835 190.811C206.66 192.168 205.471 193.376 203.455 194.16C201.458 194.937 198.765 195.245 195.854 194.869C192.943 194.494 190.416 193.512 188.682 192.254C186.93 190.984 186.088 189.515 186.263 188.157C186.438 186.8 187.626 185.593 189.642 184.808C191.639 184.031 194.333 183.724 197.243 184.099C200.154 184.474 202.681 185.456 204.415 186.714C206.167 187.984 207.01 189.454 206.835 190.811Z" fill="#F7B942"/>
<path d="M206.835 190.811C206.66 192.168 205.471 193.376 203.455 194.16C201.458 194.937 198.765 195.245 195.854 194.869C192.943 194.494 190.416 193.512 188.682 192.254C186.93 190.984 186.088 189.515 186.263 188.157C186.438 186.8 187.626 185.593 189.642 184.808C191.639 184.031 194.333 183.724 197.243 184.099C200.154 184.474 202.681 185.456 204.415 186.714C206.167 187.984 207.01 189.454 206.835 190.811Z" stroke="black"/>
<path d="M246.235 192.841C246.297 194.208 245.335 195.603 243.485 196.724C241.652 197.834 239.052 198.603 236.121 198.736C233.189 198.87 230.53 198.34 228.605 197.401C226.66 196.452 225.576 195.151 225.513 193.783C225.451 192.416 226.413 191.022 228.263 189.9C230.096 188.79 232.696 188.021 235.627 187.888C238.559 187.755 241.218 188.284 243.143 189.224C245.088 190.173 246.172 191.474 246.235 192.841Z" fill="#F7B942"/>
<path d="M246.235 192.841C246.297 194.208 245.335 195.603 243.485 196.724C241.652 197.834 239.052 198.603 236.121 198.736C233.189 198.87 230.53 198.34 228.605 197.401C226.66 196.452 225.576 195.151 225.513 193.783C225.451 192.416 226.413 191.022 228.263 189.9C230.096 188.79 232.696 188.021 235.627 187.888C238.559 187.755 241.218 188.284 243.143 189.224C245.088 190.173 246.172 191.474 246.235 192.841Z" fill="#F7B942"/>
<path d="M246.235 192.841C246.297 194.208 245.335 195.603 243.485 196.724C241.652 197.834 239.052 198.603 236.121 198.736C233.189 198.87 230.53 198.34 228.605 197.401C226.66 196.452 225.576 195.151 225.513 193.783C225.451 192.416 226.413 191.022 228.263 189.9C230.096 188.79 232.696 188.021 235.627 187.888C238.559 187.755 241.218 188.284 243.143 189.224C245.088 190.173 246.172 191.474 246.235 192.841Z" fill="#F7B942"/>
<path d="M246.235 192.841C246.297 194.208 245.335 195.603 243.485 196.724C241.652 197.834 239.052 198.603 236.121 198.736C233.189 198.87 230.53 198.34 228.605 197.401C226.66 196.452 225.576 195.151 225.513 193.783C225.451 192.416 226.413 191.022 228.263 189.9C230.096 188.79 232.696 188.021 235.627 187.888C238.559 187.755 241.218 188.284 243.143 189.224C245.088 190.173 246.172 191.474 246.235 192.841Z" stroke="black"/>
<path d="M165.35 56.3336C118.652 48.4201 99.4578 92.6343 95.6978 115.731C110.933 131.649 140.63 142.238 153.575 145.543C175.657 152.433 213.669 147.354 212.704 146.857C221.795 65.232 165.807 55.4478 165.35 56.3336Z" fill="#F781CB" stroke="black"/>
<path d="M143.347 73.9607C137.991 74.6723 126.455 79.4998 123.158 93.1165" stroke="white" stroke-width="3" stroke-linecap="round"/>
</svg>
