<svg width="223" height="174" viewBox="0 0 223 174" fill="none" xmlns="http://www.w3.org/2000/svg">
<path fill-rule="evenodd" clip-rule="evenodd" d="M112.531 2.32471C112.142 0.122684 108.982 0.122676 108.592 2.32471L99.018 56.4343L44.457 16.2279C42.5659 14.8344 39.7762 16.3685 41.0022 18.1277L77.0257 69.8177L7.37635 60.2069C4.99236 59.878 4.16501 63.2652 6.4322 64.0723L68.1178 86.0326L2.07783 111.5C-0.154477 112.361 1.23291 115.056 3.74747 114.744L78.0982 105.501L43.3488 153.267C41.9829 155.144 44.3755 157.451 46.2014 156.016L97.3001 115.883L109.608 171.67C110.036 173.614 113.662 173.812 114.044 171.912L125.117 116.899L174.922 156.016C176.748 157.451 179.141 155.144 177.775 153.267L142.63 104.958L219.855 113.726C222.401 114.015 223.219 111.374 220.856 110.494L154.116 85.6374L214.691 64.0723C216.959 63.2652 216.131 59.878 213.747 60.2069L144.557 69.7543L179.229 18.2453C180.373 16.5462 177.331 14.761 175.568 16.097L122.134 56.5967L112.531 2.32471Z" fill="#FFDF03"/>
</svg>
