<svg width="118" height="115" viewBox="0 0 118 115" fill="none" xmlns="http://www.w3.org/2000/svg">
<path d="M73.0332 2.7136C75.289 -0.629099 80.5134 1.08882 80.3453 5.11801L79.0478 36.2012C78.9575 38.3643 80.6046 40.2067 82.7643 40.3582L113.798 42.5361C117.821 42.8184 118.946 48.2018 115.372 50.0707L87.8045 64.4887C85.886 65.4921 85.1141 67.8397 86.0627 69.7858L99.6936 97.7509C101.461 101.376 97.3605 105.041 93.9553 102.881L67.6851 86.216C65.857 85.0562 63.4379 85.5615 62.2268 87.3561L44.8238 113.143C42.5679 116.486 37.3435 114.768 37.5117 110.739L38.8091 79.6557C38.8994 77.4926 37.2523 75.6503 35.0926 75.4987L4.05863 73.3209C0.0358283 73.0386 -1.08862 67.6551 2.48485 65.7862L30.0524 51.3682C31.9709 50.3649 32.7428 48.0172 31.7943 46.0711L18.1633 18.106C16.3964 14.481 20.4964 10.8155 23.9017 12.9757L50.1718 29.641C52 30.8007 54.419 30.2955 55.6301 28.5009L73.0332 2.7136Z" fill="#F7BA04"/>
<path d="M73.0332 2.7136C75.289 -0.629099 80.5134 1.08882 80.3453 5.11801L79.0478 36.2012C78.9575 38.3643 80.6046 40.2067 82.7643 40.3582L113.798 42.5361C117.821 42.8184 118.946 48.2018 115.372 50.0707L87.8045 64.4887C85.886 65.4921 85.1141 67.8397 86.0627 69.7858L99.6936 97.7509C101.461 101.376 97.3605 105.041 93.9553 102.881L67.6851 86.216C65.857 85.0562 63.4379 85.5615 62.2268 87.3561L44.8238 113.143C42.5679 116.486 37.3435 114.768 37.5117 110.739L38.8091 79.6557C38.8994 77.4926 37.2523 75.6503 35.0926 75.4987L4.05863 73.3209C0.0358283 73.0386 -1.08862 67.6551 2.48485 65.7862L30.0524 51.3682C31.9709 50.3649 32.7428 48.0172 31.7943 46.0711L18.1633 18.106C16.3964 14.481 20.4964 10.8155 23.9017 12.9757L50.1718 29.641C52 30.8007 54.419 30.2955 55.6301 28.5009L73.0332 2.7136Z" stroke="white"/>
</svg>
